SplineFontDB: 3.0
FontName: Jost-HeavyItalic
FullName: Jost* 800 Heavy Italic
FamilyName: Jost* Heavy
Weight: Heavy
Copyright: This typeface is licensed under the SIL open font license.
UComments: "2018-6-8: Created with FontForge (http://fontforge.org)"
Version: 003.200
ItalicAngle: -10
UnderlinePosition: -100
UnderlineWidth: 50
Ascent: 800
Descent: 200
InvalidEm: 0
LayerCount: 2
Layer: 0 0 "Back" 1
Layer: 1 0 "Fore" 0
XUID: [1021 69 1495626776 760146]
FSType: 0
OS2Version: 0
OS2_WeightWidthSlopeOnly: 0
OS2_UseTypoMetrics: 0
CreationTime: 1528480336
ModificationTime: 1533318189
PfmFamily: 17
TTFWeight: 800
TTFWidth: 5
LineGap: 100
VLineGap: 0
OS2TypoAscent: 825
OS2TypoAOffset: 0
OS2TypoDescent: -225
OS2TypoDOffset: 0
OS2TypoLinegap: 100
OS2WinAscent: 900
OS2WinAOffset: 0
OS2WinDescent: 300
OS2WinDOffset: 0
HheadAscent: 1030
HheadAOffset: 0
HheadDescent: -350
HheadDOffset: 0
OS2CapHeight: 700
OS2XHeight: 460
OS2Vendor: 'PfEd'
Lookup: 1 0 0 "alt a" { "alt a"  } ['ss01' ('DFLT' <'dflt' > 'latn' <'dflt' > ) ]
Lookup: 1 0 0 "Tabular Numbers lookup" { "Tabular Numbers lookup"  } ['tnum' ('DFLT' <'dflt' > 'grek' <'dflt' > 'latn' <'dflt' > ) ]
Lookup: 258 0 0 "Lets get our kern on" { "kernin like nobodys business" [150,0,4] } ['kern' ('DFLT' <'dflt' > 'latn' <'dflt' > ) ]
MarkAttachClasses: 1
DEI: 91125
KernClass2: 16 14 "kernin like nobodys business"
 15 slash seven V W
 175 quotedbl quotesingle asterisk grave dieresis ordfeminine macron degree acute ordmasculine circumflex breve dotaccent ring tilde quoteleft quoteright quotedblleft quotedblright
 17 nine question F P
 107 A L backslash Agrave Aacute Acircumflex Atilde Adieresis Aring Amacron Abreve Aogonek Lacute uni013B Lslash
 26 three eight B C germandbls
 5 K X Z
 125 at D G O Ograve Oacute Ocircumflex Otilde Odieresis Oslash Dcaron Dcroat Gcircumflex Gbreve Gdotaccent uni0122 Omacron Obreve

StartChar: H
Encoding: 72 72 0
Width: 808
VWidth: 0
Flags: HMW
LayerCount: 2
Fore
SplineSet
167 279 m 1
 198 452 l 1
 744 452 l 1
 713 279 l 1
 167 279 l 1
665 700 m 1
 859 700 l 1
 736 0 l 1
 542 0 l 1
 665 700 l 1
195 700 m 1
 389 700 l 1
 266 0 l 1
 72 0 l 1
 195 700 l 1
EndSplineSet
EndChar

StartChar: O
Encoding: 79 79 1
Width: 830
VWidth: 0
Flags: HMW
LayerCount: 2
Fore
SplineSet
300 350 m 0
 280 236 335 159 443 159 c 0
 551 159 634 236 654 350 c 0
 674 464 622 541 510 541 c 0
 402 541 320 464 300 350 c 0
94 350 m 0
 133 570 326 718 542 718 c 0
 762 718 900 570 861 350 c 0
 822 130 634 -26 410 -26 c 0
 186 -26 55 130 94 350 c 0
EndSplineSet
EndChar

StartChar: I
Encoding: 73 73 2
Width: 342
VWidth: 0
Flags: HMW
LayerCount: 2
Fore
SplineSet
195 700 m 1
 393 700 l 1
 270 0 l 1
 72 0 l 1
 195 700 l 1
EndSplineSet
EndChar

StartChar: C
Encoding: 67 67 3
Width: 705
VWidth: 0
Flags: HMW
LayerCount: 2
Fore
SplineSet
308 350 m 0
 287 232 363 166 469 166 c 0
 568 166 636 210 689 256 c 1
 653 50 l 1
 590 10 525 -18 423 -18 c 0
 189 -18 55 129 94 350 c 0
 133 571 319 718 553 718 c 0
 655 718 710 690 759 650 c 1
 722 444 l 1
 685 490 633 534 534 534 c 0
 428 534 329 468 308 350 c 0
EndSplineSet
EndChar

StartChar: E
Encoding: 69 69 4
Width: 619
VWidth: 0
Flags: HMW
LayerCount: 2
Fore
SplineSet
204 0 m 1
 232 158 l 1
 586 158 l 1
 558 0 l 1
 204 0 l 1
300 542 m 1
 327 700 l 1
 681 700 l 1
 654 542 l 1
 300 542 l 1
255 288 m 1
 282 440 l 1
 616 440 l 1
 589 288 l 1
 255 288 l 1
195 700 m 1
 381 700 l 1
 258 0 l 1
 72 0 l 1
 195 700 l 1
EndSplineSet
EndChar

StartChar: F
Encoding: 70 70 6
Width: 569
VWidth: 0
Flags: HMW
LayerCount: 2
Fore
SplineSet
298 534 m 1
 327 700 l 1
 641 700 l 1
 612 534 l 1
 298 534 l 1
250 262 m 1
 277 416 l 1
 581 416 l 1
 554 262 l 1
 250 262 l 1
195 700 m 1
 381 700 l 1
 258 0 l 1
 72 0 l 1
 195 700 l 1
EndSplineSet
EndChar

StartChar: G
Encoding: 71 71 7
Width: 826
VWidth: 0
Flags: HMW
LayerCount: 2
Fore
SplineSet
468 246 m 1
 494 392 l 1
 857 392 l 1
 732 246 l 1
 468 246 l 1
857 392 m 1
 832 162 665 -26 419 -26 c 0
 191 -26 54 124 94 350 c 0
 134 576 331 718 559 718 c 0
 713 718 800 644 851 547 c 1
 658 462 l 1
 639 512 603 552 529 552 c 0
 421 552 321 480 298 350 c 0
 275 220 341 140 457 140 c 0
 609 140 663 256 687 390 c 1
 857 392 l 1
EndSplineSet
EndChar

StartChar: T
Encoding: 84 84 8
Width: 590
VWidth: 0
Flags: HMW
LayerCount: 2
Fore
SplineSet
95 526 m 1
 125 700 l 1
 712 700 l 1
 682 526 l 1
 486 526 l 1
 393 0 l 1
 198 0 l 1
 291 526 l 1
 95 526 l 1
EndSplineSet
EndChar

StartChar: L
Encoding: 76 76 9
Width: 551
VWidth: 0
Flags: HMW
LayerCount: 2
Fore
SplineSet
204 0 m 1
 233 166 l 1
 579 166 l 1
 550 0 l 1
 204 0 l 1
195 700 m 1
 389 700 l 1
 266 0 l 1
 72 0 l 1
 195 700 l 1
EndSplineSet
EndChar

StartChar: D
Encoding: 68 68 10
Width: 749
VWidth: 0
Flags: HMW
LayerCount: 2
Fore
SplineSet
297 530 m 1
 327 700 l 1
 457 700 l 2
 693 700 818 568 780 350 c 1
 576 350 l 1
 602 496 512 530 419 530 c 2
 297 530 l 1
334 0 m 2
 204 0 l 1
 234 170 l 1
 356 170 l 2
 449 170 550 204 576 350 c 1
 780 350 l 1
 742 132 570 0 334 0 c 2
195 700 m 1
 397 700 l 1
 274 0 l 1
 72 0 l 1
 195 700 l 1
EndSplineSet
EndChar

StartChar: Q
Encoding: 81 81 11
Width: 885
VWidth: 0
Flags: HMW
LayerCount: 2
Fore
SplineSet
300 350 m 0
 277 220 353 142 461 142 c 0
 569 142 654 212 674 326 c 0
 694 440 643 541 515 541 c 0
 407 541 320 464 300 350 c 0
94 350 m 0
 133 570 331 718 547 718 c 0
 767 718 900 570 861 350 c 0
 822 130 639 -26 415 -26 c 0
 191 -26 55 130 94 350 c 0
403 300 m 1
 598 300 l 1
 891 -16 l 1
 687 -16 l 1
 403 300 l 1
EndSplineSet
EndChar

StartChar: A
Encoding: 65 65 12
Width: 757
VWidth: 0
Flags: HMW
LayerCount: 2
Fore
SplineSet
216 112 m 1
 247 256 l 1
 605 256 l 1
 586 112 l 1
 216 112 l 1
452 412 m 1
 323 203 l 1
 327 159 l 1
 218 0 l 1
 -4 0 l 1
 511 747 l 1
 760 0 l 1
 540 0 l 1
 487 152 l 1
 507 202 l 1
 452 412 l 1
EndSplineSet
EndChar

StartChar: R
Encoding: 82 82 13
Width: 673
VWidth: 0
Flags: HMW
LayerCount: 2
Fore
SplineSet
316 308 m 1
 516 308 l 1
 672 0 l 1
 445 0 l 1
 316 308 l 1
195 700 m 1
 389 700 l 1
 266 0 l 1
 72 0 l 1
 195 700 l 1
291 536 m 1
 319 700 l 1
 471 700 l 2
 663 700 736 604 712 466 c 0
 688 328 581 231 389 231 c 2
 237 231 l 1
 263 380 l 1
 398 380 l 2
 460 380 499 408 508 458 c 0
 517 508 488 536 426 536 c 2
 291 536 l 1
EndSplineSet
EndChar

StartChar: V
Encoding: 86 86 14
Width: 757
VWidth: 0
Flags: HMW
LayerCount: 2
Fore
SplineSet
435 320 m 1
 655 700 l 1
 883 700 l 1
 371 -47 l 1
 119 700 l 1
 349 700 l 1
 435 320 l 1
EndSplineSet
EndChar

StartChar: M
Encoding: 77 77 15
Width: 915
VWidth: 0
Flags: HMW
LayerCount: 2
Fore
SplineSet
703 480 m 1
 892 735 l 1
 884 0 l 1
 676 0 l 1
 703 480 l 1
284 735 m 1
 383 480 l 1
 238 0 l 1
 32 0 l 1
 284 735 l 1
892 735 m 1
 848 490 l 1
 469 65 l 1
 240 490 l 1
 284 735 l 1
 517 332 l 1
 892 735 l 1
EndSplineSet
EndChar

StartChar: W
Encoding: 87 87 16
Width: 1087
VWidth: 0
Flags: HMW
LayerCount: 2
Fore
SplineSet
421 180 m 1
 306 -44 l 1
 125 700 l 1
 358 700 l 1
 421 180 l 1
766 -44 m 1
 730 180 l 1
 975 700 l 1
 1209 700 l 1
 766 -44 l 1
306 -44 m 1
 330 206 l 1
 674 735 l 1
 828 206 l 1
 766 -44 l 1
 604 342 l 1
 306 -44 l 1
EndSplineSet
EndChar

StartChar: N
Encoding: 78 78 17
Width: 799
VWidth: 0
Flags: HMW
LayerCount: 2
Fore
SplineSet
164 500 m 1
 202 735 l 1
 757 200 l 1
 722 -35 l 1
 164 500 l 1
664 700 m 1
 851 700 l 1
 722 -35 l 1
 571 172 l 1
 664 700 l 1
202 735 m 1
 351 528 l 1
 258 0 l 1
 72 0 l 1
 202 735 l 1
EndSplineSet
EndChar

StartChar: a
Encoding: 97 97 18
Width: 630
VWidth: 0
Flags: HMW
LayerCount: 2
Fore
SplineSet
485 460 m 5
 659 460 l 5
 578 0 l 5
 404 0 l 5
 485 460 l 5
72 230 m 4
 100 388 221 470 329 470 c 4
 444 470 515 379 489 230 c 4
 463 81 360 -10 245 -10 c 4
 137 -10 44 72 72 230 c 4
254 230 m 4
 243 168 280 126 332 126 c 4
 378 126 433 164 445 230 c 4
 457 296 414 334 368 334 c 4
 316 334 265 292 254 230 c 4
EndSplineSet
Substitution2: "alt a" a.alt
EndChar

StartChar: X
Encoding: 88 88 19
Width: 725
VWidth: 0
Flags: HMW
LayerCount: 2
Fore
SplineSet
589 700 m 1
 832 700 l 1
 549 356 l 1
 724 0 l 1
 482 0 l 1
 402 214 l 1
 244 0 l 1
 2 0 l 1
 309 356 l 1
 149 700 l 1
 392 700 l 1
 457 514 l 1
 589 700 l 1
EndSplineSet
EndChar

StartChar: K
Encoding: 75 75 20
Width: 740
VWidth: 0
Flags: HMW
LayerCount: 2
Fore
SplineSet
195 700 m 1
 398 700 l 1
 275 0 l 1
 72 0 l 1
 195 700 l 1
624 700 m 1
 851 700 l 1
 516 372 l 1
 744 0 l 1
 508 0 l 1
 283 366 l 1
 624 700 l 1
EndSplineSet
EndChar

StartChar: Y
Encoding: 89 89 21
Width: 690
VWidth: 0
Flags: HMW
LayerCount: 2
Fore
SplineSet
309 360 m 1
 507 360 l 1
 444 0 l 1
 246 0 l 1
 309 360 l 1
591 700 m 1
 817 700 l 1
 365 111 l 1
 119 700 l 1
 345 700 l 1
 425 456 l 1
 591 700 l 1
EndSplineSet
EndChar

StartChar: B
Encoding: 66 66 22
Width: 696
VWidth: 0
Flags: HMW
LayerCount: 2
Fore
SplineSet
282 398 m 1
 442 398 l 2
 577 398 714 340 688 194 c 0
 663 55 548 0 372 0 c 2
 212 0 l 1
 238 148 l 1
 374 148 l 2
 432 148 480 162 491 224 c 0
 501 278 457 292 399 292 c 2
 263 292 l 1
 282 398 l 1
272 342 m 1
 287 424 l 1
 404 424 l 2
 458 424 491 448 498 490 c 0
 505 532 480 552 426 552 c 2
 309 552 l 1
 335 700 l 1
 477 700 l 2
 627 700 727 640 706 521 c 0
 686 405 564 342 414 342 c 2
 272 342 l 1
195 700 m 1
 389 700 l 1
 266 0 l 1
 72 0 l 1
 195 700 l 1
EndSplineSet
EndChar

StartChar: Z
Encoding: 90 90 23
Width: 642
VWidth: 0
Flags: HMW
LayerCount: 2
Fore
SplineSet
157 526 m 1
 187 700 l 1
 753 700 l 1
 339 166 l 1
 619 166 l 1
 590 0 l 1
 6 0 l 1
 414 526 l 1
 157 526 l 1
EndSplineSet
EndChar

StartChar: o
Encoding: 111 111 24
Width: 602
VWidth: 0
Flags: HMW
LayerCount: 2
Fore
SplineSet
72 230 m 0
 98 378 230 470 385 470 c 0
 540 470 639 378 613 230 c 0
 587 82 455 -10 300 -10 c 0
 145 -10 46 82 72 230 c 0
251 230 m 0
 240 166 275 130 325 130 c 0
 375 130 424 166 435 230 c 0
 446 294 410 331 360 331 c 0
 310 331 262 294 251 230 c 0
EndSplineSet
EndChar

StartChar: J
Encoding: 74 74 25
Width: 357
VWidth: 0
Flags: HMW
LayerCount: 2
Fore
SplineSet
-82 -48 m 1
 -63 -64 -34 -80 -6 -80 c 0
 24 -80 62 -60 72 -2 c 2
 195 700 l 1
 409 700 l 1
 277 -52 l 2
 252 -194 123 -244 -11 -244 c 0
 -97 -244 -170 -214 -213 -186 c 1
 -82 -48 l 1
EndSplineSet
EndChar

StartChar: t
Encoding: 116 116 26
Width: 341
VWidth: 0
Flags: HMW
LayerCount: 2
Fore
SplineSet
86 460 m 1
 417 460 l 1
 392 320 l 1
 61 320 l 1
 86 460 l 1
197 620 m 1
 363 620 l 1
 254 0 l 1
 88 0 l 1
 197 620 l 1
EndSplineSet
EndChar

StartChar: d
Encoding: 100 100 27
Width: 630
VWidth: 0
Flags: HMW
LayerCount: 2
Fore
SplineSet
542 780 m 1
 716 780 l 1
 578 0 l 1
 404 0 l 1
 542 780 l 1
72 230 m 0
 100 388 221 470 329 470 c 0
 444 470 515 379 489 230 c 0
 463 81 359 -10 244 -10 c 0
 136 -10 44 72 72 230 c 0
255 230 m 0
 244 168 280 126 332 126 c 0
 378 126 433 164 445 230 c 0
 457 296 415 334 369 334 c 0
 317 334 266 292 255 230 c 0
EndSplineSet
EndChar

StartChar: l
Encoding: 108 108 28
Width: 282
VWidth: 0
Flags: HMW
LayerCount: 2
Fore
SplineSet
193 780 m 1
 366 780 l 1
 228 0 l 1
 55 0 l 1
 193 780 l 1
EndSplineSet
EndChar

StartChar: i
Encoding: 105 105 29
Width: 281
VWidth: 0
Flags: HMW
LayerCount: 2
Fore
SplineSet
153 627 m 0
 163 681 212 717 266 717 c 0
 320 717 359 681 349 627 c 0
 339 573 289 537 235 537 c 0
 181 537 143 573 153 627 c 0
137 460 m 1
 305 460 l 1
 224 0 l 1
 56 0 l 1
 137 460 l 1
EndSplineSet
EndChar

StartChar: r
Encoding: 114 114 30
Width: 432
VWidth: 0
Flags: HMW
LayerCount: 2
Fore
SplineSet
305 460 m 1
 224 0 l 1
 55 0 l 1
 136 460 l 1
 305 460 l 1
405 282 m 1
 394 298 378 310 352 310 c 0
 312 310 273 277 261 211 c 1
 237 280 l 1
 256 389 347 472 429 472 c 0
 462 472 494 454 504 432 c 1
 405 282 l 1
EndSplineSet
EndChar

StartChar: c
Encoding: 99 99 31
Width: 498
VWidth: 0
Flags: HMW
LayerCount: 2
Fore
SplineSet
249 230 m 0
 237 162 280 124 342 124 c 0
 392 124 443 144 481 188 c 1
 453 26 l 1
 417 4 374 -10 302 -10 c 0
 142 -10 45 82 71 230 c 0
 97 378 227 470 387 470 c 0
 459 470 496 454 525 436 c 1
 496 273 l 1
 474 317 421 336 379 336 c 0
 317 336 260 290 249 230 c 0
EndSplineSet
EndChar

StartChar: b
Encoding: 98 98 32
Width: 630
VWidth: 0
Flags: HMW
LayerCount: 2
Fore
SplineSet
366 780 m 1
 228 0 l 1
 54 0 l 1
 192 780 l 1
 366 780 l 1
641 230 m 0
 613 72 490 -10 382 -10 c 0
 267 -10 198 81 224 230 c 0
 250 379 352 470 467 470 c 0
 575 470 669 388 641 230 c 0
459 230 m 0
 470 292 433 334 381 334 c 0
 335 334 281 296 269 230 c 0
 257 164 298 126 344 126 c 0
 396 126 448 168 459 230 c 0
EndSplineSet
EndChar

StartChar: p
Encoding: 112 112 33
Width: 630
VWidth: 0
Flags: HMW
LayerCount: 2
Fore
SplineSet
189 -220 m 1
 15 -220 l 1
 135 460 l 1
 309 460 l 1
 189 -220 l 1
641 230 m 0
 612 64 489 -18 381 -18 c 0
 257 -18 207 81 233 230 c 0
 259 379 344 478 468 478 c 0
 576 478 670 396 641 230 c 0
459 230 m 0
 470 292 431 326 379 326 c 0
 333 326 281 296 269 230 c 0
 257 164 300 134 346 134 c 0
 398 134 448 168 459 230 c 0
EndSplineSet
EndChar

StartChar: q
Encoding: 113 113 34
Width: 630
VWidth: 0
Flags: HMW
LayerCount: 2
Fore
SplineSet
365 -220 m 1
 485 460 l 1
 659 460 l 1
 539 -220 l 1
 365 -220 l 1
72 230 m 0
 101 396 222 478 330 478 c 0
 454 478 507 379 481 230 c 0
 455 81 367 -18 243 -18 c 0
 135 -18 43 64 72 230 c 0
255 230 m 0
 244 168 282 134 334 134 c 0
 380 134 433 164 445 230 c 0
 457 296 413 326 367 326 c 0
 315 326 266 292 255 230 c 0
EndSplineSet
EndChar

StartChar: h
Encoding: 104 104 35
Width: 581
VWidth: 0
Flags: HMW
LayerCount: 2
Fore
SplineSet
366 780 m 1
 228 0 l 1
 55 0 l 1
 193 780 l 1
 366 780 l 1
403 280 m 2
 411 328 404 355 359 355 c 0
 317 355 286 330 277 280 c 1
 251 280 l 1
 270 389 334 479 454 479 c 0
 574 479 601 416 582 306 c 2
 528 0 l 1
 354 0 l 1
 403 280 l 2
EndSplineSet
EndChar

StartChar: n
Encoding: 110 110 36
Width: 590
VWidth: 0
Flags: HMW
LayerCount: 2
Fore
SplineSet
309 460 m 1
 228 0 l 1
 55 0 l 1
 136 460 l 1
 309 460 l 1
403 280 m 2
 411 328 404 355 359 355 c 0
 317 355 286 330 277 280 c 1
 250 272 l 1
 269 381 333 470 453 470 c 0
 573 470 608 408 589 298 c 2
 536 0 l 1
 354 0 l 1
 403 280 l 2
EndSplineSet
EndChar

StartChar: m
Encoding: 109 109 37
Width: 832
VWidth: 0
Flags: HMW
LayerCount: 2
Fore
SplineSet
375 280 m 2
 383 328 375 355 339 355 c 0
 305 355 278 330 269 280 c 1
 242 272 l 1
 261 381 326 470 438 470 c 0
 550 470 572 416 553 306 c 2
 499 0 l 1
 326 0 l 1
 375 280 l 2
301 460 m 1
 220 0 l 1
 55 0 l 1
 136 460 l 1
 301 460 l 1
831 298 m 2
 778 0 l 1
 605 0 l 1
 654 280 l 2
 662 328 653 355 617 355 c 0
 583 355 557 330 548 280 c 1
 494 272 l 1
 513 381 605 470 717 470 c 0
 829 470 850 408 831 298 c 2
EndSplineSet
EndChar

StartChar: k
Encoding: 107 107 38
Width: 618
VWidth: 0
Flags: HMW
LayerCount: 2
Fore
SplineSet
192 780 m 1
 357 780 l 1
 219 0 l 1
 54 0 l 1
 192 780 l 1
467 460 m 1
 671 460 l 1
 442 270 l 1
 610 0 l 1
 409 0 l 1
 238 270 l 1
 467 460 l 1
EndSplineSet
EndChar

StartChar: u
Encoding: 117 117 39
Width: 590
VWidth: 0
Flags: HMW
LayerCount: 2
Fore
SplineSet
362 0 m 1
 443 460 l 1
 617 460 l 1
 536 0 l 1
 362 0 l 1
268 180 m 2
 260 132 268 105 313 105 c 0
 355 105 385 130 394 180 c 1
 421 188 l 1
 402 79 339 -10 219 -10 c 0
 99 -10 65 52 84 162 c 2
 136 460 l 1
 317 460 l 1
 268 180 l 2
EndSplineSet
EndChar

StartChar: e
Encoding: 101 101 40
Width: 586
VWidth: 0
Flags: HMW
LayerCount: 2
Fore
SplineSet
130 194 m 1
 146 286 l 1
 583 286 l 1
 582 194 l 1
 130 194 l 1
423 242 m 2
 436 317 418 354 358 354 c 0
 300 354 258 319 246 252 c 1
 241 230 l 1
 226 145 266 112 320 112 c 0
 366 112 404 128 426 162 c 1
 571 126 l 1
 516 45 435 -10 299 -10 c 0
 127 -10 50 91 75 230 c 0
 78 247 81 264 87 280 c 0
 126 393 233 470 383 470 c 0
 539 470 618 383 592 238 c 0
 591 230 587 212 582 194 c 1
 418 214 l 1
 423 242 l 2
EndSplineSet
EndChar

StartChar: g
Encoding: 103 103 41
Width: 622
VWidth: 0
Flags: HMW
LayerCount: 2
Fore
SplineSet
35 -34 m 1
 202 -34 l 1
 198 -88 231 -106 281 -106 c 0
 343 -106 393 -66 406 10 c 2
 485 460 l 1
 650 460 l 1
 571 10 l 2
 539 -174 413 -242 265 -242 c 0
 81 -242 27 -157 35 -34 c 1
73 238 m 0
 101 396 221 470 329 470 c 0
 444 470 516 387 490 238 c 0
 464 89 362 6 247 6 c 0
 139 6 45 80 73 238 c 0
256 238 m 0
 245 176 283 142 335 142 c 0
 381 142 434 172 446 238 c 0
 458 304 415 334 369 334 c 0
 317 334 267 300 256 238 c 0
EndSplineSet
EndChar

StartChar: f
Encoding: 102 102 42
Width: 361
VWidth: 0
Flags: HMW
LayerCount: 2
Fore
SplineSet
93 460 m 1
 432 460 l 1
 407 320 l 1
 68 320 l 1
 93 460 l 1
441 620 m 1
 430 636 418 645 400 645 c 0
 370 645 348 626 341 584 c 2
 238 0 l 1
 73 0 l 1
 184 630 l 2
 202 730 275 798 399 798 c 0
 475 798 509 764 529 744 c 1
 441 620 l 1
EndSplineSet
EndChar

StartChar: s
Encoding: 115 115 43
Width: 469
VWidth: 0
Flags: HMW
LayerCount: 2
Fore
SplineSet
112 178 m 1
 184 120 236 104 262 104 c 0
 285 104 298 115 301 131 c 0
 306 159 263 171 215 189 c 0
 153 213 96 248 112 337 c 0
 126 416 207 470 313 470 c 0
 394 470 456 444 507 408 c 1
 436 294 l 1
 397 330 349 354 312 354 c 0
 282 354 270 342 268 330 c 0
 263 301 312 294 368 272 c 0
 429 248 485 218 470 130 c 0
 452 28 378 -22 264 -22 c 0
 164 -22 88 10 28 62 c 1
 112 178 l 1
EndSplineSet
EndChar

StartChar: y
Encoding: 121 121 44
Width: 545
VWidth: 0
Flags: HMW
LayerCount: 2
Fore
SplineSet
639 460 m 1
 219 -220 l 1
 47 -220 l 1
 199 28 l 1
 69 460 l 1
 257 460 l 1
 342 88 l 1
 250 88 l 1
 463 460 l 1
 639 460 l 1
EndSplineSet
EndChar

StartChar: w
Encoding: 119 119 45
Width: 785
VWidth: 0
Flags: HMW
LayerCount: 2
Fore
SplineSet
699 460 m 1
 877 460 l 1
 543 -26 l 1
 545 200 l 1
 699 460 l 1
411 278 m 1
 479 495 l 1
 592 184 l 1
 543 -26 l 1
 411 278 l 1
479 495 m 1
 471 278 l 1
 233 -26 l 1
 258 184 l 1
 479 495 l 1
69 460 m 1
 249 460 l 1
 311 200 l 1
 233 -26 l 1
 69 460 l 1
EndSplineSet
EndChar

StartChar: v
Encoding: 118 118 46
Width: 553
VWidth: 0
Flags: HMW
LayerCount: 2
Fore
SplineSet
77 460 m 1
 261 460 l 1
 317 226 l 1
 455 460 l 1
 639 460 l 1
 266 -60 l 1
 77 460 l 1
EndSplineSet
EndChar

StartChar: x
Encoding: 120 120 47
Width: 566
VWidth: 0
Flags: HMW
LayerCount: 2
Fore
SplineSet
445 460 m 1
 637 460 l 1
 416 236 l 1
 566 0 l 1
 374 0 l 1
 308 122 l 1
 200 0 l 1
 0 0 l 1
 238 236 l 1
 91 460 l 1
 291 460 l 1
 348 352 l 1
 445 460 l 1
EndSplineSet
EndChar

StartChar: z
Encoding: 122 122 48
Width: 541
VWidth: 0
Flags: HMW
LayerCount: 2
Fore
SplineSet
297 304 m 1
 116 304 l 1
 143 460 l 1
 607 460 l 1
 342 156 l 1
 518 156 l 1
 490 0 l 1
 15 0 l 1
 297 304 l 1
EndSplineSet
EndChar

StartChar: j
Encoding: 106 106 49
Width: 278
VWidth: 0
Flags: HMW
LayerCount: 2
Fore
SplineSet
151 627 m 0
 161 681 210 717 264 717 c 0
 318 717 357 681 347 627 c 0
 337 573 287 537 233 537 c 0
 179 537 141 573 151 627 c 0
-50 -66 m 1
 -39 -82 -26 -91 -8 -91 c 0
 22 -91 44 -72 51 -30 c 2
 137 460 l 1
 302 460 l 1
 208 -76 l 2
 190 -176 117 -244 -7 -244 c 0
 -83 -244 -118 -210 -138 -190 c 1
 -50 -66 l 1
EndSplineSet
EndChar

StartChar: P
Encoding: 80 80 50
Width: 645
VWidth: 0
Flags: HMW
LayerCount: 2
Fore
SplineSet
195 700 m 1
 389 700 l 1
 266 0 l 1
 72 0 l 1
 195 700 l 1
292 542 m 1
 319 700 l 1
 454 700 l 2
 646 700 722 612 696 466 c 0
 670 320 564 231 372 231 c 2
 237 231 l 1
 264 388 l 1
 399 388 l 2
 461 388 500 416 509 466 c 0
 518 516 489 542 427 542 c 2
 292 542 l 1
EndSplineSet
EndChar

StartChar: U
Encoding: 85 85 51
Width: 723
VWidth: 0
Flags: HMW
LayerCount: 2
Fore
SplineSet
189 700 m 1
 385 700 l 1
 305 246 l 2
 294 182 319 139 387 139 c 0
 455 139 494 182 505 246 c 2
 585 700 l 1
 779 700 l 1
 697 230 l 2
 664 42 518 -34 356 -34 c 0
 194 -34 74 42 107 230 c 2
 189 700 l 1
EndSplineSet
EndChar

StartChar: S
Encoding: 83 83 52
Width: 648
VWidth: 0
Flags: HMW
LayerCount: 2
Fore
SplineSet
211 258 m 1
 247 178 287 142 357 142 c 0
 405 142 434 158 441 196 c 0
 450 246 393 259 319 291 c 0
 256 319 140 373 165 515 c 0
 187 637 307 718 461 718 c 0
 623 718 686 634 701 563 c 1
 542 482 l 1
 521 532 488 556 441 556 c 0
 399 556 368 537 363 509 c 0
 356 467 430 448 507 418 c 0
 606 382 668 316 647 198 c 0
 621 48 495 -26 323 -26 c 0
 191 -26 85 48 61 163 c 1
 211 258 l 1
EndSplineSet
EndChar

StartChar: at
Encoding: 64 64 53
Width: 770
VWidth: 0
Flags: HMW
LayerCount: 2
Fore
SplineSet
387 320 m 0
 380 280 390 258 410 258 c 0
 440 258 480 305 490 362 c 0
 498 406 488 425 466 425 c 0
 431 425 397 374 387 320 c 0
251 311 m 0
 276 450 372 530 448 530 c 0
 516 530 554 460 538 372 c 0
 513 233 433 152 355 152 c 0
 273 152 234 212 251 311 c 0
66 320 m 0
 106 548 311 727 543 727 c 0
 755 727 859 558 829 390 c 0
 798 212 682 137 582 137 c 0
 512 137 464 194 486 260 c 1
 479 302 l 1
 540 520 l 1
 670 520 l 1
 609 312 l 2
 607 305 603 293 602 285 c 0
 598 261 602 248 618 248 c 0
 640 248 681 274 701 390 c 0
 723 514 668 618 524 618 c 0
 352 618 225 494 194 320 c 0
 168 174 226 76 391 76 c 0
 461 76 523 90 584 117 c 1
 612 20 l 1
 546 -13 457 -32 359 -32 c 0
 129 -32 31 121 66 320 c 0
EndSplineSet
EndChar

StartChar: period
Encoding: 46 46 54
Width: 329
VWidth: 0
Flags: HMW
LayerCount: 2
Fore
SplineSet
71 76 m 0
 81 132 134 180 196 180 c 0
 258 180 294 132 284 76 c 0
 274 20 221 -27 159 -27 c 0
 97 -27 61 20 71 76 c 0
EndSplineSet
EndChar

StartChar: comma
Encoding: 44 44 55
Width: 328
VWidth: 0
Flags: HMW
LayerCount: 2
Fore
SplineSet
131 110 m 1
 299 77 l 1
 123 -173 l 1
 -2 -149 l 1
 131 110 l 1
EndSplineSet
EndChar

StartChar: colon
Encoding: 58 58 56
Width: 329
VWidth: 0
Flags: HMW
LayerCount: 2
Fore
SplineSet
71 76 m 0
 81 132 134 180 196 180 c 0
 258 180 294 132 284 76 c 0
 274 20 221 -27 159 -27 c 0
 97 -27 61 20 71 76 c 0
137 448 m 0
 147 504 199 552 261 552 c 0
 323 552 360 504 350 448 c 0
 340 392 287 345 225 345 c 0
 163 345 127 392 137 448 c 0
EndSplineSet
EndChar

StartChar: semicolon
Encoding: 59 59 57
Width: 412
VWidth: 0
Flags: HMW
LayerCount: 2
Fore
SplineSet
194 440 m 0
 204 496 257 544 319 544 c 0
 381 544 418 496 408 440 c 0
 398 384 344 336 282 336 c 0
 220 336 184 384 194 440 c 0
159 110 m 1
 328 77 l 1
 152 -173 l 1
 26 -149 l 1
 159 110 l 1
EndSplineSet
EndChar

StartChar: quotedbl
Encoding: 34 34 58
Width: 534
VWidth: 0
Flags: HMW
LayerCount: 2
Fore
SplineSet
221 700 m 1
 401 700 l 1
 234 376 l 1
 122 376 l 1
 221 700 l 1
441 700 m 1
 621 700 l 1
 454 376 l 1
 342 376 l 1
 441 700 l 1
EndSplineSet
EndChar

StartChar: exclam
Encoding: 33 33 59
Width: 356
VWidth: 0
Flags: HMW
LayerCount: 2
Fore
SplineSet
195 700 m 1
 409 700 l 1
 291 240 l 1
 150 240 l 1
 195 700 l 1
84 68 m 0
 94 124 145 164 207 164 c 0
 269 164 306 124 296 68 c 0
 286 12 235 -27 173 -27 c 0
 111 -27 74 12 84 68 c 0
EndSplineSet
EndChar

StartChar: quotesingle
Encoding: 39 39 60
Width: 313
VWidth: 0
Flags: HMW
LayerCount: 2
Fore
SplineSet
221 700 m 1
 401 700 l 1
 234 376 l 1
 122 376 l 1
 221 700 l 1
EndSplineSet
EndChar

StartChar: numbersign
Encoding: 35 35 61
Width: 686
VWidth: 0
Flags: HMW
LayerCount: 2
Fore
SplineSet
146 404 m 1
 171 542 l 1
 747 542 l 1
 722 404 l 1
 563 404 l 0
 531 412 l 0
 323 412 l 0
 291 404 l 0
 146 404 l 1
64 164 m 1
 88 302 l 1
 232 302 l 0
 268 294 l 0
 507 294 l 0
 541 302 l 0
 664 302 l 1
 640 164 l 1
 64 164 l 1
603 700 m 1
 751 700 l 1
 458 0 l 1
 310 0 l 1
 403 223 l 0
 422 251 l 0
 508 454 l 0
 514 490 l 0
 603 700 l 1
351 700 m 1
 500 700 l 1
 412 490 l 0
 388 453 l 0
 305 254 l 0
 302 226 l 0
 207 0 l 1
 58 0 l 1
 351 700 l 1
EndSplineSet
EndChar

StartChar: hyphen
Encoding: 45 45 62
Width: 226
VWidth: 0
Flags: HMW
LayerCount: 2
Fore
SplineSet
34 164 m 1
 60 312 l 1
 277 312 l 1
 251 164 l 1
 34 164 l 1
EndSplineSet
EndChar

StartChar: dollar
Encoding: 36 36 63
Width: 634
VWidth: 0
Flags: HMW
LayerCount: 2
Fore
SplineSet
407 818 m 1
 546 818 l 1
 505 628 l 1
 382 628 l 1
 407 818 l 1
283 66 m 1
 406 66 l 1
 382 -112 l 1
 243 -112 l 1
 283 66 l 1
537 482 m 1
 517 540 481 572 437 572 c 0
 389 572 364 546 359 518 c 0
 349 464 423 451 502 419 c 0
 598 383 662 316 641 198 c 0
 617 62 492 -10 320 -10 c 0
 188 -10 83 73 55 163 c 1
 205 258 l 1
 241 178 281 142 351 142 c 0
 403 142 429 160 436 198 c 0
 444 244 389 260 313 292 c 0
 248 318 136 378 160 516 c 0
 178 620 301 710 455 710 c 0
 609 710 663 640 695 563 c 1
 537 482 l 1
EndSplineSet
EndChar

StartChar: bar
Encoding: 124 124 64
Width: 376
VWidth: 0
Flags: HMW
LayerCount: 2
Fore
SplineSet
238 785 m 1
 414 785 l 1
 238 -215 l 1
 62 -215 l 1
 238 785 l 1
EndSplineSet
EndChar

StartChar: zero
Encoding: 48 48 65
Width: 681
VWidth: 0
Flags: HMW
LayerCount: 2
Fore
SplineSet
288 350 m 0
 266 228 299 151 367 151 c 0
 435 151 495 228 517 350 c 0
 539 472 505 549 437 549 c 0
 369 549 310 472 288 350 c 0
102 350 m 0
 143 584 288 714 466 714 c 0
 652 714 744 584 703 350 c 0
 662 116 524 -14 338 -14 c 0
 160 -14 61 116 102 350 c 0
EndSplineSet
Substitution2: "Tabular Numbers lookup" uniFF10
EndChar

StartChar: one
Encoding: 49 49 66
Width: 527
VWidth: 0
Flags: HMW
LayerCount: 2
Fore
SplineSet
148 478 m 1
 178 644 l 1
 556 714 l 1
 430 0 l 1
 244 0 l 1
 336 520 l 1
 148 478 l 1
EndSplineSet
Substitution2: "Tabular Numbers lookup" uniFF11
EndChar

StartChar: two
Encoding: 50 50 67
Width: 682
VWidth: 0
Flags: HMW
LayerCount: 2
Fore
SplineSet
20 0 m 1
 381 314 l 2
 451 378 495 416 505 472 c 0
 512 512 495 550 437 550 c 0
 379 550 331 502 319 436 c 1
 129 436 l 1
 155 585 278 715 472 715 c 0
 652 715 729 598 709 484 c 0
 696 408 644 348 573 298 c 2
 407 178 l 1
 675 178 l 1
 644 0 l 1
 20 0 l 1
EndSplineSet
Substitution2: "Tabular Numbers lookup" uniFF12
EndChar

StartChar: four
Encoding: 52 52 68
Width: 733
VWidth: 0
Flags: HMW
LayerCount: 2
Fore
SplineSet
33 120 m 1
 216 256 l 1
 527 256 l 0
 550 284 l 0
 737 284 l 1
 708 120 l 1
 33 120 l 1
240 184 m 1
 33 120 l 1
 547 700 l 25
 700 700 l 1
 577 0 l 1
 374 0 l 1
 402 156 l 0
 427 167 l 0
 475 438 l 1
 240 184 l 1
EndSplineSet
Substitution2: "Tabular Numbers lookup" uniFF14
EndChar

StartChar: slash
Encoding: 47 47 69
Width: 636
VWidth: 0
Flags: HMW
LayerCount: 2
Fore
SplineSet
579 700 m 1
 745 700 l 1
 162 -150 l 1
 -11 -150 l 1
 579 700 l 1
EndSplineSet
EndChar

StartChar: backslash
Encoding: 92 92 70
Width: 555
VWidth: 0
Flags: HMW
LayerCount: 2
Fore
SplineSet
138 700 m 1
 304 700 l 1
 540 0 l 1
 374 0 l 1
 138 700 l 1
EndSplineSet
EndChar

StartChar: eight
Encoding: 56 56 71
Width: 651
VWidth: 0
Flags: HMW
LayerCount: 2
Fore
SplineSet
170 531 m 0
 192 655 319 718 453 718 c 0
 587 718 692 655 670 531 c 0
 646 397 501 338 386 338 c 0
 271 338 146 397 170 531 c 0
348 512 m 0
 341 470 364 442 404 442 c 0
 444 442 477 470 484 512 c 0
 491 554 469 582 429 582 c 0
 389 582 355 554 348 512 c 0
85 190 m 0
 112 344 281 398 396 398 c 0
 511 398 662 344 635 190 c 0
 611 56 465 -18 323 -18 c 0
 181 -18 61 56 85 190 c 0
285 220 m 0
 275 166 304 138 350 138 c 0
 396 138 435 166 445 220 c 0
 453 264 425 298 379 298 c 0
 333 298 293 264 285 220 c 0
EndSplineSet
Substitution2: "Tabular Numbers lookup" uniFF18
EndChar

StartChar: nine
Encoding: 57 57 72
Width: 697
VWidth: 0
Flags: HMW
LayerCount: 2
Fore
SplineSet
533 450 m 0
 544 514 507 554 447 554 c 0
 387 554 334 514 323 450 c 0
 312 386 350 344 410 344 c 0
 470 344 522 386 533 450 c 0
365 4 m 1
 118 4 l 1
 389 246 l 1
 437 267 l 1
 389 230 351 227 299 227 c 4
 197 227 101 294 129 450 c 4
 161 630 312 718 476 718 c 0
 640 718 759 630 727 450 c 0
 713 368 660 302 597 240 c 2
 365 4 l 1
EndSplineSet
Substitution2: "Tabular Numbers lookup" uniFF19
EndChar

StartChar: three
Encoding: 51 51 73
Width: 643
VWidth: 0
Flags: HMW
LayerCount: 2
Fore
SplineSet
341 336 m 1
 356 420 l 1
 430 420 488 458 496 504 c 0
 502 538 483 562 435 562 c 0
 387 562 346 530 338 486 c 1
 160 486 l 1
 183 615 302 714 462 714 c 0
 631 714 710 629 690 518 c 0
 667 390 517 336 341 336 c 1
325 -18 m 0
 145 -18 62 105 85 234 c 1
 277 234 l 1
 265 164 308 135 360 135 c 0
 412 135 454 156 464 212 c 0
 473 262 441 300 335 300 c 1
 352 396 l 1
 552 396 678 337 653 194 c 0
 631 71 511 -18 325 -18 c 0
EndSplineSet
Substitution2: "Tabular Numbers lookup" uniFF13
EndChar

StartChar: five
Encoding: 53 53 74
Width: 669
VWidth: 0
Flags: HMW
LayerCount: 2
Fore
SplineSet
669 222 m 0
 639 54 469 -14 334 -14 c 0
 205 -14 120 20 57 60 c 1
 150 226 l 1
 206 182 273 164 317 164 c 0
 397 164 448 186 459 246 c 0
 470 306 407 325 345 325 c 0
 295 325 211 318 134 286 c 1
 289 376 l 1
 353 434 419 449 495 449 c 0
 603 449 695 370 669 222 c 0
410 532 m 5
 341 368 l 1
 134 286 l 1
 307 700 l 1
 735 700 l 1
 706 532 l 1
 410 532 l 5
EndSplineSet
Substitution2: "Tabular Numbers lookup" uniFF15
EndChar

StartChar: six
Encoding: 54 54 75
Width: 697
VWidth: 0
Flags: HMW
LayerCount: 2
Fore
SplineSet
288 250 m 0
 277 186 315 146 375 146 c 0
 435 146 487 186 498 250 c 0
 509 314 472 356 412 356 c 0
 352 356 299 314 288 250 c 0
457 696 m 1
 704 696 l 1
 432 454 l 1
 384 433 l 1
 432 470 470 473 522 473 c 4
 624 473 720 406 692 250 c 0
 660 70 510 -18 346 -18 c 0
 182 -18 62 70 94 250 c 0
 108 332 161 398 224 460 c 2
 457 696 l 1
EndSplineSet
Substitution2: "Tabular Numbers lookup" uniFF16
EndChar

StartChar: seven
Encoding: 55 55 76
Width: 626
VWidth: 0
Flags: HMW
LayerCount: 2
Fore
SplineSet
121 518 m 1
 153 700 l 1
 749 700 l 1
 286 0 l 1
 76 0 l 1
 432 518 l 1
 121 518 l 1
EndSplineSet
Substitution2: "Tabular Numbers lookup" uniFF17
EndChar

StartChar: plus
Encoding: 43 43 77
Width: 692
VWidth: 0
Flags: HMW
LayerCount: 2
Fore
SplineSet
99 190 m 1
 128 356 l 1
 691 356 l 1
 662 190 l 1
 99 190 l 1
353 552 m 1
 533 552 l 1
 435 -6 l 1
 255 -6 l 1
 353 552 l 1
EndSplineSet
EndChar

StartChar: equal
Encoding: 61 61 78
Width: 629
VWidth: 0
Flags: HMW
LayerCount: 2
Fore
SplineSet
65 67 m 1
 91 215 l 1
 614 215 l 1
 588 67 l 1
 65 67 l 1
104 290 m 1
 130 438 l 1
 653 438 l 1
 627 290 l 1
 104 290 l 1
EndSplineSet
EndChar

StartChar: percent
Encoding: 37 37 79
Width: 970
VWidth: 0
Flags: HMW
LayerCount: 2
Fore
SplineSet
111 530 m 0
 130 636 233 722 345 722 c 0
 457 722 528 636 509 530 c 0
 490 424 390 338 278 338 c 0
 166 338 92 424 111 530 c 0
253 530 m 0
 247 498 268 472 301 472 c 0
 334 472 362 498 368 530 c 0
 374 562 355 587 322 587 c 0
 289 587 259 562 253 530 c 0
584 171 m 0
 603 277 705 364 817 364 c 0
 929 364 1001 277 982 171 c 0
 963 65 861 -22 749 -22 c 0
 637 -22 565 65 584 171 c 0
726 171 m 0
 720 139 740 114 773 114 c 0
 806 114 834 139 840 171 c 0
 846 203 826 228 793 228 c 0
 760 228 732 203 726 171 c 0
799 700 m 1
 981 700 l 1
 294 0 l 1
 113 0 l 1
 799 700 l 1
EndSplineSet
EndChar

StartChar: ampersand
Encoding: 38 38 80
Width: 775
VWidth: 0
Flags: HMW
LayerCount: 2
Fore
SplineSet
73 189 m 1
 256 205 l 1
 249 165 273 130 337 130 c 0
 447 130 573 226 671 348 c 1
 768 260 l 1
 664 136 492 -14 288 -14 c 0
 148 -14 50 61 73 189 c 1
224 540 m 1
 239 626 341 720 485 720 c 0
 623 720 681 630 666 546 c 1
 509 528 l 1
 514 554 495 583 459 583 c 0
 416 583 392 554 387 528 c 1
 224 540 l 1
288 368 m 2
 250 426 212 472 224 540 c 1
 387 528 l 1
 380 490 417 458 459 392 c 2
 760 0 l 1
 563 0 l 1
 288 368 l 2
666 546 m 1
 648 446 581 416 449 336 c 0
 371 289 269 281 256 205 c 1
 73 189 l 1
 102 353 300 389 377 421 c 0
 458 455 503 494 509 528 c 1
 666 546 l 1
EndSplineSet
EndChar

StartChar: question
Encoding: 63 63 81
Width: 648
VWidth: 0
Flags: HMW
LayerCount: 2
Fore
SplineSet
212 64 m 0
 220 112 273 156 335 156 c 0
 397 156 432 112 424 64 c 0
 416 16 364 -27 302 -27 c 0
 240 -27 204 16 212 64 c 0
285 390 m 1
 456 390 l 1
 414 210 l 1
 273 210 l 1
 285 390 l 1
510 500 m 0
 519 550 488 578 422 578 c 0
 364 578 294 548 244 490 c 1
 148 588 l 1
 241 674 338 722 457 722 c 0
 591 722 709 644 684 500 c 0
 656 340 463 274 348 274 c 1
 319 390 l 1
 439 390 502 456 510 500 c 0
EndSplineSet
EndChar

StartChar: parenleft
Encoding: 40 40 82
Width: 350
VWidth: 0
Flags: HMW
LayerCount: 2
Fore
SplineSet
323 780 m 1
 479 780 l 1
 383 630 310 460 280 290 c 0
 250 120 262 -50 306 -200 c 1
 150 -200 l 1
 96 -50 83 120 113 290 c 0
 143 460 217 630 323 780 c 1
EndSplineSet
EndChar

StartChar: parenright
Encoding: 41 41 83
Width: 350
VWidth: 0
Flags: HMW
LayerCount: 2
Fore
SplineSet
131 -200 m 1
 -25 -200 l 1
 71 -50 143 120 173 290 c 0
 203 460 192 630 148 780 c 1
 304 780 l 1
 358 630 370 460 340 290 c 0
 310 120 237 -50 131 -200 c 1
EndSplineSet
EndChar

StartChar: asterisk
Encoding: 42 42 84
Width: 592
VWidth: 0
Flags: HMW
LayerCount: 2
Fore
SplineSet
613 605 m 1
 636 454 l 1
 382 412 l 1
 370 492 l 1
 613 605 l 1
559 299 m 1
 413 206 l 1
 338 428 l 1
 413 476 l 1
 559 299 l 1
251 206 m 1
 139 299 l 1
 347 476 l 1
 404 428 l 1
 251 206 l 1
116 454 m 1
 193 605 l 1
 396 492 l 1
 356 412 l 1
 116 454 l 1
339 700 m 1
 499 700 l 1
 418 452 l 1
 334 452 l 1
 339 700 l 1
EndSplineSet
EndChar

StartChar: less
Encoding: 60 60 85
Width: 640
VWidth: 0
Flags: HMW
LayerCount: 2
Fore
SplineSet
354 270 m 1
 604 164 l 1
 574 -5 l 1
 101 206 l 1
 122 324 l 1
 670 536 l 1
 640 368 l 1
 354 270 l 1
EndSplineSet
EndChar

StartChar: greater
Encoding: 62 62 86
Width: 640
VWidth: 0
Flags: HMW
LayerCount: 2
Fore
SplineSet
380 262 m 1
 130 368 l 1
 160 536 l 1
 632 324 l 1
 611 206 l 1
 64 -5 l 1
 94 164 l 1
 380 262 l 1
EndSplineSet
EndChar

StartChar: bracketleft
Encoding: 91 91 87
Width: 381
VWidth: 0
Flags: HMW
LayerCount: 2
Fore
SplineSet
371 632 m 1
 247 -72 l 1
 348 -72 l 1
 322 -220 l 1
 49 -220 l 1
 226 780 l 1
 499 780 l 1
 472 632 l 1
 371 632 l 1
EndSplineSet
EndChar

StartChar: bracketright
Encoding: 93 93 88
Width: 381
Flags: HMW
LayerCount: 2
Fore
SplineSet
108 -72 m 1
 232 632 l 1
 131 632 l 1
 158 780 l 1
 432 780 l 1
 255 -220 l 1
 -19 -220 l 1
 7 -72 l 1
 108 -72 l 1
EndSplineSet
EndChar

StartChar: asciicircum
Encoding: 94 94 89
Width: 510
VWidth: 0
Flags: HMW
LayerCount: 2
Fore
SplineSet
355 568 m 1
 264 444 l 1
 110 444 l 1
 327 710 l 1
 433 710 l 1
 556 444 l 1
 402 444 l 1
 355 568 l 1
EndSplineSet
EndChar

StartChar: underscore
Encoding: 95 95 90
Width: 540
Flags: HMW
LayerCount: 2
Fore
SplineSet
-28 -160 m 1
 -9 -52 l 1
 531 -52 l 1
 512 -160 l 1
 -28 -160 l 1
EndSplineSet
EndChar

StartChar: grave
Encoding: 96 96 91
Width: 375
VWidth: 0
Flags: HMW
LayerCount: 2
Fore
SplineSet
161 652 m 1
 299 708 l 1
 421 548 l 1
 315 502 l 1
 161 652 l 1
EndSplineSet
EndChar

StartChar: braceleft
Encoding: 123 123 92
Width: 424
VWidth: 0
Flags: HMW
LayerCount: 2
Fore
SplineSet
397 595 m 2
 378 490 l 2
 362 401 337 280 187 280 c 1
 191 300 l 1
 341 300 324 179 308 90 c 2
 289 -15 l 2
 284 -41 299 -65 329 -65 c 2
 363 -65 l 1
 339 -200 l 1
 239 -200 l 2
 146 -200 70 -159 87 -60 c 2
 119 118 l 2
 132 194 118 218 74 228 c 1
 96 352 l 1
 144 362 166 386 179 462 c 2
 211 640 l 2
 228 739 319 780 412 780 c 2
 512 780 l 1
 488 645 l 1
 454 645 l 2
 424 645 402 621 397 595 c 2
EndSplineSet
EndChar

StartChar: braceright
Encoding: 125 125 93
Width: 424
VWidth: 0
Flags: HMW
LayerCount: 2
Fore
SplineSet
131 -15 m 2
 150 90 l 2
 166 179 191 300 341 300 c 1
 337 280 l 1
 187 280 204 401 220 490 c 2
 239 595 l 2
 244 621 230 645 200 645 c 2
 166 645 l 1
 190 780 l 1
 290 780 l 2
 383 780 458 739 441 640 c 2
 409 462 l 2
 396 386 410 362 454 352 c 1
 432 228 l 1
 384 218 362 194 349 118 c 2
 317 -60 l 2
 300 -159 210 -200 117 -200 c 2
 17 -200 l 1
 41 -65 l 1
 75 -65 l 2
 105 -65 126 -41 131 -15 c 2
EndSplineSet
EndChar

StartChar: asciitilde
Encoding: 126 126 94
Width: 575
VWidth: 0
Flags: HMW
LayerCount: 2
Fore
SplineSet
188 160 m 1
 57 164 l 1
 56 171 55 179 57 188 c 0
 64 226 77 260 109 292 c 0
 143 326 182 352 256 352 c 0
 304 352 329 334 373 302 c 0
 401 282 419 267 437 267 c 0
 457 267 471 285 474 304 c 0
 476 316 474 330 472 340 c 1
 605 334 l 1
 606 326 606 316 604 306 c 0
 598 270 588 234 556 202 c 0
 524 168 488 148 428 148 c 0
 386 148 356 166 310 198 c 0
 282 218 259 233 234 233 c 0
 203 233 191 208 188 190 c 0
 185 174 186 168 188 160 c 1
EndSplineSet
EndChar

StartChar: exclamdown
Encoding: 161 161 95
Width: 356
VWidth: 0
Flags: HMW
LayerCount: 2
Fore
SplineSet
246 -225 m 1
 32 -225 l 1
 149 235 l 1
 290 235 l 1
 246 -225 l 1
356 406 m 0
 346 350 295 311 233 311 c 0
 171 311 134 350 144 406 c 0
 154 462 205 502 267 502 c 0
 329 502 366 462 356 406 c 0
EndSplineSet
EndChar

StartChar: cent
Encoding: 162 162 96
Width: 580
VWidth: 0
Flags: HMW
LayerCount: 2
Fore
SplineSet
230 38 m 1
 355 38 l 1
 340 -112 l 1
 191 -112 l 1
 230 38 l 1
259 230 m 0
 246 158 295 124 353 124 c 0
 411 124 457 154 493 190 c 1
 463 24 l 1
 427 2 376 -10 313 -10 c 0
 153 -10 55 82 81 230 c 0
 107 378 238 470 398 470 c 0
 461 470 508 456 536 436 c 1
 507 270 l 1
 483 306 448 336 390 336 c 0
 332 336 270 294 259 230 c 0
313 578 m 1
 462 578 l 1
 423 428 l 1
 298 428 l 1
 313 578 l 1
EndSplineSet
EndChar

StartChar: sterling
Encoding: 163 163 97
Width: 620
VWidth: 0
Flags: HMW
LayerCount: 2
Fore
SplineSet
132 370 m 1
 517 370 l 1
 498 262 l 1
 113 262 l 1
 132 370 l 1
511 462 m 1
 515 510 507 561 437 561 c 0
 393 561 351 540 342 488 c 0
 329 412 415 384 395 272 c 0
 376 166 223 70 145 50 c 1
 231 158 l 1
 574 158 l 1
 546 0 l 1
 48 0 l 1
 164 102 215 194 233 298 c 0
 250 392 148 410 168 522 c 0
 189 641 319 710 455 710 c 0
 613 710 689 608 678 520 c 1
 511 462 l 1
EndSplineSet
EndChar

StartChar: currency
Encoding: 164 164 98
Width: 575
VWidth: 0
Flags: HMW
LayerCount: 2
Fore
SplineSet
109 503 m 1
 187 570 l 1
 269 468 l 1
 193 402 l 1
 109 503 l 1
91 30 m 1
 37 97 l 1
 157 198 l 1
 209 132 l 1
 91 30 l 1
527 402 m 1
 473 468 l 1
 593 570 l 1
 645 503 l 1
 527 402 l 1
413 132 m 1
 491 198 l 1
 573 97 l 1
 497 30 l 1
 413 132 l 1
103 300 m 0
 128 439 248 540 383 540 c 0
 518 540 604 439 579 300 c 0
 554 161 434 60 299 60 c 0
 164 60 78 161 103 300 c 0
257 300 m 0
 248 248 276 216 326 216 c 0
 376 216 416 248 425 300 c 0
 434 352 406 384 356 384 c 0
 306 384 266 352 257 300 c 0
EndSplineSet
EndChar

StartChar: yen
Encoding: 165 165 99
Width: 696
VWidth: 0
Flags: HMW
LayerCount: 2
Fore
SplineSet
311 360 m 1
 511 360 l 1
 448 0 l 1
 248 0 l 1
 311 360 l 1
595 700 m 1
 819 700 l 1
 367 111 l 1
 122 700 l 1
 347 700 l 1
 427 456 l 1
 595 700 l 1
64 108 m 1
 83 215 l 1
 686 215 l 1
 667 108 l 1
 64 108 l 1
90 258 m 1
 109 365 l 1
 712 365 l 1
 693 258 l 1
 90 258 l 1
EndSplineSet
EndChar

StartChar: brokenbar
Encoding: 166 166 100
Width: 376
VWidth: 0
Flags: HMW
LayerCount: 2
Fore
SplineSet
223 695 m 1
 399 695 l 1
 350 422 l 1
 174 422 l 1
 223 695 l 1
325 278 m 1
 277 5 l 1
 101 5 l 1
 149 278 l 1
 325 278 l 1
EndSplineSet
EndChar

StartChar: section
Encoding: 167 167 101
Width: 628
VWidth: 0
Flags: HMW
LayerCount: 2
Fore
SplineSet
523 540 m 1
 498 568 452 588 424 588 c 0
 392 588 376 577 374 563 c 0
 370 540 411 537 464 523 c 0
 540 503 591 456 578 380 c 0
 559 275 437 226 326 226 c 1
 333 269 l 1
 368 277 411 298 418 338 c 0
 428 393 355 410 307 430 c 0
 255 452 197 489 212 575 c 0
 230 677 342 728 436 728 c 0
 518 728 594 694 618 656 c 1
 523 540 l 1
169 178 m 1
 222 130 285 114 317 114 c 0
 351 114 366 124 369 140 c 0
 374 166 336 174 282 188 c 0
 205 207 135 249 149 326 c 0
 167 426 297 480 411 480 c 1
 403 438 l 1
 365 426 326 410 319 369 c 0
 309 311 393 303 440 282 c 0
 500 255 555 214 540 130 c 0
 521 22 402 -26 303 -26 c 0
 185 -26 120 12 75 62 c 1
 169 178 l 1
EndSplineSet
EndChar

StartChar: dieresis
Encoding: 168 168 102
Width: 523
VWidth: 0
Flags: HMW
LayerCount: 2
Fore
SplineSet
394 624 m 0
 404 680 456 727 518 727 c 0
 580 727 616 680 606 624 c 0
 596 568 544 520 482 520 c 0
 420 520 384 568 394 624 c 0
138 624 m 0
 148 680 200 727 262 727 c 0
 324 727 360 680 350 624 c 0
 340 568 288 520 226 520 c 0
 164 520 128 568 138 624 c 0
EndSplineSet
EndChar

StartChar: copyright
Encoding: 169 169 103
Width: 800
VWidth: 0
Flags: HMW
LayerCount: 2
Fore
SplineSet
366 350 m 0
 353 278 399 240 463 240 c 0
 522 240 564 265 595 293 c 1
 573 170 l 1
 535 146 496 129 435 129 c 0
 295 129 215 218 238 350 c 0
 261 482 373 571 513 571 c 0
 574 571 606 554 636 530 c 1
 615 407 l 1
 594 435 561 460 502 460 c 0
 438 460 379 422 366 350 c 0
157 350 m 0
 126 172 234 40 407 40 c 0
 580 40 736 172 767 350 c 0
 798 528 689 660 516 660 c 0
 343 660 188 528 157 350 c 0
102 350 m 0
 139 559 321 710 525 710 c 0
 729 710 859 559 822 350 c 0
 785 141 602 -10 398 -10 c 0
 194 -10 65 141 102 350 c 0
EndSplineSet
EndChar

StartChar: registered
Encoding: 174 174 104
Width: 800
VWidth: 0
Flags: HMW
LayerCount: 2
Fore
SplineSet
442 319 m 1
 546 319 l 1
 625 150 l 1
 489 150 l 1
 442 319 l 1
349 570 m 1
 465 570 l 1
 390 150 l 1
 274 150 l 1
 349 570 l 1
405 472 m 1
 423 570 l 1
 513 570 l 2
 629 570 672 512 659 438 c 0
 645 356 580 297 464 297 c 2
 374 297 l 1
 390 386 l 1
 470 386 l 2
 507 386 531 400 536 430 c 0
 541 460 522 472 485 472 c 2
 405 472 l 1
157 350 m 0
 126 172 234 40 407 40 c 0
 580 40 736 172 767 350 c 0
 798 528 689 660 516 660 c 0
 343 660 188 528 157 350 c 0
102 350 m 0
 139 559 321 710 525 710 c 0
 729 710 859 559 822 350 c 0
 785 141 602 -10 398 -10 c 0
 194 -10 65 141 102 350 c 0
EndSplineSet
EndChar

StartChar: ordfeminine
Encoding: 170 170 105
Width: 280
VWidth: 0
Flags: HMW
LayerCount: 2
Fore
SplineSet
197 530 m 0
 195 516 205 508 222 508 c 0
 245 508 270 520 276 554 c 1
 279 525 l 1
 271 481 230 455 182 455 c 0
 132 455 102 481 110 526 c 0
 118 571 164 600 222 600 c 0
 254 600 287 589 296 578 c 1
 289 538 l 1
 275 550 261 556 236 556 c 0
 216 556 200 545 197 530 c 0
174 618 m 1
 157 680 l 1
 188 692 230 705 272 705 c 0
 337 705 380 678 371 629 c 2
 341 460 l 1
 259 460 l 1
 284 603 l 2
 287 622 277 638 252 638 c 0
 219 638 186 624 174 618 c 1
EndSplineSet
EndChar

StartChar: ordmasculine
Encoding: 186 186 106
Width: 278
VWidth: 0
Flags: HMW
LayerCount: 2
Fore
SplineSet
120 580 m 0
 133 653 198 700 276 700 c 0
 354 700 404 653 391 580 c 0
 378 507 312 460 234 460 c 0
 156 460 107 507 120 580 c 0
209 580 m 0
 203 548 221 530 246 530 c 0
 271 530 296 548 302 580 c 0
 308 612 289 630 264 630 c 0
 239 630 215 612 209 580 c 0
EndSplineSet
EndChar

StartChar: guillemotleft
Encoding: 171 171 107
Width: 550
VWidth: 0
Flags: HMW
LayerCount: 2
Fore
SplineSet
175 235 m 1
 69 255 l 1
 289 514 l 1
 382 445 l 1
 175 235 l 1
69 255 m 1
 184 285 l 1
 315 65 l 1
 197 -4 l 1
 69 255 l 1
392 235 m 1
 285 255 l 1
 505 514 l 1
 599 445 l 1
 392 235 l 1
285 255 m 1
 401 285 l 1
 532 65 l 1
 413 -4 l 1
 285 255 l 1
EndSplineSet
EndChar

StartChar: guillemotright
Encoding: 187 187 108
Width: 550
VWidth: 0
Flags: HMW
LayerCount: 2
Fore
SplineSet
464 275 m 1
 572 255 l 1
 352 -4 l 1
 257 65 l 1
 464 275 l 1
572 255 m 1
 456 225 l 1
 324 445 l 1
 444 514 l 1
 572 255 l 1
248 275 m 1
 355 255 l 1
 135 -4 l 1
 41 65 l 1
 248 275 l 1
355 255 m 1
 240 225 l 1
 108 445 l 1
 227 514 l 1
 355 255 l 1
EndSplineSet
EndChar

StartChar: uni00AD
Encoding: 173 173 109
Width: 210
VWidth: 0
Flags: HMW
LayerCount: 2
Fore
SplineSet
40 200 m 1
 53 275 l 1
 253 275 l 1
 240 200 l 1
 40 200 l 1
EndSplineSet
EndChar

StartChar: logicalnot
Encoding: 172 172 110
Width: 659
VWidth: 0
Flags: HMW
LayerCount: 2
Fore
SplineSet
112 264 m 1
 138 412 l 1
 668 412 l 1
 642 264 l 1
 112 264 l 1
546 375 m 1
 661 375 l 1
 626 175 l 1
 511 175 l 1
 546 375 l 1
EndSplineSet
EndChar

StartChar: macron
Encoding: 175 175 111
Width: 538
VWidth: 0
Flags: HMW
LayerCount: 2
Fore
SplineSet
179 564 m 1
 206 712 l 1
 584 712 l 1
 557 564 l 1
 179 564 l 1
EndSplineSet
EndChar

StartChar: degree
Encoding: 176 176 112
Width: 302
VWidth: 0
Flags: HMW
LayerCount: 2
Fore
SplineSet
121 596 m 0
 134 669 199 720 277 720 c 0
 355 720 404 669 391 596 c 0
 378 523 311 472 233 472 c 0
 155 472 108 523 121 596 c 0
205 596 m 0
 199 564 218 544 246 544 c 0
 274 544 300 564 306 596 c 0
 312 628 292 648 264 648 c 0
 236 648 211 628 205 596 c 0
EndSplineSet
EndChar

StartChar: plusminus
Encoding: 177 177 113
Width: 639
VWidth: 0
Flags: HMW
LayerCount: 2
Fore
SplineSet
66 8 m 1
 92 153 l 1
 601 153 l 1
 575 8 l 1
 66 8 l 1
123 328 m 1
 150 482 l 1
 659 482 l 1
 632 328 l 1
 123 328 l 1
341 620 m 1
 516 620 l 1
 441 190 l 1
 266 190 l 1
 341 620 l 1
EndSplineSet
EndChar

StartChar: uni00B2
Encoding: 178 178 114
Width: 427
VWidth: 0
Flags: HMW
LayerCount: 2
Fore
SplineSet
75 282 m 1
 292 470 l 2
 335 508 360 532 366 566 c 0
 370 590 358 612 324 612 c 0
 290 612 261 584 254 544 c 1
 140 544 l 1
 156 633 230 712 346 712 c 0
 454 712 499 641 487 573 c 0
 479 527 447 491 405 461 c 2
 306 388 l 1
 467 388 l 1
 449 282 l 1
 75 282 l 1
EndSplineSet
EndChar

StartChar: uni00B3
Encoding: 179 179 115
Width: 381
VWidth: 0
Flags: HMW
LayerCount: 2
Fore
SplineSet
243 482 m 1
 252 532 l 1
 296 532 332 556 337 584 c 0
 341 604 328 617 299 617 c 0
 269 617 247 600 242 572 c 1
 135 572 l 1
 149 649 220 708 316 708 c 0
 417 708 464 657 452 591 c 0
 439 515 349 482 243 482 c 1
233 269 m 0
 125 269 76 343 90 420 c 1
 204 420 l 1
 197 378 224 361 255 361 c 0
 286 361 312 372 318 406 c 0
 323 436 303 460 239 460 c 1
 249 517 l 1
 369 517 445 482 430 396 c 0
 417 322 345 269 233 269 c 0
EndSplineSet
EndChar

StartChar: acute
Encoding: 180 180 116
Width: 375
VWidth: 0
Flags: HMW
LayerCount: 2
Fore
SplineSet
439 652 m 1
 233 502 l 1
 143 548 l 1
 321 708 l 1
 439 652 l 1
EndSplineSet
EndChar

StartChar: mu
Encoding: 181 181 117
Width: 590
VWidth: 0
Flags: HMW
LayerCount: 2
Fore
SplineSet
362 0 m 1
 443 460 l 1
 617 460 l 1
 536 0 l 1
 362 0 l 1
268 180 m 2
 260 132 268 105 313 105 c 0
 355 105 385 130 394 180 c 1
 423 188 l 1
 404 79 339 -10 219 -10 c 0
 99 -10 65 52 84 162 c 2
 136 460 l 1
 317 460 l 1
 268 180 l 2
136 460 m 1
 301 460 l 1
 164 -320 l 1
 -1 -320 l 1
 136 460 l 1
EndSplineSet
EndChar

StartChar: paragraph
Encoding: 182 182 118
Width: 699
VWidth: 0
Flags: HMW
LayerCount: 2
Fore
SplineSet
393 598 m 1
 411 700 l 1
 651 700 l 1
 633 598 l 1
 393 598 l 1
611 700 m 1
 763 700 l 1
 601 -220 l 1
 449 -220 l 1
 611 700 l 1
411 700 m 1
 562 700 l 1
 400 -220 l 1
 249 -220 l 1
 411 700 l 1
336 270 m 1
 211 270 121 346 146 485 c 0
 171 624 286 700 411 700 c 1
 336 270 l 1
EndSplineSet
EndChar

StartChar: periodcentered
Encoding: 183 183 119
Width: 329
VWidth: 0
Flags: HMW
LayerCount: 2
Fore
SplineSet
107 276 m 0
 117 332 169 380 231 380 c 0
 293 380 330 332 320 276 c 0
 310 220 257 173 195 173 c 0
 133 173 97 220 107 276 c 0
EndSplineSet
EndChar

StartChar: uni00B9
Encoding: 185 185 120
Width: 486
VWidth: 0
Flags: HMW
LayerCount: 2
Fore
SplineSet
227 560 m 1
 244 660 l 1
 472 702 l 1
 396 274 l 1
 284 274 l 1
 339 586 l 1
 227 560 l 1
EndSplineSet
EndChar

StartChar: cedilla
Encoding: 184 184 121
Width: 406
Flags: HMW
LayerCount: 2
Fore
SplineSet
193 74 m 1
 317 70 l 1
 172 -86 l 1
 69 -128 l 1
 193 74 l 1
327 -155 m 1
 219 -144 l 1
 224 -117 191 -113 161 -113 c 0
 151 -113 111 -114 69 -128 c 1
 149 -82 l 1
 182 -54 209 -50 247 -50 c 0
 289 -50 340 -84 327 -155 c 1
327 -155 m 1
 314 -231 234 -269 168 -269 c 0
 106 -269 61 -259 14 -229 c 1
 77 -152 l 1
 102 -171 140 -178 158 -178 c 0
 192 -178 215 -168 219 -144 c 1
 327 -155 l 1
EndSplineSet
EndChar

StartChar: questiondown
Encoding: 191 191 122
Width: 648
VWidth: 0
Flags: HMW
LayerCount: 2
Fore
SplineSet
560 636 m 0
 552 588 500 544 438 544 c 0
 376 544 339 588 347 636 c 0
 355 684 408 727 470 727 c 0
 532 727 568 684 560 636 c 0
487 310 m 1
 315 310 l 1
 356 490 l 1
 498 490 l 1
 487 310 l 1
261 200 m 0
 252 150 284 122 350 122 c 0
 408 122 477 152 527 210 c 1
 624 112 l 1
 531 26 433 -22 314 -22 c 0
 180 -22 62 56 87 200 c 0
 115 360 308 426 423 426 c 1
 453 310 l 1
 333 310 269 244 261 200 c 0
EndSplineSet
EndChar

StartChar: multiply
Encoding: 215 215 123
Width: 596
VWidth: 0
Flags: HMW
LayerCount: 2
Fore
SplineSet
145 -2 m 1
 59 102 l 1
 242 255 l 1
 112 408 l 1
 236 512 l 1
 361 356 l 1
 541 512 l 1
 627 408 l 1
 443 255 l 1
 574 102 l 1
 450 -2 l 1
 325 154 l 1
 145 -2 l 1
EndSplineSet
EndChar

StartChar: Oslash
Encoding: 216 216 124
Width: 790
VWidth: 0
Flags: HMW
LayerCount: 2
Fore
SplineSet
300 350 m 0
 279 232 335 159 443 159 c 0
 551 159 633 232 654 350 c 0
 675 468 618 541 510 541 c 0
 402 541 321 468 300 350 c 0
94 350 m 0
 133 570 322 718 542 718 c 0
 762 718 900 570 861 350 c 0
 822 130 630 -26 410 -26 c 0
 190 -26 55 130 94 350 c 0
834 758 m 1
 899 702 l 1
 116 -58 l 1
 52 -2 l 1
 834 758 l 1
EndSplineSet
EndChar

StartChar: Thorn
Encoding: 222 222 125
Width: 631
VWidth: 0
Flags: HMW
LayerCount: 2
Fore
SplineSet
344 124 m 1
 371 272 l 1
 444 272 486 292 497 354 c 0
 508 416 472 436 399 436 c 1
 426 584 l 1
 618 584 694 500 668 354 c 0
 642 208 536 124 344 124 c 1
210 124 m 1
 236 272 l 1
 371 272 l 1
 344 124 l 1
 210 124 l 1
265 436 m 1
 291 584 l 1
 426 584 l 1
 399 436 l 1
 265 436 l 1
203 700 m 1
 370 700 l 1
 246 0 l 1
 80 0 l 1
 203 700 l 1
EndSplineSet
EndChar

StartChar: divide
Encoding: 247 247 126
Width: 644
Flags: HMW
LayerCount: 2
Fore
SplineSet
319 584 m 0
 329 640 382 688 444 688 c 0
 506 688 541 640 531 584 c 0
 521 528 469 480 407 480 c 0
 345 480 309 528 319 584 c 0
235 106 m 0
 245 162 298 210 360 210 c 0
 422 210 457 162 447 106 c 0
 437 50 385 3 323 3 c 0
 261 3 225 50 235 106 c 0
63 270 m 1
 90 423 l 1
 704 423 l 1
 677 270 l 1
 63 270 l 1
EndSplineSet
EndChar

StartChar: oslash
Encoding: 248 248 127
Width: 546
VWidth: 0
Flags: HMW
LayerCount: 2
Fore
SplineSet
72 230 m 0
 99 386 232 470 384 470 c 0
 536 470 640 386 613 230 c 0
 586 74 452 -10 300 -10 c 0
 148 -10 45 74 72 230 c 0
234 230 m 0
 221 158 265 122 323 122 c 0
 381 122 437 158 450 230 c 0
 461 294 419 338 361 338 c 0
 303 338 245 294 234 230 c 0
550 508 m 1
 605 472 l 1
 122 -52 l 1
 68 -16 l 1
 550 508 l 1
EndSplineSet
EndChar

StartChar: circumflex
Encoding: 710 710 128
Width: 480
VWidth: 0
Flags: HMW
LayerCount: 2
Fore
SplineSet
350 625 m 1
 250 542 l 1
 141 622 l 1
 374 762 l 1
 559 622 l 1
 422 542 l 1
 350 625 l 1
EndSplineSet
EndChar

StartChar: ogonek
Encoding: 731 731 129
Width: 260
VWidth: 0
Flags: HMW
LayerCount: 2
Fore
SplineSet
175 -106 m 1
 195 -180 l 1
 176 -200 143 -220 83 -220 c 0
 23 -220 -25 -188 -13 -120 c 1
 96 -92 l 1
 92 -114 100 -126 122 -126 c 0
 140 -126 159 -119 175 -106 c 1
96 -92 m 1
 -13 -120 l 1
 -1 -52 76 -11 152 25 c 1
 189 0 l 1
 132 -30 101 -64 96 -92 c 1
EndSplineSet
EndChar

StartChar: tilde
Encoding: 732 732 130
Width: 530
VWidth: 0
Flags: HMW
LayerCount: 2
Fore
SplineSet
181 642 m 1
 200 691 252 740 322 740 c 0
 388 740 396 686 453 686 c 0
 481 686 504 708 530 740 c 1
 595 656 l 1
 572 619 502 568 436 568 c 0
 381 568 352 622 301 622 c 0
 264 622 248 587 245 572 c 1
 181 642 l 1
EndSplineSet
EndChar

StartChar: ring
Encoding: 730 730 131
Width: 343
VWidth: 0
Flags: HMW
LayerCount: 2
Fore
SplineSet
175 765 m 0
 188 837 252 885 327 885 c 0
 402 885 452 837 439 765 c 0
 426 693 360 644 285 644 c 0
 210 644 162 693 175 765 c 0
261 765 m 0
 256 736 273 719 298 719 c 0
 323 719 346 736 351 765 c 0
 356 794 339 812 314 812 c 0
 289 812 266 794 261 765 c 0
EndSplineSet
EndChar

StartChar: dotaccent
Encoding: 729 729 132
Width: 300
VWidth: 0
Flags: HMW
LayerCount: 2
Fore
SplineSet
197 821 m 0
 206 875 257 911 311 911 c 0
 365 911 402 875 393 821 c 0
 384 767 333 731 279 731 c 0
 225 731 188 767 197 821 c 0
EndSplineSet
EndChar

StartChar: uni2010
Encoding: 8208 8208 133
Width: 226
VWidth: 0
Flags: HMW
LayerCount: 2
Fore
SplineSet
34 164 m 1
 60 312 l 1
 277 312 l 1
 251 164 l 1
 34 164 l 1
EndSplineSet
EndChar

StartChar: endash
Encoding: 8211 8211 134
Width: 796
VWidth: 0
Flags: HMW
LayerCount: 2
Fore
SplineSet
99 164 m 1
 125 312 l 1
 774 312 l 1
 748 164 l 1
 99 164 l 1
EndSplineSet
EndChar

StartChar: figuredash
Encoding: 8210 8210 135
Width: 638
VWidth: 0
Flags: HMW
LayerCount: 2
Fore
SplineSet
99 164 m 1
 125 312 l 1
 611 312 l 1
 585 164 l 1
 99 164 l 1
EndSplineSet
EndChar

StartChar: emdash
Encoding: 8212 8212 136
Width: 955
VWidth: 0
Flags: HMW
LayerCount: 2
Fore
SplineSet
99 164 m 1
 125 312 l 1
 936 312 l 1
 910 164 l 1
 99 164 l 1
EndSplineSet
EndChar

StartChar: minus
Encoding: 8722 8722 137
Width: 594
VWidth: 0
Flags: HMW
LayerCount: 2
Fore
SplineSet
83 164 m 1
 109 312 l 1
 595 312 l 1
 569 164 l 1
 83 164 l 1
EndSplineSet
EndChar

StartChar: quoteright
Encoding: 8217 8217 138
Width: 348
VWidth: 0
Flags: HMW
LayerCount: 2
Fore
SplineSet
225 700 m 1
 401 700 l 1
 251 438 l 1
 127 438 l 1
 225 700 l 1
EndSplineSet
EndChar

StartChar: quoteleft
Encoding: 8216 8216 139
Width: 348
VWidth: 0
Flags: HMW
LayerCount: 2
Fore
SplineSet
323 438 m 1
 147 438 l 1
 297 700 l 1
 421 700 l 1
 323 438 l 1
EndSplineSet
EndChar

StartChar: quotesinglbase
Encoding: 8218 8218 140
Width: 348
VWidth: 0
Flags: HMW
LayerCount: 2
Fore
SplineSet
126 80 m 1
 302 80 l 1
 152 -182 l 1
 28 -182 l 1
 126 80 l 1
EndSplineSet
EndChar

StartChar: quotedblleft
Encoding: 8220 8220 141
Width: 588
VWidth: 0
Flags: HMW
LayerCount: 2
Fore
SplineSet
323 438 m 1
 147 438 l 1
 297 700 l 1
 421 700 l 1
 323 438 l 1
563 438 m 1
 387 438 l 1
 537 700 l 1
 661 700 l 1
 563 438 l 1
EndSplineSet
EndChar

StartChar: quotedblright
Encoding: 8221 8221 142
Width: 588
VWidth: 0
Flags: HMW
LayerCount: 2
Fore
SplineSet
225 700 m 1
 401 700 l 1
 251 438 l 1
 127 438 l 1
 225 700 l 1
465 700 m 1
 641 700 l 1
 492 438 l 1
 367 438 l 1
 465 700 l 1
EndSplineSet
EndChar

StartChar: perthousand
Encoding: 8240 8240 143
Width: 1447
VWidth: 0
Flags: HMW
LayerCount: 2
Fore
SplineSet
1062 171 m 0
 1081 277 1182 364 1294 364 c 0
 1406 364 1478 277 1459 171 c 0
 1440 65 1338 -22 1226 -22 c 0
 1114 -22 1043 65 1062 171 c 0
1202 171 m 0
 1196 139 1217 114 1250 114 c 0
 1283 114 1312 139 1318 171 c 0
 1324 203 1303 228 1270 228 c 0
 1237 228 1208 203 1202 171 c 0
111 530 m 0
 130 636 233 722 345 722 c 0
 457 722 528 636 509 530 c 0
 490 424 390 338 278 338 c 0
 166 338 92 424 111 530 c 0
253 530 m 0
 247 498 268 472 301 472 c 0
 334 472 362 498 368 530 c 0
 374 562 355 587 322 587 c 0
 289 587 259 562 253 530 c 0
584 171 m 0
 603 277 705 364 817 364 c 0
 929 364 1001 277 982 171 c 0
 963 65 861 -22 749 -22 c 0
 637 -22 565 65 584 171 c 0
726 171 m 0
 720 139 740 114 773 114 c 0
 806 114 834 139 840 171 c 0
 846 203 826 228 793 228 c 0
 760 228 732 203 726 171 c 0
799 700 m 1
 981 700 l 1
 294 0 l 1
 113 0 l 1
 799 700 l 1
EndSplineSet
EndChar

StartChar: guilsinglleft
Encoding: 8249 8249 144
Width: 350
VWidth: 0
Flags: HMW
LayerCount: 2
Fore
SplineSet
175 235 m 1
 69 255 l 1
 289 514 l 1
 382 445 l 1
 175 235 l 1
69 255 m 1
 184 285 l 1
 315 65 l 1
 197 -4 l 1
 69 255 l 1
EndSplineSet
EndChar

StartChar: guilsinglright
Encoding: 8250 8250 145
Width: 350
VWidth: 0
Flags: HMW
LayerCount: 2
Fore
SplineSet
264 275 m 1
 371 255 l 1
 151 -4 l 1
 57 65 l 1
 264 275 l 1
371 255 m 1
 256 225 l 1
 124 445 l 1
 243 514 l 1
 371 255 l 1
EndSplineSet
EndChar

StartChar: uni2031
Encoding: 8241 8241 146
Width: 1925
VWidth: 0
Flags: HMW
LayerCount: 2
Fore
SplineSet
1540 171 m 0
 1559 277 1660 364 1772 364 c 0
 1884 364 1955 277 1936 171 c 0
 1917 65 1816 -22 1704 -22 c 0
 1592 -22 1521 65 1540 171 c 0
1680 171 m 0
 1674 139 1695 114 1728 114 c 0
 1761 114 1790 139 1796 171 c 0
 1802 203 1781 228 1748 228 c 0
 1715 228 1686 203 1680 171 c 0
1062 171 m 0
 1081 277 1182 364 1294 364 c 0
 1406 364 1478 277 1459 171 c 0
 1440 65 1338 -22 1226 -22 c 0
 1114 -22 1043 65 1062 171 c 0
1202 171 m 0
 1196 139 1217 114 1250 114 c 0
 1283 114 1312 139 1318 171 c 0
 1324 203 1303 228 1270 228 c 0
 1237 228 1208 203 1202 171 c 0
111 530 m 0
 130 636 233 722 345 722 c 0
 457 722 528 636 509 530 c 0
 490 424 390 338 278 338 c 0
 166 338 92 424 111 530 c 0
253 530 m 0
 247 498 268 472 301 472 c 0
 334 472 362 498 368 530 c 0
 374 562 355 587 322 587 c 0
 289 587 259 562 253 530 c 0
584 171 m 0
 603 277 705 364 817 364 c 0
 929 364 1001 277 982 171 c 0
 963 65 861 -22 749 -22 c 0
 637 -22 565 65 584 171 c 0
726 171 m 0
 720 139 740 114 773 114 c 0
 806 114 834 139 840 171 c 0
 846 203 826 228 793 228 c 0
 760 228 732 203 726 171 c 0
799 700 m 1
 981 700 l 1
 294 0 l 1
 113 0 l 1
 799 700 l 1
EndSplineSet
EndChar

StartChar: uni203D
Encoding: 8253 8253 147
Width: 648
VWidth: 0
Flags: HMW
LayerCount: 2
Fore
SplineSet
524 476 m 0
 536 546 490 578 412 578 c 0
 354 578 287 556 244 490 c 1
 148 588 l 1
 206 658 327 720 455 720 c 0
 589 720 709 644 684 500 c 0
 656 340 463 274 348 274 c 1
 352 349 l 1
 423 349 511 400 524 476 c 0
309 502 m 1
 467 502 l 1
 386 210 l 1
 287 210 l 1
 309 502 l 1
211 68 m 0
 221 122 274 164 336 164 c 0
 398 164 437 122 427 68 c 0
 417 14 364 -27 302 -27 c 0
 240 -27 201 14 211 68 c 0
EndSplineSet
EndChar

StartChar: Euro
Encoding: 8364 8364 148
Width: 677
VWidth: 0
Flags: HMW
LayerCount: 2
Fore
SplineSet
132 374 m 1
 149 468 l 1
 638 468 l 1
 621 374 l 1
 132 374 l 1
90 239 m 1
 107 334 l 1
 596 334 l 1
 579 239 l 1
 90 239 l 1
338 350 m 0
 312 204 363 135 451 135 c 0
 508 135 564 157 612 197 c 1
 580 19 l 1
 530 -7 477 -22 423 -22 c 0
 225 -22 135 141 172 350 c 0
 209 559 356 723 554 723 c 0
 608 723 657 708 697 682 c 1
 666 503 l 1
 632 543 584 565 527 565 c 0
 439 565 364 496 338 350 c 0
EndSplineSet
EndChar

StartChar: fraction
Encoding: 8260 8260 149
Width: 737
VWidth: 0
Flags: HMW
LayerCount: 2
Fore
SplineSet
703 700 m 1
 841 700 l 1
 198 0 l 1
 60 0 l 1
 703 700 l 1
EndSplineSet
EndChar

StartChar: onequarter
Encoding: 188 188 150
Width: 843
VWidth: 0
Flags: HMW
LayerCount: 2
Fore
SplineSet
757 700 m 1
 863 700 l 1
 220 0 l 1
 114 0 l 1
 757 700 l 1
121 560 m 1
 138 660 l 1
 366 702 l 1
 290 274 l 1
 178 274 l 1
 233 586 l 1
 121 560 l 1
423 72 m 1
 532 154 l 1
 719 154 l 0
 732 170 l 0
 844 170 l 1
 827 72 l 1
 423 72 l 1
546 110 m 1
 423 72 l 1
 731 420 l 25
 822 420 l 1
 748 0 l 1
 627 0 l 1
 644 94 l 0
 660 100 l 0
 689 264 l 1
 546 110 l 1
EndSplineSet
EndChar

StartChar: onehalf
Encoding: 189 189 151
Width: 916
VWidth: 0
Flags: HMW
LayerCount: 2
Fore
SplineSet
757 700 m 1
 863 700 l 1
 220 0 l 1
 114 0 l 1
 757 700 l 1
121 560 m 1
 138 660 l 1
 366 702 l 1
 290 274 l 1
 178 274 l 1
 233 586 l 1
 121 560 l 1
510 2 m 1
 728 190 l 2
 771 228 794 252 800 286 c 0
 804 310 793 332 759 332 c 0
 725 332 697 304 690 264 c 1
 575 264 l 1
 591 353 664 432 780 432 c 0
 888 432 935 361 923 293 c 0
 915 247 883 211 841 181 c 2
 741 108 l 1
 903 108 l 1
 884 2 l 1
 510 2 l 1
EndSplineSet
EndChar

StartChar: threequarters
Encoding: 190 190 152
Width: 897
VWidth: 0
Flags: HMW
LayerCount: 2
Fore
SplineSet
820 700 m 1
 925 700 l 1
 282 0 l 1
 177 0 l 1
 820 700 l 1
252 482 m 1
 261 532 l 1
 305 532 340 556 345 584 c 0
 349 604 338 617 309 617 c 0
 279 617 256 600 251 572 c 1
 143 572 l 1
 157 649 229 708 325 708 c 0
 426 708 474 657 462 591 c 0
 449 515 358 482 252 482 c 1
242 269 m 0
 134 269 84 343 98 420 c 1
 214 420 l 1
 207 378 233 361 264 361 c 0
 295 361 320 372 326 406 c 0
 331 436 312 460 248 460 c 1
 258 517 l 1
 378 517 455 482 440 396 c 0
 427 322 354 269 242 269 c 0
477 72 m 1
 587 154 l 1
 774 154 l 0
 787 170 l 0
 900 170 l 1
 883 72 l 1
 477 72 l 1
601 110 m 1
 477 72 l 1
 786 420 l 25
 878 420 l 1
 804 0 l 1
 682 0 l 1
 699 94 l 0
 714 100 l 0
 743 264 l 1
 601 110 l 1
EndSplineSet
EndChar

StartChar: uni2150
Encoding: 8528 8528 153
Width: 972
VWidth: 0
Flags: HMW
LayerCount: 2
Fore
SplineSet
740 700 m 1
 877 700 l 1
 234 0 l 1
 97 0 l 1
 740 700 l 1
121 560 m 1
 138 660 l 1
 366 702 l 1
 290 274 l 1
 178 274 l 1
 233 586 l 1
 121 560 l 1
651 311 m 1
 670 420 l 1
 1026 420 l 1
 750 0 l 1
 623 0 l 1
 837 311 l 1
 651 311 l 1
EndSplineSet
EndChar

StartChar: uni2151
Encoding: 8529 8529 154
Width: 914
VWidth: 0
Flags: HMW
LayerCount: 2
Fore
SplineSet
731 700 m 1
 869 700 l 1
 226 0 l 1
 88 0 l 1
 731 700 l 1
121 560 m 1
 138 660 l 1
 366 702 l 1
 290 274 l 1
 178 274 l 1
 233 586 l 1
 121 560 l 1
822 272 m 0
 829 310 805 334 769 334 c 0
 733 334 702 310 695 272 c 0
 688 234 711 208 747 208 c 0
 783 208 815 234 822 272 c 0
721 4 m 1
 572 4 l 1
 734 150 l 1
 763 162 l 1
 735 140 717 135 686 135 c 0
 626 135 565 186 580 272 c 0
 599 380 688 433 786 433 c 0
 884 433 957 380 938 272 c 0
 930 224 897 184 860 146 c 2
 721 4 l 1
EndSplineSet
EndChar

StartChar: uni2152
Encoding: 8530 8530 155
Width: 1250
VWidth: 0
Flags: HMW
LayerCount: 2
Fore
SplineSet
731 700 m 1
 869 700 l 1
 226 0 l 1
 88 0 l 1
 731 700 l 1
121 560 m 1
 138 660 l 1
 366 702 l 1
 290 274 l 1
 178 274 l 1
 233 586 l 1
 121 560 l 1
620 288 m 1
 637 387 l 1
 864 430 l 1
 788 1 l 1
 676 1 l 1
 731 314 l 1
 620 288 l 1
1005 210 m 0
 992 136 1012 91 1052 91 c 0
 1092 91 1128 136 1141 210 c 0
 1154 284 1134 329 1094 329 c 0
 1054 329 1018 284 1005 210 c 0
893 210 m 0
 918 350 1005 428 1111 428 c 0
 1223 428 1278 350 1253 210 c 0
 1228 70 1147 -8 1035 -8 c 0
 929 -8 868 70 893 210 c 0
EndSplineSet
EndChar

StartChar: onethird
Encoding: 8531 8531 156
Width: 909
VWidth: 0
Flags: HMW
LayerCount: 2
Fore
SplineSet
731 700 m 1
 869 700 l 1
 226 0 l 1
 88 0 l 1
 731 700 l 1
121 560 m 1
 138 660 l 1
 366 702 l 1
 290 274 l 1
 178 274 l 1
 233 586 l 1
 121 560 l 1
719 202 m 1
 727 252 l 1
 771 252 807 276 812 304 c 0
 816 324 804 337 775 337 c 0
 745 337 722 320 717 292 c 1
 609 292 l 1
 623 369 695 428 791 428 c 0
 892 428 941 377 929 311 c 0
 916 235 825 202 719 202 c 1
708 -11 m 0
 600 -11 551 63 565 140 c 1
 681 140 l 1
 674 98 699 81 730 81 c 0
 761 81 786 92 792 126 c 0
 797 156 779 180 715 180 c 1
 725 237 l 1
 845 237 921 202 906 116 c 0
 893 42 820 -11 708 -11 c 0
EndSplineSet
EndChar

StartChar: twothirds
Encoding: 8532 8532 157
Width: 1044
VWidth: 0
Flags: HMW
LayerCount: 2
Fore
SplineSet
883 700 m 1
 1021 700 l 1
 378 0 l 1
 240 0 l 1
 883 700 l 1
80 282 m 1
 297 470 l 2
 340 508 366 532 372 566 c 0
 376 590 364 612 330 612 c 0
 296 612 267 584 260 544 c 1
 145 544 l 1
 161 633 235 712 351 712 c 0
 459 712 505 641 493 573 c 0
 485 527 453 491 411 461 c 2
 311 388 l 1
 472 388 l 1
 454 282 l 1
 80 282 l 1
854 202 m 1
 862 252 l 1
 906 252 943 276 948 304 c 0
 952 324 938 337 909 337 c 0
 879 337 857 320 852 292 c 1
 745 292 l 1
 759 369 830 428 926 428 c 0
 1027 428 1075 377 1063 311 c 0
 1050 235 960 202 854 202 c 1
844 -11 m 0
 736 -11 687 63 701 140 c 1
 815 140 l 1
 808 98 834 81 865 81 c 0
 896 81 922 92 928 126 c 0
 933 156 914 180 850 180 c 1
 860 237 l 1
 980 237 1055 202 1040 116 c 0
 1027 42 956 -11 844 -11 c 0
EndSplineSet
EndChar

StartChar: uni2155
Encoding: 8533 8533 158
Width: 898
VWidth: 0
Flags: HMW
LayerCount: 2
Fore
SplineSet
731 700 m 1
 869 700 l 1
 226 0 l 1
 88 0 l 1
 731 700 l 1
121 560 m 1
 138 660 l 1
 366 702 l 1
 290 274 l 1
 178 274 l 1
 233 586 l 1
 121 560 l 1
901 131 m 0
 883 31 780 -10 699 -10 c 0
 622 -10 572 10 534 34 c 1
 590 134 l 1
 623 108 663 96 689 96 c 0
 737 96 770 110 776 146 c 0
 782 182 743 193 706 193 c 0
 676 193 627 188 581 170 c 1
 673 224 l 1
 712 259 752 268 796 268 c 0
 860 268 917 219 901 131 c 0
752 317 m 1
 699 219 l 1
 581 170 l 1
 684 418 l 1
 940 418 l 1
 922 317 l 1
 752 317 l 1
EndSplineSet
EndChar

StartChar: uni2156
Encoding: 8534 8534 159
Width: 1045
VWidth: 0
Flags: HMW
LayerCount: 2
Fore
SplineSet
883 700 m 1
 1021 700 l 1
 378 0 l 1
 240 0 l 1
 883 700 l 1
80 282 m 1
 297 470 l 2
 340 508 366 532 372 566 c 0
 376 590 364 612 330 612 c 0
 296 612 267 584 260 544 c 1
 145 544 l 1
 161 633 235 712 351 712 c 0
 459 712 505 641 493 573 c 0
 485 527 453 491 411 461 c 2
 311 388 l 1
 472 388 l 1
 454 282 l 1
 80 282 l 1
1035 131 m 0
 1017 31 915 -10 834 -10 c 0
 757 -10 707 10 669 34 c 1
 725 134 l 1
 758 108 798 96 824 96 c 0
 872 96 904 110 910 146 c 0
 916 182 878 193 841 193 c 0
 811 193 762 188 716 170 c 1
 808 224 l 1
 847 259 887 268 931 268 c 0
 995 268 1051 219 1035 131 c 0
886 317 m 1
 833 219 l 1
 716 170 l 1
 820 418 l 1
 1076 418 l 1
 1058 317 l 1
 886 317 l 1
EndSplineSet
EndChar

StartChar: uni2157
Encoding: 8535 8535 160
Width: 961
VWidth: 0
Flags: HMW
LayerCount: 2
Fore
SplineSet
803 700 m 1
 941 700 l 1
 298 0 l 1
 160 0 l 1
 803 700 l 1
248 482 m 1
 257 532 l 1
 301 532 336 556 341 584 c 0
 345 604 334 617 305 617 c 0
 275 617 252 600 247 572 c 1
 139 572 l 1
 153 649 225 708 321 708 c 0
 422 708 470 657 458 591 c 0
 445 515 354 482 248 482 c 1
237 269 m 0
 129 269 80 343 94 420 c 1
 210 420 l 1
 203 378 229 361 260 361 c 0
 291 361 316 372 322 406 c 0
 327 436 308 460 244 460 c 1
 254 517 l 1
 374 517 451 482 436 396 c 0
 423 322 349 269 237 269 c 0
947 131 m 0
 929 31 827 -10 746 -10 c 0
 669 -10 618 10 580 34 c 1
 636 134 l 1
 669 108 709 96 735 96 c 0
 783 96 816 110 822 146 c 0
 828 182 789 193 752 193 c 0
 722 193 674 188 628 170 c 1
 719 224 l 1
 758 259 799 268 843 268 c 0
 907 268 963 219 947 131 c 0
798 317 m 1
 745 219 l 1
 628 170 l 1
 730 418 l 1
 987 418 l 1
 969 317 l 1
 798 317 l 1
EndSplineSet
EndChar

StartChar: uni2158
Encoding: 8536 8536 161
Width: 1061
VWidth: 0
Flags: HMW
LayerCount: 2
Fore
SplineSet
870 700 m 1
 1008 700 l 1
 365 0 l 1
 227 0 l 1
 870 700 l 1
82 352 m 1
 192 434 l 1
 379 434 l 0
 391 450 l 0
 504 450 l 1
 487 352 l 1
 82 352 l 1
205 390 m 1
 82 352 l 1
 390 700 l 25
 482 700 l 1
 408 280 l 1
 286 280 l 1
 303 374 l 0
 319 380 l 0
 348 544 l 1
 205 390 l 1
1055 130 m 0
 1037 30 935 -11 854 -11 c 0
 777 -11 726 9 688 33 c 1
 744 134 l 1
 777 108 817 95 843 95 c 0
 891 95 924 109 930 145 c 0
 936 181 897 192 860 192 c 0
 830 192 782 186 736 168 c 1
 827 224 l 1
 866 259 907 266 951 266 c 0
 1015 266 1071 218 1055 130 c 0
906 316 m 1
 852 218 l 1
 736 168 l 1
 838 418 l 1
 1095 418 l 1
 1077 316 l 1
 906 316 l 1
EndSplineSet
EndChar

StartChar: uni2159
Encoding: 8537 8537 162
Width: 912
VWidth: 0
Flags: HMW
LayerCount: 2
Fore
SplineSet
756 700 m 1
 895 700 l 1
 252 0 l 1
 113 0 l 1
 756 700 l 1
121 560 m 1
 138 660 l 1
 366 702 l 1
 290 274 l 1
 178 274 l 1
 233 586 l 1
 121 560 l 1
666 148 m 0
 659 110 683 86 719 86 c 0
 755 86 787 110 794 148 c 0
 801 186 777 212 741 212 c 0
 705 212 673 186 666 148 c 0
769 416 m 1
 916 416 l 1
 754 270 l 1
 725 258 l 1
 753 280 771 285 802 285 c 0
 862 285 925 234 910 148 c 0
 891 40 800 -13 702 -13 c 0
 604 -13 532 40 551 148 c 0
 559 196 591 236 628 274 c 2
 769 416 l 1
EndSplineSet
EndChar

StartChar: uni215A
Encoding: 8538 8538 163
Width: 953
VWidth: 0
Flags: HMW
LayerCount: 2
Fore
SplineSet
821 700 m 1
 959 700 l 1
 316 0 l 1
 178 0 l 1
 821 700 l 1
452 411 m 0
 434 311 333 270 252 270 c 0
 175 270 123 290 85 314 c 1
 141 414 l 1
 174 388 214 376 240 376 c 0
 288 376 321 390 327 426 c 0
 333 462 294 473 257 473 c 0
 227 473 179 468 133 450 c 1
 225 504 l 1
 264 539 305 548 349 548 c 0
 413 548 468 499 452 411 c 0
303 597 m 1
 250 499 l 1
 133 450 l 1
 235 698 l 1
 491 698 l 1
 473 597 l 1
 303 597 l 1
708 148 m 0
 701 110 724 86 760 86 c 0
 796 86 827 110 834 148 c 0
 841 186 818 212 782 212 c 0
 746 212 715 186 708 148 c 0
809 416 m 1
 957 416 l 1
 795 270 l 1
 767 258 l 1
 795 280 811 285 842 285 c 0
 902 285 965 234 950 148 c 0
 931 40 841 -13 743 -13 c 0
 645 -13 573 40 592 148 c 0
 600 196 632 236 669 274 c 2
 809 416 l 1
EndSplineSet
EndChar

StartChar: oneeighth
Encoding: 8539 8539 164
Width: 930
VWidth: 0
Flags: HMW
LayerCount: 2
Fore
SplineSet
756 700 m 1
 895 700 l 1
 252 0 l 1
 113 0 l 1
 756 700 l 1
121 560 m 1
 138 660 l 1
 366 702 l 1
 290 274 l 1
 178 274 l 1
 233 586 l 1
 121 560 l 1
640 319 m 0
 653 393 731 431 811 431 c 0
 891 431 954 393 941 319 c 0
 927 239 840 204 771 204 c 0
 702 204 626 239 640 319 c 0
748 308 m 0
 743 282 758 266 782 266 c 0
 806 266 824 282 829 308 c 0
 834 334 821 349 797 349 c 0
 773 349 753 334 748 308 c 0
590 114 m 0
 606 206 708 239 777 239 c 0
 846 239 936 206 920 114 c 0
 906 34 817 -11 733 -11 c 0
 649 -11 576 34 590 114 c 0
710 132 m 0
 704 100 721 82 749 82 c 0
 777 82 799 100 805 132 c 0
 810 158 795 179 767 179 c 0
 739 179 715 158 710 132 c 0
EndSplineSet
EndChar

StartChar: threeeighths
Encoding: 8540 8540 165
Width: 985
VWidth: 0
Flags: HMW
LayerCount: 2
Fore
SplineSet
811 700 m 1
 949 700 l 1
 306 0 l 1
 168 0 l 1
 811 700 l 1
248 482 m 1
 257 532 l 1
 301 532 336 556 341 584 c 0
 345 604 334 617 305 617 c 0
 275 617 252 600 247 572 c 1
 139 572 l 1
 153 649 225 708 321 708 c 0
 422 708 470 657 458 591 c 0
 445 515 354 482 248 482 c 1
237 269 m 0
 129 269 80 343 94 420 c 1
 210 420 l 1
 203 378 229 361 260 361 c 0
 291 361 316 372 322 406 c 0
 327 436 308 460 244 460 c 1
 254 517 l 1
 374 517 451 482 436 396 c 0
 423 322 349 269 237 269 c 0
695 319 m 0
 708 393 786 431 866 431 c 0
 946 431 1009 393 996 319 c 0
 982 239 895 204 826 204 c 0
 757 204 681 239 695 319 c 0
803 308 m 0
 798 282 813 266 837 266 c 0
 861 266 879 282 884 308 c 0
 889 334 876 349 852 349 c 0
 828 349 808 334 803 308 c 0
644 114 m 0
 660 206 763 239 832 239 c 0
 901 239 990 206 974 114 c 0
 960 34 872 -11 788 -11 c 0
 704 -11 630 34 644 114 c 0
765 132 m 0
 759 100 776 82 804 82 c 0
 832 82 854 100 860 132 c 0
 865 158 850 179 822 179 c 0
 794 179 770 158 765 132 c 0
EndSplineSet
EndChar

StartChar: fiveeighths
Encoding: 8541 8541 166
Width: 995
VWidth: 0
Flags: HMW
LayerCount: 2
Fore
SplineSet
821 700 m 1
 959 700 l 1
 316 0 l 1
 178 0 l 1
 821 700 l 1
444 411 m 0
 426 311 325 270 244 270 c 0
 167 270 115 290 77 314 c 1
 133 414 l 1
 166 388 206 376 232 376 c 0
 280 376 313 390 319 426 c 0
 325 462 286 473 249 473 c 0
 219 473 171 468 125 450 c 1
 217 504 l 1
 256 539 297 548 341 548 c 0
 405 548 460 499 444 411 c 0
295 597 m 1
 242 499 l 1
 125 450 l 1
 227 698 l 1
 483 698 l 1
 465 597 l 1
 295 597 l 1
706 319 m 0
 719 393 796 431 876 431 c 0
 956 431 1019 393 1006 319 c 0
 992 239 905 204 836 204 c 0
 767 204 692 239 706 319 c 0
814 308 m 0
 809 282 823 266 847 266 c 0
 871 266 889 282 894 308 c 0
 899 334 886 349 862 349 c 0
 838 349 819 334 814 308 c 0
654 114 m 0
 670 206 773 239 842 239 c 0
 911 239 1001 206 985 114 c 0
 971 34 882 -11 798 -11 c 0
 714 -11 640 34 654 114 c 0
775 132 m 0
 769 100 786 82 814 82 c 0
 842 82 865 100 871 132 c 0
 876 158 860 179 832 179 c 0
 804 179 780 158 775 132 c 0
EndSplineSet
EndChar

StartChar: seveneighths
Encoding: 8542 8542 167
Width: 885
VWidth: 0
Flags: HMW
LayerCount: 2
Fore
SplineSet
703 700 m 1
 841 700 l 1
 198 0 l 1
 60 0 l 1
 703 700 l 1
125 591 m 1
 144 700 l 1
 501 700 l 1
 224 280 l 1
 98 280 l 1
 312 591 l 1
 125 591 l 1
596 319 m 0
 609 393 686 431 766 431 c 0
 846 431 909 393 896 319 c 0
 882 239 795 204 726 204 c 0
 657 204 582 239 596 319 c 0
704 308 m 0
 699 282 713 266 737 266 c 0
 761 266 779 282 784 308 c 0
 789 334 776 349 752 349 c 0
 728 349 709 334 704 308 c 0
544 114 m 0
 560 206 663 239 732 239 c 0
 801 239 891 206 875 114 c 0
 861 34 772 -11 688 -11 c 0
 604 -11 530 34 544 114 c 0
665 132 m 0
 659 100 676 82 704 82 c 0
 732 82 755 100 761 132 c 0
 766 158 750 179 722 179 c 0
 694 179 670 158 665 132 c 0
EndSplineSet
EndChar

StartChar: uni2074
Encoding: 8308 8308 168
Width: 438
VWidth: 0
Flags: HMW
LayerCount: 2
Fore
SplineSet
74 352 m 1
 184 434 l 1
 371 434 l 0
 383 450 l 0
 495 450 l 1
 478 352 l 1
 74 352 l 1
197 390 m 1
 74 352 l 1
 382 700 l 25
 473 700 l 1
 399 280 l 1
 278 280 l 1
 295 374 l 0
 311 380 l 0
 340 544 l 1
 197 390 l 1
EndSplineSet
EndChar

StartChar: uni2075
Encoding: 8309 8309 169
Width: 396
VWidth: 0
Flags: HMW
LayerCount: 2
Fore
SplineSet
444 411 m 0
 426 311 325 270 244 270 c 0
 167 270 115 290 77 314 c 1
 133 414 l 1
 166 388 206 376 232 376 c 0
 280 376 313 390 319 426 c 0
 325 462 286 473 249 473 c 0
 219 473 171 468 125 450 c 1
 217 504 l 1
 256 539 297 548 341 548 c 0
 405 548 460 499 444 411 c 0
295 597 m 1
 242 499 l 1
 125 450 l 1
 227 698 l 1
 483 698 l 1
 465 597 l 1
 295 597 l 1
EndSplineSet
EndChar

StartChar: uni2076
Encoding: 8310 8310 170
Width: 394
VWidth: 0
Flags: HMW
LayerCount: 2
Fore
SplineSet
209 428 m 0
 202 390 227 366 263 366 c 0
 299 366 329 390 336 428 c 0
 343 466 321 492 285 492 c 0
 249 492 216 466 209 428 c 0
311 696 m 1
 459 696 l 1
 297 550 l 1
 269 538 l 1
 297 560 314 565 345 565 c 0
 405 565 467 514 452 428 c 0
 433 320 343 267 245 267 c 0
 147 267 74 320 93 428 c 0
 101 476 135 516 172 554 c 2
 311 696 l 1
EndSplineSet
EndChar

StartChar: uni2077
Encoding: 8311 8311 171
Width: 386
VWidth: 0
Flags: HMW
LayerCount: 2
Fore
SplineSet
125 591 m 1
 144 700 l 1
 501 700 l 1
 224 280 l 1
 98 280 l 1
 312 591 l 1
 125 591 l 1
EndSplineSet
EndChar

StartChar: uni2078
Encoding: 8312 8312 172
Width: 374
VWidth: 0
Flags: HMW
LayerCount: 2
Fore
SplineSet
142 599 m 0
 155 673 231 711 311 711 c 0
 391 711 455 673 442 599 c 0
 428 519 340 484 271 484 c 0
 202 484 128 519 142 599 c 0
250 588 m 0
 245 562 258 546 282 546 c 0
 306 546 325 562 330 588 c 0
 335 614 321 629 297 629 c 0
 273 629 255 614 250 588 c 0
89 394 m 0
 105 486 209 519 278 519 c 0
 347 519 435 486 419 394 c 0
 405 314 317 269 233 269 c 0
 149 269 75 314 89 394 c 0
211 412 m 0
 205 380 222 362 250 362 c 0
 278 362 301 380 307 412 c 0
 312 438 295 459 267 459 c 0
 239 459 216 438 211 412 c 0
EndSplineSet
EndChar

StartChar: uni2079
Encoding: 8313 8313 173
Width: 390
VWidth: 0
Flags: HMW
LayerCount: 2
Fore
SplineSet
357 552 m 0
 364 590 341 614 305 614 c 0
 269 614 238 590 231 552 c 0
 224 514 247 488 283 488 c 0
 319 488 350 514 357 552 c 0
256 284 m 1
 108 284 l 1
 271 430 l 1
 299 442 l 1
 271 420 253 415 222 415 c 0
 162 415 100 466 115 552 c 0
 134 660 225 713 323 713 c 0
 421 713 493 660 474 552 c 0
 466 504 432 464 395 426 c 2
 256 284 l 1
EndSplineSet
EndChar

StartChar: uni2070
Encoding: 8304 8304 174
Width: 396
VWidth: 0
Flags: HMW
LayerCount: 2
Fore
SplineSet
216 490 m 0
 203 416 223 371 263 371 c 0
 303 371 339 416 352 490 c 0
 365 564 345 609 305 609 c 0
 265 609 229 564 216 490 c 0
104 490 m 0
 129 630 217 708 323 708 c 0
 435 708 489 630 464 490 c 0
 439 350 358 272 246 272 c 0
 140 272 79 350 104 490 c 0
EndSplineSet
EndChar

StartChar: uni2080
Encoding: 8320 8320 175
Width: 396
VWidth: 0
Flags: HMW
LayerCount: 2
Fore
SplineSet
167 210 m 0
 154 136 174 91 214 91 c 0
 254 91 290 136 303 210 c 0
 316 284 296 329 256 329 c 0
 216 329 180 284 167 210 c 0
55 210 m 0
 80 350 167 428 273 428 c 0
 385 428 440 350 415 210 c 0
 390 70 309 -8 197 -8 c 0
 91 -8 30 70 55 210 c 0
EndSplineSet
EndChar

StartChar: uni2084
Encoding: 8324 8324 176
Width: 445
VWidth: 0
Flags: HMW
LayerCount: 2
Fore
SplineSet
23 72 m 1
 133 154 l 1
 319 154 l 0
 332 170 l 0
 445 170 l 1
 428 72 l 1
 23 72 l 1
146 110 m 1
 23 72 l 1
 331 420 l 25
 423 420 l 1
 349 0 l 1
 227 0 l 1
 244 94 l 0
 260 100 l 0
 289 264 l 1
 146 110 l 1
EndSplineSet
EndChar

StartChar: uni2085
Encoding: 8325 8325 177
Width: 408
VWidth: 0
Flags: HMW
LayerCount: 2
Fore
SplineSet
399 131 m 0
 381 31 278 -10 197 -10 c 0
 120 -10 70 10 32 34 c 1
 88 134 l 1
 121 108 161 96 187 96 c 0
 235 96 268 110 274 146 c 0
 280 182 241 193 204 193 c 0
 174 193 125 188 79 170 c 1
 171 224 l 1
 210 259 250 268 294 268 c 0
 358 268 415 219 399 131 c 0
250 317 m 1
 197 219 l 1
 79 170 l 1
 182 418 l 1
 439 418 l 1
 421 317 l 1
 250 317 l 1
EndSplineSet
EndChar

StartChar: uni2086
Encoding: 8326 8326 178
Width: 409
VWidth: 0
Flags: HMW
LayerCount: 2
Fore
SplineSet
164 148 m 0
 157 110 181 86 217 86 c 0
 253 86 285 110 292 148 c 0
 299 186 275 212 239 212 c 0
 203 212 171 186 164 148 c 0
267 416 m 1
 414 416 l 1
 252 270 l 1
 223 258 l 1
 251 280 269 285 300 285 c 0
 360 285 423 234 408 148 c 0
 389 40 298 -13 200 -13 c 0
 102 -13 30 40 49 148 c 0
 57 196 89 236 126 274 c 2
 267 416 l 1
EndSplineSet
EndChar

StartChar: uni2087
Encoding: 8327 8327 179
Width: 393
VWidth: 0
Flags: HMW
LayerCount: 2
Fore
SplineSet
81 311 m 1
 100 420 l 1
 458 420 l 1
 180 0 l 1
 54 0 l 1
 267 311 l 1
 81 311 l 1
EndSplineSet
EndChar

StartChar: uni2088
Encoding: 8328 8328 180
Width: 382
VWidth: 0
Flags: HMW
LayerCount: 2
Fore
SplineSet
97 319 m 0
 110 393 187 431 267 431 c 0
 347 431 410 393 397 319 c 0
 383 239 296 204 227 204 c 0
 158 204 83 239 97 319 c 0
205 308 m 0
 200 282 214 266 238 266 c 0
 262 266 280 282 285 308 c 0
 290 334 277 349 253 349 c 0
 229 349 210 334 205 308 c 0
46 114 m 0
 62 206 164 239 233 239 c 0
 302 239 392 206 376 114 c 0
 362 34 273 -11 189 -11 c 0
 105 -11 32 34 46 114 c 0
166 132 m 0
 160 100 177 82 205 82 c 0
 233 82 256 100 262 132 c 0
 267 158 251 179 223 179 c 0
 195 179 171 158 166 132 c 0
EndSplineSet
EndChar

StartChar: uni2089
Encoding: 8329 8329 181
Width: 414
VWidth: 0
Flags: HMW
LayerCount: 2
Fore
SplineSet
316 272 m 0
 323 310 299 334 263 334 c 0
 227 334 195 310 188 272 c 0
 181 234 205 208 241 208 c 0
 277 208 309 234 316 272 c 0
215 4 m 1
 66 4 l 1
 228 150 l 1
 257 162 l 1
 229 140 211 135 180 135 c 0
 120 135 58 186 73 272 c 0
 92 380 182 433 280 433 c 0
 378 433 451 380 432 272 c 0
 424 224 391 184 354 146 c 2
 215 4 l 1
EndSplineSet
EndChar

StartChar: uni2081
Encoding: 8321 8321 182
Width: 374
VWidth: 0
Flags: HMW
LayerCount: 2
Fore
SplineSet
141 288 m 1
 158 387 l 1
 386 430 l 1
 310 1 l 1
 198 1 l 1
 253 314 l 1
 141 288 l 1
EndSplineSet
EndChar

StartChar: uni2082
Encoding: 8322 8322 183
Width: 430
VWidth: 0
Flags: HMW
LayerCount: 2
Fore
SplineSet
29 2 m 1
 248 190 l 2
 291 228 314 252 320 286 c 0
 324 310 313 332 279 332 c 0
 245 332 216 304 209 264 c 1
 95 264 l 1
 111 353 184 432 300 432 c 0
 408 432 454 361 442 293 c 0
 434 247 403 211 361 181 c 2
 261 108 l 1
 422 108 l 1
 403 2 l 1
 29 2 l 1
EndSplineSet
EndChar

StartChar: uni2083
Encoding: 8323 8323 184
Width: 390
VWidth: 0
Flags: HMW
LayerCount: 2
Fore
SplineSet
200 202 m 1
 208 252 l 1
 252 252 288 276 293 304 c 0
 297 324 284 337 255 337 c 0
 225 337 202 320 197 292 c 1
 90 292 l 1
 104 369 176 428 272 428 c 0
 373 428 421 377 409 311 c 0
 396 235 306 202 200 202 c 1
190 -11 m 0
 82 -11 32 63 46 140 c 1
 161 140 l 1
 154 98 179 81 210 81 c 0
 241 81 267 92 273 126 c 0
 278 156 260 180 196 180 c 1
 206 237 l 1
 326 237 401 202 386 116 c 0
 373 42 302 -11 190 -11 c 0
EndSplineSet
EndChar

StartChar: Agrave
Encoding: 192 192 185
Width: 757
VWidth: 0
Flags: HMW
LayerCount: 2
Fore
SplineSet
215 112 m 1
 247 256 l 1
 606 256 l 1
 585 112 l 1
 215 112 l 1
452 412 m 1
 323 203 l 1
 327 159 l 1
 218 0 l 1
 -4 0 l 1
 511 747 l 1
 760 0 l 1
 540 0 l 1
 487 152 l 1
 507 202 l 1
 452 412 l 1
377 957 m 1
 515 1014 l 1
 636 854 l 1
 530 807 l 1
 377 957 l 1
EndSplineSet
EndChar

StartChar: Aacute
Encoding: 193 193 186
Width: 757
VWidth: 0
Flags: HMW
LayerCount: 2
Fore
SplineSet
215 112 m 1
 247 256 l 1
 606 256 l 1
 585 112 l 1
 215 112 l 1
452 412 m 1
 323 203 l 1
 327 159 l 1
 218 0 l 1
 -4 0 l 1
 511 747 l 1
 760 0 l 1
 540 0 l 1
 487 152 l 1
 507 202 l 1
 452 412 l 1
714 957 m 1
 508 807 l 1
 418 854 l 1
 596 1014 l 1
 714 957 l 1
EndSplineSet
EndChar

StartChar: Acircumflex
Encoding: 194 194 187
Width: 757
VWidth: 0
Flags: HMW
LayerCount: 2
Fore
SplineSet
215 112 m 1
 247 256 l 1
 606 256 l 1
 585 112 l 1
 215 112 l 1
452 412 m 1
 323 203 l 1
 327 159 l 1
 218 0 l 1
 -4 0 l 1
 511 747 l 1
 760 0 l 1
 540 0 l 1
 487 152 l 1
 507 202 l 1
 452 412 l 1
535 882 m 1
 434 800 l 1
 325 880 l 1
 559 1020 l 1
 743 880 l 1
 606 800 l 1
 535 882 l 1
EndSplineSet
EndChar

StartChar: Atilde
Encoding: 195 195 188
Width: 757
VWidth: 0
Flags: HMW
LayerCount: 2
Fore
SplineSet
215 112 m 1
 247 256 l 1
 606 256 l 1
 585 112 l 1
 215 112 l 1
452 412 m 1
 323 203 l 1
 327 159 l 1
 218 0 l 1
 -4 0 l 1
 511 747 l 1
 760 0 l 1
 540 0 l 1
 487 152 l 1
 507 202 l 1
 452 412 l 1
328 878 m 1
 347 927 400 976 470 976 c 0
 536 976 544 922 601 922 c 0
 629 922 652 945 678 977 c 1
 742 894 l 1
 719 857 650 804 584 804 c 0
 529 804 499 860 448 860 c 0
 411 860 396 823 393 808 c 1
 328 878 l 1
EndSplineSet
EndChar

StartChar: Adieresis
Encoding: 196 196 189
Width: 757
VWidth: 0
Flags: HMW
LayerCount: 2
Fore
SplineSet
215 112 m 1
 247 256 l 1
 606 256 l 1
 585 112 l 1
 215 112 l 1
452 412 m 1
 323 203 l 1
 327 159 l 1
 218 0 l 1
 -4 0 l 1
 511 747 l 1
 760 0 l 1
 540 0 l 1
 487 152 l 1
 507 202 l 1
 452 412 l 1
580 827 m 0
 589 881 640 917 694 917 c 0
 748 917 785 881 776 827 c 0
 767 773 716 737 662 737 c 0
 608 737 571 773 580 827 c 0
269 832 m 0
 278 886 329 922 383 922 c 0
 437 922 474 886 465 832 c 0
 456 778 405 742 351 742 c 0
 297 742 260 778 269 832 c 0
EndSplineSet
EndChar

StartChar: Aring
Encoding: 197 197 190
Width: 757
VWidth: 0
Flags: HMW
LayerCount: 2
Fore
SplineSet
215 112 m 1
 247 256 l 1
 606 256 l 1
 585 112 l 1
 215 112 l 1
452 412 m 1
 323 203 l 1
 327 159 l 1
 218 0 l 1
 -4 0 l 1
 511 747 l 1
 760 0 l 1
 540 0 l 1
 487 152 l 1
 507 202 l 1
 452 412 l 1
388 801 m 0
 401 873 465 922 540 922 c 0
 615 922 665 873 652 801 c 0
 639 729 573 681 498 681 c 0
 423 681 375 729 388 801 c 0
475 801 m 0
 470 772 486 756 511 756 c 0
 536 756 560 772 565 801 c 0
 570 830 552 848 527 848 c 0
 502 848 480 830 475 801 c 0
EndSplineSet
EndChar

StartChar: AE
Encoding: 198 198 191
Width: 1122
VWidth: 0
Flags: HMW
LayerCount: 2
Fore
SplineSet
309 132 m 1
 349 310 l 1
 649 310 l 1
 617 132 l 1
 309 132 l 1
562 700 m 1
 746 660 l 1
 266 0 l 1
 17 0 l 1
 562 700 l 1
658 0 m 1
 686 158 l 1
 1080 158 l 1
 1052 0 l 1
 658 0 l 1
762 542 m 1
 562 700 l 1
 1176 700 l 1
 1148 542 l 1
 762 542 l 1
709 288 m 1
 736 440 l 1
 1110 440 l 1
 1083 288 l 1
 709 288 l 1
691 700 m 1
 902 700 l 1
 778 0 l 1
 568 0 l 1
 691 700 l 1
EndSplineSet
EndChar

StartChar: Ccedilla
Encoding: 199 199 192
Width: 705
VWidth: 0
Flags: HMW
LayerCount: 2
Fore
SplineSet
307 350 m 0
 286 232 363 166 469 166 c 0
 568 166 636 210 689 256 c 1
 652 50 l 1
 589 10 525 -18 423 -18 c 0
 189 -18 55 129 94 350 c 0
 133 571 319 718 553 718 c 0
 655 718 710 690 758 650 c 1
 722 444 l 1
 685 490 633 534 534 534 c 0
 428 534 328 468 307 350 c 0
366 61 m 1
 490 56 l 1
 345 -100 l 1
 242 -142 l 1
 366 61 l 1
500 -169 m 1
 393 -158 l 1
 398 -131 364 -126 334 -126 c 0
 324 -126 284 -128 242 -142 c 1
 322 -96 l 1
 354 -68 383 -64 421 -64 c 0
 463 -64 513 -98 500 -169 c 1
500 -169 m 1
 487 -245 407 -282 341 -282 c 0
 279 -282 234 -273 187 -243 c 1
 250 -165 l 1
 274 -184 313 -191 331 -191 c 0
 365 -191 389 -182 393 -158 c 1
 500 -169 l 1
EndSplineSet
EndChar

StartChar: Egrave
Encoding: 200 200 193
Width: 619
VWidth: 0
Flags: HMW
LayerCount: 2
Fore
SplineSet
204 0 m 1
 232 158 l 1
 585 158 l 1
 558 0 l 1
 204 0 l 1
300 542 m 1
 327 700 l 1
 681 700 l 1
 653 542 l 1
 300 542 l 1
255 288 m 1
 282 440 l 1
 615 440 l 1
 588 288 l 1
 255 288 l 1
195 700 m 1
 382 700 l 1
 258 0 l 1
 72 0 l 1
 195 700 l 1
309 936 m 1
 446 992 l 1
 568 832 l 1
 462 786 l 1
 309 936 l 1
EndSplineSet
EndChar

StartChar: Eacute
Encoding: 201 201 194
Width: 619
VWidth: 0
Flags: HMW
LayerCount: 2
Fore
SplineSet
204 0 m 1
 232 158 l 1
 585 158 l 1
 558 0 l 1
 204 0 l 1
300 542 m 1
 327 700 l 1
 681 700 l 1
 653 542 l 1
 300 542 l 1
255 288 m 1
 282 440 l 1
 615 440 l 1
 588 288 l 1
 255 288 l 1
195 700 m 1
 382 700 l 1
 258 0 l 1
 72 0 l 1
 195 700 l 1
647 936 m 1
 440 786 l 1
 351 832 l 1
 529 992 l 1
 647 936 l 1
EndSplineSet
EndChar

StartChar: Ecircumflex
Encoding: 202 202 195
Width: 619
VWidth: 0
Flags: HMW
LayerCount: 2
Fore
SplineSet
204 0 m 1
 232 158 l 1
 585 158 l 1
 558 0 l 1
 204 0 l 1
300 542 m 1
 327 700 l 1
 681 700 l 1
 653 542 l 1
 300 542 l 1
255 288 m 1
 282 440 l 1
 615 440 l 1
 588 288 l 1
 255 288 l 1
195 700 m 1
 382 700 l 1
 258 0 l 1
 72 0 l 1
 195 700 l 1
473 890 m 1
 346 794 l 1
 303 834 l 1
 488 974 l 1
 623 834 l 1
 566 794 l 1
 473 890 l 1
EndSplineSet
EndChar

StartChar: Edieresis
Encoding: 203 203 196
Width: 619
VWidth: 0
Flags: HMW
LayerCount: 2
Fore
SplineSet
204 0 m 1
 232 158 l 1
 585 158 l 1
 558 0 l 1
 204 0 l 1
300 542 m 1
 327 700 l 1
 681 700 l 1
 653 542 l 1
 300 542 l 1
255 288 m 1
 282 440 l 1
 615 440 l 1
 588 288 l 1
 255 288 l 1
195 700 m 1
 382 700 l 1
 258 0 l 1
 72 0 l 1
 195 700 l 1
499 868 m 0
 508 922 558 958 612 958 c 0
 666 958 704 922 695 868 c 0
 686 814 635 778 581 778 c 0
 527 778 490 814 499 868 c 0
242 868 m 0
 251 922 301 958 355 958 c 0
 409 958 447 922 438 868 c 0
 429 814 378 778 324 778 c 0
 270 778 233 814 242 868 c 0
EndSplineSet
EndChar

StartChar: Igrave
Encoding: 204 204 197
Width: 342
VWidth: 0
Flags: HMW
LayerCount: 2
Fore
SplineSet
195 700 m 1
 394 700 l 1
 270 0 l 1
 72 0 l 1
 195 700 l 1
157 936 m 1
 295 992 l 1
 417 832 l 1
 311 786 l 1
 157 936 l 1
EndSplineSet
EndChar

StartChar: Iacute
Encoding: 205 205 198
Width: 342
VWidth: 0
Flags: HMW
LayerCount: 2
Fore
SplineSet
195 700 m 1
 394 700 l 1
 270 0 l 1
 72 0 l 1
 195 700 l 1
495 936 m 1
 289 786 l 1
 199 832 l 1
 378 992 l 1
 495 936 l 1
EndSplineSet
EndChar

StartChar: Icircumflex
Encoding: 206 206 199
Width: 342
VWidth: 0
Flags: HMW
LayerCount: 2
Fore
SplineSet
195 700 m 1
 394 700 l 1
 270 0 l 1
 72 0 l 1
 195 700 l 1
319 890 m 1
 193 794 l 1
 150 834 l 1
 334 974 l 1
 470 834 l 1
 413 794 l 1
 319 890 l 1
EndSplineSet
EndChar

StartChar: Idieresis
Encoding: 207 207 200
Width: 342
VWidth: 0
Flags: HMW
LayerCount: 2
Fore
SplineSet
195 700 m 1
 394 700 l 1
 270 0 l 1
 72 0 l 1
 195 700 l 1
355 868 m 0
 364 922 415 958 469 958 c 0
 523 958 560 922 551 868 c 0
 542 814 491 778 437 778 c 0
 383 778 346 814 355 868 c 0
98 868 m 0
 107 922 158 958 212 958 c 0
 266 958 303 922 294 868 c 0
 285 814 234 778 180 778 c 0
 126 778 89 814 98 868 c 0
EndSplineSet
EndChar

StartChar: Ntilde
Encoding: 209 209 201
Width: 799
VWidth: 0
Flags: HMW
LayerCount: 2
Fore
SplineSet
165 500 m 1
 202 735 l 1
 758 200 l 1
 721 -35 l 1
 165 500 l 1
664 700 m 1
 851 700 l 1
 721 -35 l 1
 571 172 l 1
 664 700 l 1
202 735 m 1
 352 528 l 1
 258 0 l 1
 72 0 l 1
 202 735 l 1
376 854 m 1
 395 903 449 936 494 936 c 0
 559 936 556 888 610 888 c 0
 629 888 648 904 674 936 c 1
 713 894 l 1
 690 857 644 820 594 820 c 0
 539 820 526 868 481 868 c 0
 440 868 425 831 422 816 c 1
 376 854 l 1
EndSplineSet
EndChar

StartChar: Eth
Encoding: 208 208 202
Width: 749
VWidth: 0
Flags: HMW
LayerCount: 2
Fore
SplineSet
297 530 m 1
 327 700 l 1
 458 700 l 2
 694 700 817 568 779 350 c 1
 576 350 l 1
 602 496 513 530 420 530 c 2
 297 530 l 1
334 0 m 2
 204 0 l 1
 234 170 l 1
 356 170 l 2
 449 170 550 204 576 350 c 1
 779 350 l 1
 741 132 570 0 334 0 c 2
195 700 m 1
 397 700 l 1
 274 0 l 1
 72 0 l 1
 195 700 l 1
59 300 m 1
 78 408 l 1
 443 408 l 1
 424 300 l 1
 59 300 l 1
EndSplineSet
EndChar

StartChar: Ograve
Encoding: 210 210 203
Width: 830
VWidth: 0
Flags: HMW
LayerCount: 2
Fore
SplineSet
300 350 m 0
 280 236 335 159 443 159 c 0
 551 159 634 236 654 350 c 0
 674 464 622 541 510 541 c 0
 402 541 320 464 300 350 c 0
94 350 m 0
 133 570 326 718 542 718 c 0
 762 718 900 570 861 350 c 0
 822 130 634 -26 410 -26 c 0
 186 -26 55 130 94 350 c 0
424 936 m 1
 562 992 l 1
 683 832 l 1
 577 786 l 1
 424 936 l 1
EndSplineSet
EndChar

StartChar: Oacute
Encoding: 211 211 204
Width: 830
VWidth: 0
Flags: HMW
LayerCount: 2
Fore
SplineSet
300 350 m 0
 280 236 335 159 443 159 c 0
 551 159 634 236 654 350 c 0
 674 464 622 541 510 541 c 0
 402 541 320 464 300 350 c 0
94 350 m 0
 133 570 326 718 542 718 c 0
 762 718 900 570 861 350 c 0
 822 130 634 -26 410 -26 c 0
 186 -26 55 130 94 350 c 0
757 936 m 1
 551 786 l 1
 461 832 l 1
 640 992 l 1
 757 936 l 1
EndSplineSet
EndChar

StartChar: Ocircumflex
Encoding: 212 212 205
Width: 830
VWidth: 0
Flags: HMW
LayerCount: 2
Fore
SplineSet
300 350 m 0
 280 236 335 159 443 159 c 0
 551 159 634 236 654 350 c 0
 674 464 622 541 510 541 c 0
 402 541 320 464 300 350 c 0
94 350 m 0
 133 570 326 718 542 718 c 0
 762 718 900 570 861 350 c 0
 822 130 634 -26 410 -26 c 0
 186 -26 55 130 94 350 c 0
584 890 m 1
 458 794 l 1
 415 834 l 1
 599 974 l 1
 735 834 l 1
 678 794 l 1
 584 890 l 1
EndSplineSet
EndChar

StartChar: Otilde
Encoding: 213 213 206
Width: 830
VWidth: 0
Flags: HMW
LayerCount: 2
Fore
SplineSet
300 350 m 0
 280 236 335 159 443 159 c 0
 551 159 634 236 654 350 c 0
 674 464 622 541 510 541 c 0
 402 541 320 464 300 350 c 0
94 350 m 0
 133 570 326 718 542 718 c 0
 762 718 900 570 861 350 c 0
 822 130 634 -26 410 -26 c 0
 186 -26 55 130 94 350 c 0
405 852 m 1
 424 901 478 934 523 934 c 0
 588 934 585 888 639 888 c 0
 658 888 677 904 703 936 c 1
 742 892 l 1
 719 855 673 820 623 820 c 0
 568 820 555 866 510 866 c 0
 469 866 454 831 451 816 c 1
 405 852 l 1
EndSplineSet
EndChar

StartChar: Odieresis
Encoding: 214 214 207
Width: 830
VWidth: 0
Flags: HMW
LayerCount: 2
Fore
SplineSet
300 350 m 0
 280 236 335 159 443 159 c 0
 551 159 634 236 654 350 c 0
 674 464 622 541 510 541 c 0
 402 541 320 464 300 350 c 0
94 350 m 0
 133 570 326 718 542 718 c 0
 762 718 900 570 861 350 c 0
 822 130 634 -26 410 -26 c 0
 186 -26 55 130 94 350 c 0
599 868 m 0
 608 922 658 958 712 958 c 0
 766 958 804 922 795 868 c 0
 786 814 735 778 681 778 c 0
 627 778 590 814 599 868 c 0
342 868 m 0
 351 922 401 958 455 958 c 0
 509 958 547 922 538 868 c 0
 529 814 478 778 424 778 c 0
 370 778 333 814 342 868 c 0
EndSplineSet
EndChar

StartChar: Ugrave
Encoding: 217 217 208
Width: 723
VWidth: 0
Flags: HMW
LayerCount: 2
Fore
SplineSet
190 700 m 1
 385 700 l 1
 305 246 l 2
 294 182 318 139 386 139 c 0
 454 139 494 182 505 246 c 2
 585 700 l 1
 780 700 l 1
 697 230 l 2
 664 42 517 -34 355 -34 c 0
 193 -34 74 42 107 230 c 2
 190 700 l 1
355 928 m 1
 493 984 l 1
 614 824 l 1
 509 778 l 1
 355 928 l 1
EndSplineSet
EndChar

StartChar: Uacute
Encoding: 218 218 209
Width: 723
VWidth: 0
Flags: HMW
LayerCount: 2
Fore
SplineSet
190 700 m 1
 385 700 l 1
 305 246 l 2
 294 182 318 139 386 139 c 0
 454 139 494 182 505 246 c 2
 585 700 l 1
 780 700 l 1
 697 230 l 2
 664 42 517 -34 355 -34 c 0
 193 -34 74 42 107 230 c 2
 190 700 l 1
696 928 m 1
 490 778 l 1
 400 824 l 1
 578 984 l 1
 696 928 l 1
EndSplineSet
EndChar

StartChar: Ucircumflex
Encoding: 219 219 210
Width: 723
VWidth: 0
Flags: HMW
LayerCount: 2
Fore
SplineSet
190 700 m 1
 385 700 l 1
 305 246 l 2
 294 182 318 139 386 139 c 0
 454 139 494 182 505 246 c 2
 585 700 l 1
 780 700 l 1
 697 230 l 2
 664 42 517 -34 355 -34 c 0
 193 -34 74 42 107 230 c 2
 190 700 l 1
513 861 m 1
 414 778 l 1
 304 859 l 1
 538 999 l 1
 722 859 l 1
 585 778 l 1
 513 861 l 1
EndSplineSet
EndChar

StartChar: Udieresis
Encoding: 220 220 211
Width: 723
VWidth: 0
Flags: HMW
LayerCount: 2
Fore
SplineSet
190 700 m 1
 385 700 l 1
 305 246 l 2
 294 182 318 139 386 139 c 0
 454 139 494 182 505 246 c 2
 585 700 l 1
 780 700 l 1
 697 230 l 2
 664 42 517 -34 355 -34 c 0
 193 -34 74 42 107 230 c 2
 190 700 l 1
570 868 m 0
 579 922 630 958 684 958 c 0
 738 958 775 922 766 868 c 0
 757 814 706 778 652 778 c 0
 598 778 561 814 570 868 c 0
263 868 m 0
 272 922 323 958 377 958 c 0
 431 958 468 922 459 868 c 0
 450 814 399 778 345 778 c 0
 291 778 254 814 263 868 c 0
EndSplineSet
EndChar

StartChar: Yacute
Encoding: 221 221 212
Width: 690
VWidth: 0
Flags: HMW
LayerCount: 2
Fore
SplineSet
309 360 m 1
 508 360 l 1
 444 0 l 1
 246 0 l 1
 309 360 l 1
591 700 m 1
 817 700 l 1
 365 111 l 1
 120 700 l 1
 345 700 l 1
 425 456 l 1
 591 700 l 1
679 928 m 1
 473 778 l 1
 383 824 l 1
 562 984 l 1
 679 928 l 1
EndSplineSet
EndChar

StartChar: agrave
Encoding: 224 224 213
Width: 630
VWidth: 0
Flags: HMW
LayerCount: 2
Fore
SplineSet
485 460 m 5
 659 460 l 5
 578 0 l 5
 404 0 l 5
 485 460 l 5
72 230 m 4
 100 388 221 470 329 470 c 4
 444 470 515 379 489 230 c 4
 463 81 360 -10 245 -10 c 4
 137 -10 44 72 72 230 c 4
254 230 m 4
 243 168 280 126 332 126 c 4
 378 126 433 164 445 230 c 4
 457 296 414 334 368 334 c 4
 316 334 265 292 254 230 c 4
261 680 m 5
 399 736 l 5
 521 576 l 5
 415 530 l 5
 261 680 l 5
EndSplineSet
Substitution2: "alt a" agrave.alt
EndChar

StartChar: aacute
Encoding: 225 225 214
Width: 630
VWidth: 0
Flags: HMW
LayerCount: 2
Fore
SplineSet
485 460 m 5
 659 460 l 5
 578 0 l 5
 404 0 l 5
 485 460 l 5
72 230 m 4
 100 388 221 470 329 470 c 4
 444 470 515 379 489 230 c 4
 463 81 360 -10 245 -10 c 4
 137 -10 44 72 72 230 c 4
254 230 m 4
 243 168 280 126 332 126 c 4
 378 126 433 164 445 230 c 4
 457 296 414 334 368 334 c 4
 316 334 265 292 254 230 c 4
601 680 m 5
 395 530 l 5
 305 576 l 5
 483 736 l 5
 601 680 l 5
EndSplineSet
Substitution2: "alt a" aacute.alt
EndChar

StartChar: acircumflex
Encoding: 226 226 215
Width: 630
VWidth: 0
Flags: HMW
LayerCount: 2
Fore
SplineSet
485 460 m 5
 659 460 l 5
 578 0 l 5
 404 0 l 5
 485 460 l 5
72 230 m 4
 100 388 221 470 329 470 c 4
 444 470 515 379 489 230 c 4
 463 81 360 -10 245 -10 c 4
 137 -10 44 72 72 230 c 4
254 230 m 4
 243 168 280 126 332 126 c 4
 378 126 433 164 445 230 c 4
 457 296 414 334 368 334 c 4
 316 334 265 292 254 230 c 4
430 614 m 5
 330 530 l 5
 220 611 l 5
 454 751 l 5
 638 611 l 5
 501 530 l 5
 430 614 l 5
EndSplineSet
Substitution2: "alt a" acircumflex.alt
EndChar

StartChar: atilde
Encoding: 227 227 216
Width: 630
VWidth: 0
Flags: HMW
LayerCount: 2
Fore
SplineSet
485 460 m 5
 659 460 l 5
 578 0 l 5
 404 0 l 5
 485 460 l 5
72 230 m 4
 100 388 221 470 329 470 c 4
 444 470 515 379 489 230 c 4
 463 81 360 -10 245 -10 c 4
 137 -10 44 72 72 230 c 4
254 230 m 4
 243 168 280 126 332 126 c 4
 378 126 433 164 445 230 c 4
 457 296 414 334 368 334 c 4
 316 334 265 292 254 230 c 4
232 604 m 5
 251 653 304 702 374 702 c 4
 440 702 448 649 505 649 c 4
 533 649 556 672 582 704 c 5
 646 620 l 5
 623 583 554 530 488 530 c 4
 433 530 403 586 352 586 c 4
 315 586 300 550 297 535 c 5
 232 604 l 5
EndSplineSet
Substitution2: "alt a" atilde.alt
EndChar

StartChar: adieresis
Encoding: 228 228 217
Width: 630
VWidth: 0
Flags: HMW
LayerCount: 2
Fore
SplineSet
485 460 m 5
 659 460 l 5
 578 0 l 5
 404 0 l 5
 485 460 l 5
72 230 m 4
 100 388 221 470 329 470 c 4
 444 470 515 379 489 230 c 4
 463 81 360 -10 245 -10 c 4
 137 -10 44 72 72 230 c 4
254 230 m 4
 243 168 280 126 332 126 c 4
 378 126 433 164 445 230 c 4
 457 296 414 334 368 334 c 4
 316 334 265 292 254 230 c 4
456 620 m 4
 465 674 516 710 570 710 c 4
 624 710 661 674 652 620 c 4
 643 566 593 530 539 530 c 4
 485 530 447 566 456 620 c 4
199 620 m 4
 208 674 259 710 313 710 c 4
 367 710 404 674 395 620 c 4
 386 566 336 530 282 530 c 4
 228 530 190 566 199 620 c 4
EndSplineSet
Substitution2: "alt a" adieresis.alt
EndChar

StartChar: aring
Encoding: 229 229 218
Width: 630
VWidth: 0
Flags: HMW
LayerCount: 2
Fore
SplineSet
485 460 m 5
 659 460 l 5
 578 0 l 5
 404 0 l 5
 485 460 l 5
72 230 m 4
 100 388 221 470 329 470 c 4
 444 470 515 379 489 230 c 4
 463 81 360 -10 245 -10 c 4
 137 -10 44 72 72 230 c 4
254 230 m 4
 243 168 280 126 332 126 c 4
 378 126 433 164 445 230 c 4
 457 296 414 334 368 334 c 4
 316 334 265 292 254 230 c 4
304 651 m 4
 317 723 382 771 457 771 c 4
 532 771 581 723 568 651 c 4
 555 579 490 530 415 530 c 4
 340 530 291 579 304 651 c 4
391 651 m 4
 386 622 403 605 428 605 c 4
 453 605 476 622 481 651 c 4
 486 680 469 698 444 698 c 4
 419 698 396 680 391 651 c 4
EndSplineSet
Substitution2: "alt a" aring.alt
EndChar

StartChar: germandbls
Encoding: 223 223 219
Width: 598
VWidth: 0
Flags: HMW
LayerCount: 2
Fore
SplineSet
154 606 m 1
 315 582 l 1
 212 0 l 1
 48 0 l 1
 154 606 l 1
345 408 m 1
 363 512 l 1
 441 512 463 540 470 580 c 0
 477 622 452 642 402 642 c 0
 350 642 321 618 315 582 c 1
 154 606 l 1
 176 732 300 798 430 798 c 0
 590 798 659 715 640 606 c 0
 619 487 517 408 345 408 c 1
310 146 m 1
 390 146 441 194 453 260 c 0
 462 314 445 356 335 356 c 1
 356 476 l 1
 528 476 648 381 621 225 c 0
 594 69 467 -10 283 -10 c 1
 310 146 l 1
EndSplineSet
EndChar

StartChar: ae
Encoding: 230 230 220
Width: 917
VWidth: 0
Flags: HMW
LayerCount: 2
Fore
SplineSet
220 138 m 0
 215 109 238 98 270 98 c 0
 318 98 366 118 378 188 c 1
 446 130 l 1
 430 41 355 -10 219 -10 c 0
 95 -10 29 41 45 129 c 0
 61 219 151 277 271 277 c 0
 335 277 401 255 419 232 c 1
 405 152 l 1
 378 176 350 188 300 188 c 0
 257 188 225 168 220 138 c 0
174 308 m 1
 138 422 l 1
 201 447 285 474 368 474 c 0
 498 474 524 420 507 322 c 2
 473 130 l 1
 368 130 l 1
 395 281 l 2
 402 318 379 346 329 346 c 0
 263 346 198 320 174 308 c 1
456 194 m 1
 472 283 l 1
 916 283 l 1
 916 194 l 1
 456 194 l 1
744 242 m 2
 758 320 743 360 685 360 c 0
 629 360 590 322 578 252 c 1
 572 230 l 1
 556 140 595 110 645 110 c 0
 695 110 734 128 759 162 c 1
 911 132 l 1
 850 46 766 -10 630 -10 c 0
 448 -10 416 91 441 230 c 0
 444 247 449 263 455 279 c 0
 494 392 591 470 735 470 c 0
 877 470 951 383 925 238 c 0
 924 230 921 212 916 194 c 1
 739 214 l 1
 744 242 l 2
EndSplineSet
EndChar

StartChar: ccedilla
Encoding: 231 231 221
Width: 498
VWidth: 0
Flags: HMW
LayerCount: 2
Fore
SplineSet
249 230 m 0
 237 162 280 124 342 124 c 0
 392 124 445 144 482 188 c 1
 453 26 l 1
 417 4 375 -10 303 -10 c 0
 143 -10 45 82 71 230 c 0
 97 378 227 470 387 470 c 0
 459 470 496 454 525 436 c 1
 497 273 l 1
 475 317 422 336 380 336 c 0
 318 336 259 290 249 230 c 0
233 94 m 1
 358 89 l 1
 213 -68 l 1
 109 -110 l 1
 233 94 l 1
367 -136 m 1
 260 -125 l 1
 265 -98 232 -94 202 -94 c 0
 192 -94 151 -96 109 -110 c 1
 189 -64 l 1
 221 -36 250 -32 288 -32 c 0
 330 -32 380 -65 367 -136 c 1
367 -136 m 1
 354 -212 274 -250 208 -250 c 0
 146 -250 102 -240 55 -210 c 1
 118 -133 l 1
 142 -152 181 -158 199 -158 c 0
 233 -158 256 -149 260 -125 c 1
 367 -136 l 1
EndSplineSet
EndChar

StartChar: egrave
Encoding: 232 232 222
Width: 591
VWidth: 0
Flags: HMW
LayerCount: 2
Fore
SplineSet
130 194 m 1
 146 283 l 1
 590 283 l 1
 590 194 l 1
 130 194 l 1
418 242 m 2
 432 320 417 360 359 360 c 0
 303 360 264 322 252 252 c 1
 246 230 l 1
 230 140 269 110 319 110 c 0
 369 110 408 128 433 162 c 1
 585 132 l 1
 524 46 440 -10 304 -10 c 0
 122 -10 47 91 72 230 c 0
 75 247 78 263 84 279 c 0
 123 392 222 470 382 470 c 0
 552 470 625 383 599 238 c 0
 598 230 595 212 590 194 c 1
 413 214 l 1
 418 242 l 2
260 684 m 1
 398 740 l 1
 520 580 l 1
 414 534 l 1
 260 684 l 1
EndSplineSet
EndChar

StartChar: eacute
Encoding: 233 233 223
Width: 591
VWidth: 0
Flags: HMW
LayerCount: 2
Fore
SplineSet
130 194 m 1
 146 283 l 1
 590 283 l 1
 590 194 l 1
 130 194 l 1
418 242 m 2
 432 320 417 360 359 360 c 0
 303 360 264 322 252 252 c 1
 246 230 l 1
 230 140 269 110 319 110 c 0
 369 110 408 128 433 162 c 1
 585 132 l 1
 524 46 440 -10 304 -10 c 0
 122 -10 47 91 72 230 c 0
 75 247 78 263 84 279 c 0
 123 392 222 470 382 470 c 0
 552 470 625 383 599 238 c 0
 598 230 595 212 590 194 c 1
 413 214 l 1
 418 242 l 2
580 684 m 1
 374 534 l 1
 284 580 l 1
 463 740 l 1
 580 684 l 1
EndSplineSet
EndChar

StartChar: ecircumflex
Encoding: 234 234 224
Width: 591
VWidth: 0
Flags: HMW
LayerCount: 2
Fore
SplineSet
130 194 m 1
 146 283 l 1
 590 283 l 1
 590 194 l 1
 130 194 l 1
418 242 m 2
 432 320 417 360 359 360 c 0
 303 360 264 322 252 252 c 1
 246 230 l 1
 230 140 269 110 319 110 c 0
 369 110 408 128 433 162 c 1
 585 132 l 1
 524 46 440 -10 304 -10 c 0
 122 -10 47 91 72 230 c 0
 75 247 78 263 84 279 c 0
 123 392 222 470 382 470 c 0
 552 470 625 383 599 238 c 0
 598 230 595 212 590 194 c 1
 413 214 l 1
 418 242 l 2
408 614 m 1
 308 530 l 1
 199 612 l 1
 432 752 l 1
 616 612 l 1
 479 530 l 1
 408 614 l 1
EndSplineSet
EndChar

StartChar: edieresis
Encoding: 235 235 225
Width: 586
VWidth: 0
Flags: HMW
LayerCount: 2
Fore
SplineSet
130 194 m 1
 146 286 l 1
 583 286 l 1
 582 194 l 1
 130 194 l 1
423 242 m 2
 436 317 418 354 358 354 c 0
 300 354 259 319 247 252 c 1
 241 230 l 1
 226 145 270 112 324 112 c 0
 370 112 403 128 425 162 c 1
 571 126 l 1
 516 45 434 -10 304 -10 c 0
 132 -10 49 91 74 230 c 0
 77 247 81 264 87 280 c 0
 126 393 232 470 382 470 c 0
 538 470 618 383 592 238 c 0
 591 230 587 212 582 194 c 1
 418 214 l 1
 423 242 l 2
439 620 m 0
 448 674 499 710 553 710 c 0
 607 710 644 674 635 620 c 0
 626 566 576 530 522 530 c 0
 468 530 430 566 439 620 c 0
182 620 m 0
 191 674 242 710 296 710 c 0
 350 710 387 674 378 620 c 0
 369 566 319 530 265 530 c 0
 211 530 173 566 182 620 c 0
EndSplineSet
EndChar

StartChar: igrave
Encoding: 236 236 226
Width: 281
VWidth: 0
Flags: HMW
LayerCount: 2
Fore
SplineSet
138 460 m 1
 305 460 l 1
 224 0 l 1
 56 0 l 1
 138 460 l 1
75 684 m 1
 212 740 l 1
 334 580 l 1
 228 534 l 1
 75 684 l 1
EndSplineSet
EndChar

StartChar: dotlessi
Encoding: 305 305 227
Width: 281
VWidth: 0
Flags: HMW
LayerCount: 2
Fore
SplineSet
137 460 m 1
 305 460 l 1
 224 0 l 1
 56 0 l 1
 137 460 l 1
EndSplineSet
EndChar

StartChar: kgreenlandic
Encoding: 312 312 228
Width: 618
VWidth: 0
Flags: HMW
LayerCount: 2
Fore
SplineSet
135 460 m 1
 300 460 l 1
 219 0 l 1
 54 0 l 1
 135 460 l 1
467 460 m 1
 671 460 l 1
 442 270 l 1
 610 0 l 1
 409 0 l 1
 238 270 l 1
 467 460 l 1
EndSplineSet
EndChar

StartChar: iacute
Encoding: 237 237 229
Width: 281
VWidth: 0
Flags: HMW
LayerCount: 2
Fore
SplineSet
138 460 m 1
 305 460 l 1
 224 0 l 1
 56 0 l 1
 138 460 l 1
437 684 m 1
 230 534 l 1
 140 580 l 1
 319 740 l 1
 437 684 l 1
EndSplineSet
EndChar

StartChar: icircumflex
Encoding: 238 238 230
Width: 281
VWidth: 0
Flags: HMW
LayerCount: 2
Fore
SplineSet
138 460 m 1
 305 460 l 1
 224 0 l 1
 56 0 l 1
 138 460 l 1
249 616 m 1
 148 532 l 1
 39 614 l 1
 273 754 l 1
 457 614 l 1
 319 532 l 1
 249 616 l 1
EndSplineSet
EndChar

StartChar: idieresis
Encoding: 239 239 231
Width: 281
VWidth: 0
Flags: HMW
LayerCount: 2
Fore
SplineSet
138 460 m 1
 305 460 l 1
 224 0 l 1
 56 0 l 1
 138 460 l 1
280 620 m 0
 289 674 340 710 394 710 c 0
 448 710 485 674 476 620 c 0
 467 566 416 530 362 530 c 0
 308 530 271 566 280 620 c 0
23 620 m 0
 32 674 83 710 137 710 c 0
 191 710 228 674 219 620 c 0
 210 566 159 530 105 530 c 0
 51 530 14 566 23 620 c 0
EndSplineSet
EndChar

StartChar: ntilde
Encoding: 241 241 232
Width: 590
VWidth: 0
Flags: HMW
LayerCount: 2
Fore
SplineSet
310 460 m 1
 228 0 l 1
 55 0 l 1
 136 460 l 1
 310 460 l 1
403 280 m 2
 411 328 404 355 359 355 c 0
 317 355 287 330 278 280 c 1
 248 272 l 1
 267 381 332 470 452 470 c 0
 572 470 607 408 588 298 c 2
 536 0 l 1
 354 0 l 1
 403 280 l 2
197 605 m 1
 216 654 268 704 338 704 c 0
 404 704 411 650 468 650 c 0
 496 650 521 672 547 704 c 1
 610 621 l 1
 587 584 518 532 452 532 c 0
 397 532 368 587 317 587 c 0
 280 587 264 551 261 536 c 1
 197 605 l 1
EndSplineSet
EndChar

StartChar: ograve
Encoding: 242 242 233
Width: 602
VWidth: 0
Flags: HMW
LayerCount: 2
Fore
SplineSet
72 230 m 0
 98 378 229 470 384 470 c 0
 539 470 639 378 613 230 c 0
 587 82 455 -10 300 -10 c 0
 145 -10 46 82 72 230 c 0
250 230 m 0
 239 166 274 130 324 130 c 0
 374 130 423 166 434 230 c 0
 445 294 410 331 360 331 c 0
 310 331 261 294 250 230 c 0
262 684 m 1
 400 740 l 1
 521 580 l 1
 416 534 l 1
 262 684 l 1
EndSplineSet
EndChar

StartChar: oacute
Encoding: 243 243 234
Width: 602
VWidth: 0
Flags: HMW
LayerCount: 2
Fore
SplineSet
72 230 m 0
 98 378 229 470 384 470 c 0
 539 470 639 378 613 230 c 0
 587 82 455 -10 300 -10 c 0
 145 -10 46 82 72 230 c 0
250 230 m 0
 239 166 274 130 324 130 c 0
 374 130 423 166 434 230 c 0
 445 294 410 331 360 331 c 0
 310 331 261 294 250 230 c 0
582 684 m 1
 376 534 l 1
 286 580 l 1
 464 740 l 1
 582 684 l 1
EndSplineSet
EndChar

StartChar: ocircumflex
Encoding: 244 244 235
Width: 602
VWidth: 0
Flags: HMW
LayerCount: 2
Fore
SplineSet
72 230 m 0
 98 378 229 470 384 470 c 0
 539 470 639 378 613 230 c 0
 587 82 455 -10 300 -10 c 0
 145 -10 46 82 72 230 c 0
250 230 m 0
 239 166 274 130 324 130 c 0
 374 130 423 166 434 230 c 0
 445 294 410 331 360 331 c 0
 310 331 261 294 250 230 c 0
410 618 m 1
 310 534 l 1
 202 616 l 1
 435 756 l 1
 619 616 l 1
 481 534 l 1
 410 618 l 1
EndSplineSet
EndChar

StartChar: otilde
Encoding: 245 245 236
Width: 602
VWidth: 0
Flags: HMW
LayerCount: 2
Fore
SplineSet
72 230 m 0
 98 378 229 470 384 470 c 0
 539 470 639 378 613 230 c 0
 587 82 455 -10 300 -10 c 0
 145 -10 46 82 72 230 c 0
250 230 m 0
 239 166 274 130 324 130 c 0
 374 130 423 166 434 230 c 0
 445 294 410 331 360 331 c 0
 310 331 261 294 250 230 c 0
202 605 m 1
 221 654 274 704 344 704 c 0
 410 704 418 650 475 650 c 0
 503 650 527 672 553 704 c 1
 616 621 l 1
 593 584 524 532 458 532 c 0
 403 532 374 587 323 587 c 0
 286 587 270 551 267 536 c 1
 202 605 l 1
EndSplineSet
EndChar

StartChar: odieresis
Encoding: 246 246 237
Width: 602
VWidth: 0
Flags: HMW
LayerCount: 2
Fore
SplineSet
72 230 m 0
 98 378 229 470 384 470 c 0
 539 470 639 378 613 230 c 0
 587 82 455 -10 300 -10 c 0
 145 -10 46 82 72 230 c 0
250 230 m 0
 239 166 274 130 324 130 c 0
 374 130 423 166 434 230 c 0
 445 294 410 331 360 331 c 0
 310 331 261 294 250 230 c 0
441 620 m 0
 450 674 501 710 555 710 c 0
 609 710 646 674 637 620 c 0
 628 566 578 530 524 530 c 0
 470 530 432 566 441 620 c 0
184 620 m 0
 193 674 244 710 298 710 c 0
 352 710 389 674 380 620 c 0
 371 566 321 530 267 530 c 0
 213 530 175 566 184 620 c 0
EndSplineSet
EndChar

StartChar: ugrave
Encoding: 249 249 238
Width: 590
VWidth: 0
Flags: HMW
LayerCount: 2
Fore
SplineSet
362 0 m 1
 443 460 l 1
 617 460 l 1
 536 0 l 1
 362 0 l 1
268 180 m 2
 260 132 267 105 312 105 c 0
 354 105 385 130 394 180 c 1
 423 188 l 1
 404 79 339 -10 219 -10 c 0
 99 -10 65 52 84 162 c 2
 136 460 l 1
 318 460 l 1
 268 180 l 2
263 684 m 1
 401 740 l 1
 522 580 l 1
 416 534 l 1
 263 684 l 1
EndSplineSet
EndChar

StartChar: uacute
Encoding: 250 250 239
Width: 590
VWidth: 0
Flags: HMW
LayerCount: 2
Fore
SplineSet
362 0 m 1
 443 460 l 1
 617 460 l 1
 536 0 l 1
 362 0 l 1
268 180 m 2
 260 132 267 105 312 105 c 0
 354 105 385 130 394 180 c 1
 423 188 l 1
 404 79 339 -10 219 -10 c 0
 99 -10 65 52 84 162 c 2
 136 460 l 1
 318 460 l 1
 268 180 l 2
568 684 m 1
 361 534 l 1
 272 580 l 1
 450 740 l 1
 568 684 l 1
EndSplineSet
EndChar

StartChar: ucircumflex
Encoding: 251 251 240
Width: 590
VWidth: 0
Flags: HMW
LayerCount: 2
Fore
SplineSet
362 0 m 1
 443 460 l 1
 617 460 l 1
 536 0 l 1
 362 0 l 1
268 180 m 2
 260 132 267 105 312 105 c 0
 354 105 385 130 394 180 c 1
 423 188 l 1
 404 79 339 -10 219 -10 c 0
 99 -10 65 52 84 162 c 2
 136 460 l 1
 318 460 l 1
 268 180 l 2
403 618 m 1
 303 534 l 1
 195 616 l 1
 428 756 l 1
 612 616 l 1
 474 534 l 1
 403 618 l 1
EndSplineSet
EndChar

StartChar: udieresis
Encoding: 252 252 241
Width: 590
VWidth: 0
Flags: HMW
LayerCount: 2
Fore
SplineSet
362 0 m 1
 443 460 l 1
 617 460 l 1
 536 0 l 1
 362 0 l 1
268 180 m 2
 260 132 267 105 312 105 c 0
 354 105 385 130 394 180 c 1
 421 188 l 1
 402 79 339 -10 219 -10 c 0
 99 -10 65 52 84 162 c 2
 136 460 l 1
 318 460 l 1
 268 180 l 2
435 620 m 0
 444 674 495 710 549 710 c 0
 603 710 640 674 631 620 c 0
 622 566 572 530 518 530 c 0
 464 530 426 566 435 620 c 0
178 620 m 0
 187 674 238 710 292 710 c 0
 346 710 383 674 374 620 c 0
 365 566 315 530 261 530 c 0
 207 530 169 566 178 620 c 0
EndSplineSet
EndChar

StartChar: yacute
Encoding: 253 253 242
Width: 545
VWidth: 0
Flags: HMW
LayerCount: 2
Fore
SplineSet
639 460 m 1
 219 -220 l 1
 48 -220 l 1
 199 28 l 1
 69 460 l 1
 258 460 l 1
 341 88 l 1
 250 88 l 1
 464 460 l 1
 639 460 l 1
564 684 m 1
 358 534 l 1
 268 580 l 1
 446 740 l 1
 564 684 l 1
EndSplineSet
EndChar

StartChar: thorn
Encoding: 254 254 243
Width: 628
VWidth: 0
Flags: HMW
LayerCount: 2
Fore
SplineSet
186 -220 m 1
 16 -220 l 1
 192 780 l 1
 362 780 l 1
 186 -220 l 1
638 230 m 0
 610 73 490 -10 380 -10 c 0
 265 -10 195 81 221 230 c 0
 247 379 349 470 464 470 c 0
 574 470 666 387 638 230 c 0
459 230 m 0
 470 293 434 336 380 336 c 0
 334 336 277 297 265 230 c 0
 253 163 296 124 342 124 c 0
 396 124 448 167 459 230 c 0
EndSplineSet
EndChar

StartChar: ydieresis
Encoding: 255 255 244
Width: 545
VWidth: 0
Flags: HMW
LayerCount: 2
Fore
SplineSet
639 460 m 1
 219 -220 l 1
 48 -220 l 1
 199 28 l 1
 69 460 l 1
 258 460 l 1
 341 88 l 1
 250 88 l 1
 464 460 l 1
 639 460 l 1
412 620 m 0
 421 674 472 710 526 710 c 0
 580 710 617 674 608 620 c 0
 599 566 549 530 495 530 c 0
 441 530 403 566 412 620 c 0
155 620 m 0
 164 674 215 710 269 710 c 0
 323 710 360 674 351 620 c 0
 342 566 292 530 238 530 c 0
 184 530 146 566 155 620 c 0
EndSplineSet
EndChar

StartChar: Amacron
Encoding: 256 256 245
Width: 757
VWidth: 0
Flags: HMW
LayerCount: 2
Fore
SplineSet
215 112 m 1
 247 256 l 1
 606 256 l 1
 585 112 l 1
 215 112 l 1
452 412 m 1
 323 203 l 1
 327 159 l 1
 218 0 l 1
 -4 0 l 1
 511 747 l 1
 760 0 l 1
 540 0 l 1
 487 152 l 1
 507 202 l 1
 452 412 l 1
332 807 m 1
 358 956 l 1
 736 956 l 1
 710 807 l 1
 332 807 l 1
EndSplineSet
EndChar

StartChar: amacron
Encoding: 257 257 246
Width: 630
VWidth: 0
Flags: HMW
LayerCount: 2
Fore
SplineSet
485 460 m 5
 659 460 l 5
 578 0 l 5
 404 0 l 5
 485 460 l 5
72 230 m 4
 100 388 221 470 329 470 c 4
 444 470 515 379 489 230 c 4
 463 81 360 -10 245 -10 c 4
 137 -10 44 72 72 230 c 4
254 230 m 4
 243 168 280 126 332 126 c 4
 378 126 433 164 445 230 c 4
 457 296 414 334 368 334 c 4
 316 334 265 292 254 230 c 4
226 530 m 5
 252 678 l 5
 630 678 l 5
 604 530 l 5
 226 530 l 5
EndSplineSet
Substitution2: "alt a" amacron.alt
EndChar

StartChar: breve
Encoding: 728 728 247
Width: 546
VWidth: 0
Flags: HMW
LayerCount: 2
Fore
SplineSet
256 850 m 1
 364 850 l 1
 357 812 383 795 413 795 c 0
 443 795 474 812 481 850 c 1
 589 850 l 1
 574 764 502 702 397 702 c 0
 292 702 241 764 256 850 c 1
EndSplineSet
EndChar

StartChar: Abreve
Encoding: 258 258 248
Width: 757
VWidth: 0
Flags: HMW
LayerCount: 2
Fore
SplineSet
215 112 m 1
 247 256 l 1
 606 256 l 1
 585 112 l 1
 215 112 l 1
452 412 m 1
 323 203 l 1
 327 159 l 1
 218 0 l 1
 -4 0 l 1
 511 747 l 1
 760 0 l 1
 540 0 l 1
 487 152 l 1
 507 202 l 1
 452 412 l 1
381 955 m 1
 488 955 l 1
 481 917 508 900 538 900 c 0
 568 900 598 917 605 955 c 1
 713 955 l 1
 698 869 626 807 521 807 c 0
 416 807 366 869 381 955 c 1
EndSplineSet
EndChar

StartChar: abreve
Encoding: 259 259 249
Width: 630
VWidth: 0
Flags: HMW
LayerCount: 2
Fore
SplineSet
485 460 m 5
 659 460 l 5
 578 0 l 5
 404 0 l 5
 485 460 l 5
72 230 m 4
 100 388 221 470 329 470 c 4
 444 470 515 379 489 230 c 4
 463 81 360 -10 245 -10 c 4
 137 -10 44 72 72 230 c 4
254 230 m 4
 243 168 280 126 332 126 c 4
 378 126 433 164 445 230 c 4
 457 296 414 334 368 334 c 4
 316 334 265 292 254 230 c 4
270 678 m 5
 378 678 l 5
 371 640 396 624 426 624 c 4
 456 624 488 640 495 678 c 5
 603 678 l 5
 588 592 515 530 410 530 c 4
 305 530 255 592 270 678 c 5
EndSplineSet
Substitution2: "alt a" abreve.alt
EndChar

StartChar: Aogonek
Encoding: 260 260 250
Width: 757
VWidth: 0
Flags: HMW
LayerCount: 2
Fore
SplineSet
215 112 m 1
 247 256 l 1
 606 256 l 1
 585 112 l 1
 215 112 l 1
452 412 m 1
 323 203 l 1
 327 159 l 1
 218 0 l 1
 -4 0 l 1
 511 747 l 1
 760 0 l 1
 540 0 l 1
 487 152 l 1
 507 202 l 1
 452 412 l 1
703 -95 m 1
 723 -170 l 1
 704 -190 672 -210 612 -210 c 0
 552 -210 503 -178 515 -110 c 1
 624 -82 l 1
 620 -104 628 -115 650 -115 c 0
 668 -115 687 -108 703 -95 c 1
624 -82 m 1
 515 -110 l 1
 527 -42 604 0 680 36 c 1
 716 10 l 1
 659 -20 629 -54 624 -82 c 1
EndSplineSet
EndChar

StartChar: aogonek
Encoding: 261 261 251
Width: 630
VWidth: 0
Flags: HMW
LayerCount: 2
Fore
SplineSet
485 460 m 5
 659 460 l 5
 578 0 l 5
 404 0 l 5
 485 460 l 5
72 230 m 4
 100 388 221 470 329 470 c 4
 444 470 515 379 489 230 c 4
 463 81 360 -10 245 -10 c 4
 137 -10 44 72 72 230 c 4
254 230 m 4
 243 168 280 126 332 126 c 4
 378 126 433 164 445 230 c 4
 457 296 414 334 368 334 c 4
 316 334 265 292 254 230 c 4
519 -106 m 5
 539 -180 l 5
 520 -200 487 -220 427 -220 c 4
 367 -220 318 -188 330 -120 c 5
 439 -92 l 5
 435 -114 443 -126 465 -126 c 4
 483 -126 503 -119 519 -106 c 5
439 -92 m 5
 330 -120 l 5
 342 -52 420 -11 496 25 c 5
 532 0 l 5
 475 -30 444 -64 439 -92 c 5
EndSplineSet
Substitution2: "alt a" aogonek.alt
EndChar

StartChar: Cacute
Encoding: 262 262 252
Width: 705
VWidth: 0
Flags: HMW
LayerCount: 2
Fore
SplineSet
307 350 m 0
 286 232 363 166 469 166 c 0
 568 166 636 210 689 256 c 1
 652 50 l 1
 589 10 525 -18 423 -18 c 0
 189 -18 55 129 94 350 c 0
 133 571 319 718 553 718 c 0
 655 718 710 690 758 650 c 1
 722 444 l 1
 685 490 633 534 534 534 c 0
 428 534 328 468 307 350 c 0
720 928 m 1
 514 778 l 1
 424 824 l 1
 602 984 l 1
 720 928 l 1
EndSplineSet
EndChar

StartChar: cacute
Encoding: 263 263 253
Width: 498
VWidth: 0
Flags: HMW
LayerCount: 2
Fore
SplineSet
249 230 m 0
 237 162 280 124 342 124 c 0
 392 124 445 144 482 188 c 1
 453 26 l 1
 417 4 375 -10 303 -10 c 0
 143 -10 45 82 71 230 c 0
 97 378 227 470 387 470 c 0
 459 470 496 454 525 436 c 1
 497 273 l 1
 475 317 422 336 380 336 c 0
 318 336 259 290 249 230 c 0
554 680 m 1
 348 530 l 1
 258 577 l 1
 436 737 l 1
 554 680 l 1
EndSplineSet
EndChar

StartChar: Ccircumflex
Encoding: 264 264 254
Width: 705
VWidth: 0
Flags: HMW
LayerCount: 2
Fore
SplineSet
307 350 m 0
 286 232 363 166 469 166 c 0
 568 166 636 210 689 256 c 1
 652 50 l 1
 589 10 525 -18 423 -18 c 0
 189 -18 55 129 94 350 c 0
 133 571 319 718 553 718 c 0
 655 718 710 690 758 650 c 1
 722 444 l 1
 685 490 633 534 534 534 c 0
 428 534 328 468 307 350 c 0
578 861 m 1
 478 778 l 1
 369 859 l 1
 603 999 l 1
 787 859 l 1
 650 778 l 1
 578 861 l 1
EndSplineSet
EndChar

StartChar: ccircumflex
Encoding: 265 265 255
Width: 498
VWidth: 0
Flags: HMW
LayerCount: 2
Fore
SplineSet
249 230 m 0
 237 162 280 124 342 124 c 0
 392 124 445 144 482 188 c 1
 453 26 l 1
 417 4 375 -10 303 -10 c 0
 143 -10 45 82 71 230 c 0
 97 378 227 470 387 470 c 0
 459 470 496 454 525 436 c 1
 497 273 l 1
 475 317 422 336 380 336 c 0
 318 336 259 290 249 230 c 0
372 614 m 1
 272 530 l 1
 163 612 l 1
 397 752 l 1
 580 612 l 1
 443 530 l 1
 372 614 l 1
EndSplineSet
EndChar

StartChar: Cdotaccent
Encoding: 266 266 256
Width: 705
VWidth: 0
Flags: HMW
LayerCount: 2
Fore
SplineSet
307 350 m 0
 286 232 363 166 469 166 c 0
 568 166 636 210 689 256 c 1
 652 50 l 1
 589 10 525 -18 423 -18 c 0
 189 -18 55 129 94 350 c 0
 133 571 319 718 553 718 c 0
 655 718 710 690 758 650 c 1
 722 444 l 1
 685 490 633 534 534 534 c 0
 428 534 328 468 307 350 c 0
447 868 m 0
 456 922 506 958 560 958 c 0
 614 958 652 922 643 868 c 0
 634 814 583 778 529 778 c 0
 475 778 438 814 447 868 c 0
EndSplineSet
EndChar

StartChar: cdotaccent
Encoding: 267 267 257
Width: 498
VWidth: 0
Flags: HMW
LayerCount: 2
Fore
SplineSet
249 230 m 0
 237 162 280 124 342 124 c 0
 392 124 445 144 482 188 c 1
 453 26 l 1
 417 4 375 -10 303 -10 c 0
 143 -10 45 82 71 230 c 0
 97 378 227 470 387 470 c 0
 459 470 496 454 525 436 c 1
 497 273 l 1
 475 317 422 336 380 336 c 0
 318 336 259 290 249 230 c 0
282 626 m 0
 291 680 342 716 396 716 c 0
 450 716 487 680 478 626 c 0
 469 572 418 536 364 536 c 0
 310 536 273 572 282 626 c 0
EndSplineSet
EndChar

StartChar: Ccaron
Encoding: 268 268 258
Width: 705
VWidth: 0
Flags: HMW
LayerCount: 2
Fore
SplineSet
307 350 m 0
 286 232 363 166 469 166 c 0
 568 166 636 210 689 256 c 1
 652 50 l 1
 589 10 525 -18 423 -18 c 0
 189 -18 55 129 94 350 c 0
 133 571 319 718 553 718 c 0
 655 718 710 690 758 650 c 1
 722 444 l 1
 685 490 633 534 534 534 c 0
 428 534 328 468 307 350 c 0
588 916 m 1
 689 999 l 1
 797 918 l 1
 564 778 l 1
 379 918 l 1
 517 999 l 1
 588 916 l 1
EndSplineSet
EndChar

StartChar: ccaron
Encoding: 269 269 259
Width: 498
VWidth: 0
Flags: HMW
LayerCount: 2
Fore
SplineSet
249 230 m 0
 237 162 280 124 342 124 c 0
 392 124 445 144 482 188 c 1
 453 26 l 1
 417 4 375 -10 303 -10 c 0
 143 -10 45 82 71 230 c 0
 97 378 227 470 387 470 c 0
 459 470 496 454 525 436 c 1
 497 273 l 1
 475 317 422 336 380 336 c 0
 318 336 259 290 249 230 c 0
382 668 m 1
 482 752 l 1
 591 670 l 1
 358 530 l 1
 174 670 l 1
 311 752 l 1
 382 668 l 1
EndSplineSet
EndChar

StartChar: Dcaron
Encoding: 270 270 260
Width: 749
VWidth: 0
Flags: HMW
LayerCount: 2
Fore
SplineSet
297 530 m 1
 327 700 l 1
 458 700 l 2
 694 700 817 568 779 350 c 1
 576 350 l 1
 602 496 513 530 420 530 c 2
 297 530 l 1
334 0 m 2
 204 0 l 1
 234 170 l 1
 356 170 l 2
 449 170 550 204 576 350 c 1
 779 350 l 1
 741 132 570 0 334 0 c 2
195 700 m 1
 397 700 l 1
 274 0 l 1
 72 0 l 1
 195 700 l 1
545 916 m 1
 645 999 l 1
 753 918 l 1
 520 778 l 1
 336 918 l 1
 473 999 l 1
 545 916 l 1
EndSplineSet
EndChar

StartChar: dcaron
Encoding: 271 271 261
Width: 630
VWidth: 0
Flags: HMW
LayerCount: 2
Fore
SplineSet
542 780 m 1
 715 780 l 1
 578 0 l 1
 404 0 l 1
 542 780 l 1
72 230 m 0
 100 388 221 470 329 470 c 0
 444 470 515 379 489 230 c 0
 463 81 360 -10 245 -10 c 0
 137 -10 44 72 72 230 c 0
254 230 m 0
 243 168 280 126 332 126 c 0
 378 126 433 164 445 230 c 0
 457 296 414 334 368 334 c 0
 316 334 265 292 254 230 c 0
833 780 m 1
 1000 747 l 1
 826 497 l 1
 699 521 l 1
 833 780 l 1
EndSplineSet
EndChar

StartChar: Dcroat
Encoding: 272 272 262
Width: 749
VWidth: 0
Flags: HMW
LayerCount: 2
Fore
SplineSet
297 530 m 1
 327 700 l 1
 458 700 l 2
 694 700 817 568 779 350 c 1
 576 350 l 1
 602 496 513 530 420 530 c 2
 297 530 l 1
334 0 m 2
 204 0 l 1
 234 170 l 1
 356 170 l 2
 449 170 550 204 576 350 c 1
 779 350 l 1
 741 132 570 0 334 0 c 2
195 700 m 1
 397 700 l 1
 274 0 l 1
 72 0 l 1
 195 700 l 1
57 294 m 1
 76 402 l 1
 432 402 l 1
 413 294 l 1
 57 294 l 1
EndSplineSet
EndChar

StartChar: dcroat
Encoding: 273 273 263
Width: 630
VWidth: 0
Flags: HMW
LayerCount: 2
Fore
SplineSet
393 558 m 1
 412 665 l 1
 786 665 l 1
 767 558 l 1
 393 558 l 1
542 780 m 1
 715 780 l 1
 578 0 l 1
 404 0 l 1
 542 780 l 1
72 230 m 0
 100 388 221 470 329 470 c 0
 444 470 515 379 489 230 c 0
 463 81 360 -10 245 -10 c 0
 137 -10 44 72 72 230 c 0
254 230 m 0
 243 168 280 126 332 126 c 0
 378 126 433 164 445 230 c 0
 457 296 414 334 368 334 c 0
 316 334 265 292 254 230 c 0
EndSplineSet
EndChar

StartChar: Emacron
Encoding: 274 274 264
Width: 619
VWidth: 0
Flags: HMW
LayerCount: 2
Fore
SplineSet
204 0 m 1
 232 158 l 1
 585 158 l 1
 558 0 l 1
 204 0 l 1
300 542 m 1
 327 700 l 1
 681 700 l 1
 653 542 l 1
 300 542 l 1
255 288 m 1
 282 440 l 1
 615 440 l 1
 588 288 l 1
 255 288 l 1
195 700 m 1
 382 700 l 1
 258 0 l 1
 72 0 l 1
 195 700 l 1
262 778 m 1
 288 926 l 1
 667 926 l 1
 641 778 l 1
 262 778 l 1
EndSplineSet
EndChar

StartChar: emacron
Encoding: 275 275 265
Width: 591
VWidth: 0
Flags: HMW
LayerCount: 2
Fore
SplineSet
130 194 m 1
 146 283 l 1
 590 283 l 1
 590 194 l 1
 130 194 l 1
418 242 m 2
 432 320 417 360 359 360 c 0
 303 360 264 322 252 252 c 1
 246 230 l 1
 230 140 269 110 319 110 c 0
 369 110 408 128 433 162 c 1
 585 132 l 1
 524 46 440 -10 304 -10 c 0
 122 -10 47 91 72 230 c 0
 75 247 78 263 84 279 c 0
 123 392 222 470 382 470 c 0
 552 470 625 383 599 238 c 0
 598 230 595 212 590 194 c 1
 413 214 l 1
 418 242 l 2
205 530 m 1
 231 679 l 1
 608 679 l 1
 582 530 l 1
 205 530 l 1
EndSplineSet
EndChar

StartChar: Ebreve
Encoding: 276 276 266
Width: 619
VWidth: 0
Flags: HMW
LayerCount: 2
Fore
SplineSet
204 0 m 1
 232 158 l 1
 585 158 l 1
 558 0 l 1
 204 0 l 1
300 542 m 1
 327 700 l 1
 681 700 l 1
 653 542 l 1
 300 542 l 1
255 288 m 1
 282 440 l 1
 615 440 l 1
 588 288 l 1
 255 288 l 1
195 700 m 1
 382 700 l 1
 258 0 l 1
 72 0 l 1
 195 700 l 1
311 926 m 1
 419 926 l 1
 412 888 438 872 468 872 c 0
 498 872 529 888 536 926 c 1
 643 926 l 1
 628 840 556 778 451 778 c 0
 346 778 296 840 311 926 c 1
EndSplineSet
EndChar

StartChar: ebreve
Encoding: 277 277 267
Width: 591
VWidth: 0
Flags: HMW
LayerCount: 2
Fore
SplineSet
130 194 m 1
 146 283 l 1
 590 283 l 1
 590 194 l 1
 130 194 l 1
418 242 m 2
 432 320 417 360 359 360 c 0
 303 360 264 322 252 252 c 1
 246 230 l 1
 230 140 269 110 319 110 c 0
 369 110 408 128 433 162 c 1
 585 132 l 1
 524 46 440 -10 304 -10 c 0
 122 -10 47 91 72 230 c 0
 75 247 78 263 84 279 c 0
 123 392 222 470 382 470 c 0
 552 470 625 383 599 238 c 0
 598 230 595 212 590 194 c 1
 413 214 l 1
 418 242 l 2
253 679 m 1
 361 679 l 1
 354 641 380 624 410 624 c 0
 440 624 471 641 478 679 c 1
 586 679 l 1
 571 593 498 530 393 530 c 0
 288 530 238 593 253 679 c 1
EndSplineSet
EndChar

StartChar: Edotaccent
Encoding: 278 278 268
Width: 619
VWidth: 0
Flags: HMW
LayerCount: 2
Fore
SplineSet
204 0 m 1
 232 158 l 1
 585 158 l 1
 558 0 l 1
 204 0 l 1
300 542 m 1
 327 700 l 1
 681 700 l 1
 653 542 l 1
 300 542 l 1
255 288 m 1
 282 440 l 1
 615 440 l 1
 588 288 l 1
 255 288 l 1
195 700 m 1
 382 700 l 1
 258 0 l 1
 72 0 l 1
 195 700 l 1
370 868 m 0
 379 922 429 958 483 958 c 0
 537 958 575 922 566 868 c 0
 557 814 506 778 452 778 c 0
 398 778 361 814 370 868 c 0
EndSplineSet
EndChar

StartChar: edotaccent
Encoding: 279 279 269
Width: 586
VWidth: 0
Flags: HMW
LayerCount: 2
Fore
SplineSet
130 194 m 1
 146 286 l 1
 583 286 l 1
 582 194 l 1
 130 194 l 1
423 242 m 2
 436 317 418 354 358 354 c 0
 300 354 259 319 247 252 c 1
 241 230 l 1
 226 145 270 112 324 112 c 0
 370 112 403 128 425 162 c 1
 571 126 l 1
 516 45 434 -10 304 -10 c 0
 132 -10 49 91 74 230 c 0
 77 247 81 264 87 280 c 0
 126 393 232 470 382 470 c 0
 538 470 618 383 592 238 c 0
 591 230 587 212 582 194 c 1
 418 214 l 1
 423 242 l 2
311 620 m 0
 320 674 371 710 425 710 c 0
 479 710 516 674 507 620 c 0
 498 566 447 530 393 530 c 0
 339 530 302 566 311 620 c 0
EndSplineSet
EndChar

StartChar: Eogonek
Encoding: 280 280 270
Width: 619
VWidth: 0
Flags: HMW
LayerCount: 2
Fore
SplineSet
204 0 m 1
 232 158 l 1
 585 158 l 1
 558 0 l 1
 204 0 l 1
300 542 m 1
 327 700 l 1
 681 700 l 1
 653 542 l 1
 300 542 l 1
255 288 m 1
 282 440 l 1
 615 440 l 1
 588 288 l 1
 255 288 l 1
195 700 m 1
 382 700 l 1
 258 0 l 1
 72 0 l 1
 195 700 l 1
509 -104 m 1
 529 -178 l 1
 510 -198 478 -218 418 -218 c 0
 358 -218 308 -186 320 -118 c 1
 429 -90 l 1
 425 -112 433 -124 455 -124 c 0
 473 -124 493 -117 509 -104 c 1
429 -90 m 1
 320 -118 l 1
 332 -50 410 -9 486 27 c 1
 523 2 l 1
 466 -28 434 -62 429 -90 c 1
EndSplineSet
EndChar

StartChar: eogonek
Encoding: 281 281 271
Width: 591
VWidth: 0
Flags: HMW
LayerCount: 2
Fore
SplineSet
130 194 m 1
 146 283 l 1
 590 283 l 1
 590 194 l 1
 130 194 l 1
418 242 m 2
 432 320 417 360 359 360 c 0
 303 360 264 322 252 252 c 1
 246 230 l 1
 230 140 269 110 319 110 c 0
 369 110 408 128 433 162 c 1
 585 132 l 1
 524 46 440 -10 304 -10 c 0
 122 -10 47 91 72 230 c 0
 75 247 78 263 84 279 c 0
 123 392 222 470 382 470 c 0
 552 470 625 383 599 238 c 0
 598 230 595 212 590 194 c 1
 413 214 l 1
 418 242 l 2
324 -112 m 1
 344 -186 l 1
 325 -206 293 -226 233 -226 c 0
 173 -226 123 -194 135 -126 c 1
 245 -98 l 1
 241 -120 249 -132 271 -132 c 0
 289 -132 308 -125 324 -112 c 1
245 -98 m 1
 135 -126 l 1
 147 -58 225 -17 301 19 c 1
 337 -6 l 1
 280 -36 250 -70 245 -98 c 1
EndSplineSet
EndChar

StartChar: Ecaron
Encoding: 282 282 272
Width: 619
VWidth: 0
Flags: HMW
LayerCount: 2
Fore
SplineSet
204 0 m 1
 232 158 l 1
 585 158 l 1
 558 0 l 1
 204 0 l 1
300 542 m 1
 327 700 l 1
 681 700 l 1
 653 542 l 1
 300 542 l 1
255 288 m 1
 282 440 l 1
 615 440 l 1
 588 288 l 1
 255 288 l 1
195 700 m 1
 382 700 l 1
 258 0 l 1
 72 0 l 1
 195 700 l 1
476 916 m 1
 576 999 l 1
 685 918 l 1
 451 778 l 1
 267 918 l 1
 405 999 l 1
 476 916 l 1
EndSplineSet
EndChar

StartChar: ecaron
Encoding: 283 283 273
Width: 591
VWidth: 0
Flags: HMW
LayerCount: 2
Fore
SplineSet
130 194 m 1
 146 283 l 1
 590 283 l 1
 590 194 l 1
 130 194 l 1
418 242 m 2
 432 320 417 360 359 360 c 0
 303 360 264 322 252 252 c 1
 246 230 l 1
 230 140 269 110 319 110 c 0
 369 110 408 128 433 162 c 1
 585 132 l 1
 524 46 440 -10 304 -10 c 0
 122 -10 47 91 72 230 c 0
 75 247 78 263 84 279 c 0
 123 392 222 470 382 470 c 0
 552 470 625 383 599 238 c 0
 598 230 595 212 590 194 c 1
 413 214 l 1
 418 242 l 2
417 668 m 1
 518 752 l 1
 626 670 l 1
 393 530 l 1
 209 670 l 1
 347 752 l 1
 417 668 l 1
EndSplineSet
EndChar

StartChar: Gcircumflex
Encoding: 284 284 274
Width: 826
VWidth: 0
Flags: HMW
LayerCount: 2
Fore
SplineSet
468 246 m 1
 494 392 l 1
 858 392 l 1
 732 246 l 1
 468 246 l 1
858 392 m 1
 833 162 665 -26 419 -26 c 0
 191 -26 54 124 94 350 c 0
 134 576 330 718 558 718 c 0
 712 718 800 644 851 547 c 1
 658 462 l 1
 639 512 603 552 529 552 c 0
 421 552 320 480 297 350 c 0
 274 220 340 140 456 140 c 0
 608 140 663 256 687 390 c 1
 858 392 l 1
583 861 m 1
 483 778 l 1
 374 859 l 1
 608 999 l 1
 791 859 l 1
 654 778 l 1
 583 861 l 1
EndSplineSet
EndChar

StartChar: gcircumflex
Encoding: 285 285 275
Width: 622
VWidth: 0
Flags: HMW
LayerCount: 2
Fore
SplineSet
490 238 m 1
 446 238 l 1
 458 304 414 334 368 334 c 0
 316 334 266 300 255 238 c 1
 73 238 l 1
 101 396 221 470 329 470 c 0
 444 470 516 387 490 238 c 1
446 238 m 1
 490 238 l 1
 464 89 363 6 248 6 c 0
 140 6 45 80 73 238 c 1
 255 238 l 1
 244 176 283 142 335 142 c 0
 381 142 434 172 446 238 c 1
35 -34 m 1
 202 -34 l 1
 199 -88 231 -106 281 -106 c 0
 343 -106 393 -66 406 10 c 2
 485 460 l 1
 650 460 l 1
 571 10 l 2
 539 -174 413 -242 265 -242 c 0
 81 -242 28 -157 35 -34 c 1
428 614 m 1
 328 530 l 1
 219 612 l 1
 452 752 l 1
 636 612 l 1
 499 530 l 1
 428 614 l 1
EndSplineSet
EndChar

StartChar: Gbreve
Encoding: 286 286 276
Width: 826
VWidth: 0
Flags: HMW
LayerCount: 2
Fore
SplineSet
468 246 m 1
 494 392 l 1
 858 392 l 1
 732 246 l 1
 468 246 l 1
858 392 m 1
 833 162 665 -26 419 -26 c 0
 191 -26 54 124 94 350 c 0
 134 576 330 718 558 718 c 0
 712 718 800 644 851 547 c 1
 658 462 l 1
 639 512 603 552 529 552 c 0
 421 552 320 480 297 350 c 0
 274 220 340 140 456 140 c 0
 608 140 663 256 687 390 c 1
 858 392 l 1
429 926 m 1
 536 926 l 1
 529 888 555 872 585 872 c 0
 615 872 646 888 653 926 c 1
 761 926 l 1
 746 840 674 778 569 778 c 0
 464 778 414 840 429 926 c 1
EndSplineSet
EndChar

StartChar: gbreve
Encoding: 287 287 277
Width: 622
VWidth: 0
Flags: HMW
LayerCount: 2
Fore
SplineSet
490 238 m 1
 446 238 l 1
 458 304 414 334 368 334 c 0
 316 334 266 300 255 238 c 1
 73 238 l 1
 101 396 221 470 329 470 c 0
 444 470 516 387 490 238 c 1
446 238 m 1
 490 238 l 1
 464 89 363 6 248 6 c 0
 140 6 45 80 73 238 c 1
 255 238 l 1
 244 176 283 142 335 142 c 0
 381 142 434 172 446 238 c 1
35 -34 m 1
 202 -34 l 1
 199 -88 231 -106 281 -106 c 0
 343 -106 393 -66 406 10 c 2
 485 460 l 1
 650 460 l 1
 571 10 l 2
 539 -174 413 -242 265 -242 c 0
 81 -242 28 -157 35 -34 c 1
281 679 m 1
 389 679 l 1
 382 641 408 624 438 624 c 0
 468 624 499 641 506 679 c 1
 614 679 l 1
 599 593 527 530 422 530 c 0
 317 530 266 593 281 679 c 1
EndSplineSet
EndChar

StartChar: Gdotaccent
Encoding: 288 288 278
Width: 826
VWidth: 0
Flags: HMW
LayerCount: 2
Fore
SplineSet
468 246 m 1
 494 392 l 1
 858 392 l 1
 732 246 l 1
 468 246 l 1
858 392 m 1
 833 162 665 -26 419 -26 c 0
 191 -26 54 124 94 350 c 0
 134 576 330 718 558 718 c 0
 712 718 800 644 851 547 c 1
 658 462 l 1
 639 512 603 552 529 552 c 0
 421 552 320 480 297 350 c 0
 274 220 340 140 456 140 c 0
 608 140 663 256 687 390 c 1
 858 392 l 1
487 868 m 0
 496 922 546 958 600 958 c 0
 654 958 692 922 683 868 c 0
 674 814 623 778 569 778 c 0
 515 778 478 814 487 868 c 0
EndSplineSet
EndChar

StartChar: gdotaccent
Encoding: 289 289 279
Width: 622
VWidth: 0
Flags: HMW
LayerCount: 2
Fore
SplineSet
35 -34 m 5
 202 -34 l 5
 198 -88 231 -106 281 -106 c 4
 343 -106 393 -66 406 10 c 6
 485 460 l 5
 650 460 l 5
 571 10 l 6
 539 -174 413 -242 265 -242 c 4
 81 -242 27 -157 35 -34 c 5
73 238 m 4
 101 396 221 470 329 470 c 4
 444 470 516 387 490 238 c 4
 464 89 362 6 247 6 c 4
 139 6 45 80 73 238 c 4
256 238 m 4
 245 176 283 142 335 142 c 4
 381 142 434 172 446 238 c 4
 458 304 415 334 369 334 c 4
 317 334 267 300 256 238 c 4
349 630 m 4
 358 684 409 720 463 720 c 4
 517 720 554 684 545 630 c 4
 536 576 485 540 431 540 c 4
 377 540 340 576 349 630 c 4
EndSplineSet
EndChar

StartChar: uni0122
Encoding: 290 290 280
Width: 826
VWidth: 0
Flags: HMW
LayerCount: 2
Fore
SplineSet
468 246 m 1
 494 392 l 1
 857 392 l 1
 732 246 l 1
 468 246 l 1
857 392 m 1
 832 162 665 -26 419 -26 c 0
 191 -26 54 124 94 350 c 0
 134 576 331 718 559 718 c 0
 713 718 800 644 851 547 c 1
 658 462 l 1
 639 512 603 552 529 552 c 0
 421 552 321 480 298 350 c 0
 275 220 341 140 457 140 c 0
 609 140 663 256 687 390 c 1
 857 392 l 1
325 -86 m 1
 493 -120 l 1
 318 -370 l 1
 191 -346 l 1
 325 -86 l 1
EndSplineSet
EndChar

StartChar: Hcircumflex
Encoding: 292 292 281
Width: 808
VWidth: 0
Flags: HMW
LayerCount: 2
Fore
SplineSet
167 279 m 1
 198 452 l 1
 744 452 l 1
 713 279 l 1
 167 279 l 1
665 700 m 1
 859 700 l 1
 736 0 l 1
 542 0 l 1
 665 700 l 1
195 700 m 1
 389 700 l 1
 266 0 l 1
 72 0 l 1
 195 700 l 1
556 861 m 1
 455 778 l 1
 347 859 l 1
 580 999 l 1
 764 859 l 1
 627 778 l 1
 556 861 l 1
EndSplineSet
EndChar

StartChar: hcircumflex
Encoding: 293 293 282
Width: 581
VWidth: 0
Flags: HMW
LayerCount: 2
Fore
SplineSet
366 780 m 1
 228 0 l 1
 55 0 l 1
 193 780 l 1
 366 780 l 1
403 280 m 2
 411 328 404 355 359 355 c 0
 317 355 286 330 277 280 c 1
 249 280 l 1
 268 389 334 479 454 479 c 0
 574 479 601 416 582 306 c 2
 528 0 l 1
 354 0 l 1
 403 280 l 2
428 923 m 1
 328 840 l 1
 218 920 l 1
 452 1060 l 1
 636 920 l 1
 498 840 l 1
 428 923 l 1
EndSplineSet
EndChar

StartChar: Itilde
Encoding: 296 296 283
Width: 342
VWidth: 0
Flags: HMW
LayerCount: 2
Fore
SplineSet
195 700 m 1
 393 700 l 1
 270 0 l 1
 72 0 l 1
 195 700 l 1
116 852 m 1
 135 901 188 950 258 950 c 0
 324 950 331 897 388 897 c 0
 416 897 441 920 467 952 c 1
 531 868 l 1
 508 831 437 779 371 779 c 0
 316 779 288 834 237 834 c 0
 200 834 184 798 181 783 c 1
 116 852 l 1
EndSplineSet
EndChar

StartChar: itilde
Encoding: 297 297 284
Width: 281
VWidth: 0
Flags: HMW
LayerCount: 2
Fore
SplineSet
137 460 m 1
 305 460 l 1
 224 0 l 1
 56 0 l 1
 137 460 l 1
42 605 m 1
 61 654 112 704 182 704 c 0
 248 704 257 650 314 650 c 0
 342 650 366 672 392 704 c 1
 455 621 l 1
 432 584 363 532 297 532 c 0
 242 532 213 587 162 587 c 0
 125 587 110 551 107 536 c 1
 42 605 l 1
EndSplineSet
EndChar

StartChar: Imacron
Encoding: 298 298 285
Width: 342
VWidth: 0
Flags: HMW
LayerCount: 2
Fore
SplineSet
195 700 m 1
 393 700 l 1
 270 0 l 1
 72 0 l 1
 195 700 l 1
119 778 m 1
 145 926 l 1
 523 926 l 1
 497 778 l 1
 119 778 l 1
EndSplineSet
EndChar

StartChar: imacron
Encoding: 299 299 286
Width: 281
VWidth: 0
Flags: HMW
LayerCount: 2
Fore
SplineSet
137 460 m 1
 305 460 l 1
 224 0 l 1
 56 0 l 1
 137 460 l 1
44 530 m 1
 71 679 l 1
 450 679 l 1
 423 530 l 1
 44 530 l 1
EndSplineSet
EndChar

StartChar: Ibreve
Encoding: 300 300 287
Width: 342
VWidth: 0
Flags: HMW
LayerCount: 2
Fore
SplineSet
195 700 m 1
 393 700 l 1
 270 0 l 1
 72 0 l 1
 195 700 l 1
168 926 m 1
 275 926 l 1
 268 888 295 872 325 872 c 0
 355 872 386 888 393 926 c 1
 500 926 l 1
 485 840 413 778 308 778 c 0
 203 778 153 840 168 926 c 1
EndSplineSet
EndChar

StartChar: ibreve
Encoding: 301 301 288
Width: 281
VWidth: 0
Flags: HMW
LayerCount: 2
Fore
SplineSet
137 460 m 1
 305 460 l 1
 224 0 l 1
 56 0 l 1
 137 460 l 1
94 679 m 1
 201 679 l 1
 194 641 220 624 250 624 c 0
 280 624 311 641 318 679 c 1
 426 679 l 1
 411 593 338 530 233 530 c 0
 128 530 79 593 94 679 c 1
EndSplineSet
EndChar

StartChar: Iogonek
Encoding: 302 302 289
Width: 342
VWidth: 0
Flags: HMW
LayerCount: 2
Fore
SplineSet
195 700 m 1
 393 700 l 1
 270 0 l 1
 72 0 l 1
 195 700 l 1
222 -106 m 1
 243 -180 l 1
 224 -200 192 -220 132 -220 c 0
 72 -220 22 -188 34 -120 c 1
 144 -92 l 1
 140 -114 147 -126 169 -126 c 0
 187 -126 206 -119 222 -106 c 1
144 -92 m 1
 34 -120 l 1
 46 -52 123 -12 199 24 c 1
 237 0 l 1
 180 -30 149 -64 144 -92 c 1
EndSplineSet
EndChar

StartChar: iogonek
Encoding: 303 303 290
Width: 281
VWidth: 0
Flags: HMW
LayerCount: 2
Fore
SplineSet
153 627 m 0
 162 681 213 717 267 717 c 0
 321 717 358 681 349 627 c 0
 340 573 289 537 235 537 c 0
 181 537 144 573 153 627 c 0
138 460 m 1
 305 460 l 1
 224 0 l 1
 56 0 l 1
 138 460 l 1
191 -106 m 1
 212 -180 l 1
 193 -200 161 -220 101 -220 c 0
 41 -220 -9 -188 3 -120 c 1
 112 -92 l 1
 108 -114 116 -126 138 -126 c 0
 156 -126 175 -119 191 -106 c 1
112 -92 m 1
 3 -120 l 1
 15 -52 92 -12 168 24 c 1
 206 -0 l 1
 149 -30 117 -64 112 -92 c 1
EndSplineSet
EndChar

StartChar: Idotaccent
Encoding: 304 304 291
Width: 342
VWidth: 0
Flags: HMW
LayerCount: 2
Fore
SplineSet
195 700 m 1
 394 700 l 1
 270 0 l 1
 72 0 l 1
 195 700 l 1
226 868 m 0
 235 922 286 958 340 958 c 0
 394 958 431 922 422 868 c 0
 413 814 362 778 308 778 c 0
 254 778 217 814 226 868 c 0
EndSplineSet
EndChar

StartChar: uni0136
Encoding: 310 310 292
Width: 740
VWidth: 0
Flags: HMW
LayerCount: 2
Fore
SplineSet
195 700 m 1
 398 700 l 1
 275 0 l 1
 72 0 l 1
 195 700 l 1
624 700 m 1
 851 700 l 1
 516 372 l 1
 744 0 l 1
 508 0 l 1
 283 366 l 1
 624 700 l 1
321 -60 m 1
 490 -93 l 1
 315 -343 l 1
 188 -319 l 1
 321 -60 l 1
EndSplineSet
EndChar

StartChar: uni0137
Encoding: 311 311 293
Width: 618
VWidth: 0
Flags: HMW
LayerCount: 2
Fore
SplineSet
192 780 m 1
 357 780 l 1
 219 0 l 1
 54 0 l 1
 192 780 l 1
467 460 m 1
 671 460 l 1
 442 270 l 1
 610 0 l 1
 409 0 l 1
 238 270 l 1
 467 460 l 1
245 -60 m 1
 415 -93 l 1
 240 -343 l 1
 112 -319 l 1
 245 -60 l 1
EndSplineSet
EndChar

StartChar: Lacute
Encoding: 313 313 294
Width: 551
VWidth: 0
Flags: HMW
LayerCount: 2
Fore
SplineSet
204 0 m 1
 233 166 l 1
 579 166 l 1
 550 0 l 1
 204 0 l 1
195 700 m 1
 389 700 l 1
 266 0 l 1
 72 0 l 1
 195 700 l 1
645 928 m 1
 438 778 l 1
 348 824 l 1
 527 984 l 1
 645 928 l 1
EndSplineSet
EndChar

StartChar: lacute
Encoding: 314 314 295
Width: 282
VWidth: 0
Flags: HMW
LayerCount: 2
Fore
SplineSet
193 780 m 1
 366 780 l 1
 228 0 l 1
 55 0 l 1
 193 780 l 1
487 990 m 1
 280 840 l 1
 190 886 l 1
 368 1046 l 1
 487 990 l 1
EndSplineSet
EndChar

StartChar: uni013B
Encoding: 315 315 296
Width: 551
VWidth: 0
Flags: HMW
LayerCount: 2
Fore
SplineSet
204 0 m 1
 233 166 l 1
 579 166 l 1
 550 0 l 1
 204 0 l 1
195 700 m 1
 389 700 l 1
 266 0 l 1
 72 0 l 1
 195 700 l 1
257 -60 m 1
 426 -93 l 1
 252 -343 l 1
 124 -319 l 1
 257 -60 l 1
EndSplineSet
EndChar

StartChar: uni013C
Encoding: 316 316 297
Width: 282
VWidth: 0
Flags: HMW
LayerCount: 2
Fore
SplineSet
193 780 m 1
 366 780 l 1
 228 0 l 1
 55 0 l 1
 193 780 l 1
88 -60 m 1
 256 -93 l 1
 82 -343 l 1
 -45 -319 l 1
 88 -60 l 1
EndSplineSet
EndChar

StartChar: Lcaron
Encoding: 317 317 298
Width: 551
VWidth: 0
Flags: HMW
LayerCount: 2
Fore
SplineSet
204 0 m 1
 233 166 l 1
 579 166 l 1
 550 0 l 1
 204 0 l 1
195 700 m 1
 389 700 l 1
 266 0 l 1
 72 0 l 1
 195 700 l 1
539 718 m 1
 706 685 l 1
 531 435 l 1
 405 460 l 1
 539 718 l 1
EndSplineSet
EndChar

StartChar: lcaron
Encoding: 318 318 299
Width: 282
VWidth: 0
Flags: HMW
LayerCount: 2
Fore
SplineSet
193 780 m 1
 366 780 l 1
 228 0 l 1
 55 0 l 1
 193 780 l 1
504 780 m 1
 672 747 l 1
 498 497 l 1
 370 521 l 1
 504 780 l 1
EndSplineSet
EndChar

StartChar: Ldot
Encoding: 319 319 300
Width: 551
VWidth: 0
Flags: HMW
LayerCount: 2
Fore
SplineSet
204 0 m 1
 233 166 l 1
 579 166 l 1
 550 0 l 1
 204 0 l 1
195 700 m 1
 389 700 l 1
 266 0 l 1
 72 0 l 1
 195 700 l 1
403 419 m 0
 413 475 466 522 528 522 c 0
 590 522 626 475 616 419 c 0
 606 363 554 316 492 316 c 0
 430 316 393 363 403 419 c 0
EndSplineSet
EndChar

StartChar: ldot
Encoding: 320 320 301
Width: 508
VWidth: 0
Flags: HMW
LayerCount: 2
Fore
SplineSet
193 780 m 1
 366 780 l 1
 228 0 l 1
 55 0 l 1
 193 780 l 1
335 406 m 0
 345 462 398 510 460 510 c 0
 522 510 558 462 548 406 c 0
 538 350 485 303 423 303 c 0
 361 303 325 350 335 406 c 0
EndSplineSet
EndChar

StartChar: eth
Encoding: 240 240 302
Width: 697
VWidth: 0
Flags: HMW
LayerCount: 2
Fore
SplineSet
499 250 m 0
 510 314 472 356 412 356 c 0
 352 356 299 314 288 250 c 0
 277 186 315 146 375 146 c 0
 435 146 488 186 499 250 c 0
486 696 m 1
 636 460 l 2
 677 398 706 332 692 250 c 0
 660 70 510 -18 346 -18 c 0
 182 -18 62 70 94 250 c 0
 120 396 251 478 353 478 c 0
 405 478 432 470 466 433 c 1
 426 454 l 1
 240 696 l 1
 486 696 l 1
222 520 m 1
 237 602 l 1
 716 602 l 1
 701 520 l 1
 222 520 l 1
EndSplineSet
EndChar

StartChar: racute
Encoding: 341 341 303
Width: 432
VWidth: 0
Flags: HMW
LayerCount: 2
Fore
SplineSet
305 460 m 1
 224 0 l 1
 55 0 l 1
 136 460 l 1
 305 460 l 1
405 282 m 1
 394 298 378 310 352 310 c 0
 312 310 273 277 261 211 c 1
 237 280 l 1
 256 389 347 472 429 472 c 0
 462 472 494 454 504 432 c 1
 405 282 l 1
532 682 m 1
 326 532 l 1
 236 578 l 1
 414 738 l 1
 532 682 l 1
EndSplineSet
EndChar

StartChar: rcaron
Encoding: 345 345 304
Width: 432
VWidth: 0
Flags: HMW
LayerCount: 2
Fore
SplineSet
305 460 m 1
 224 0 l 1
 55 0 l 1
 136 460 l 1
 305 460 l 1
405 282 m 1
 394 298 378 310 352 310 c 0
 312 310 273 277 261 211 c 1
 237 280 l 1
 256 389 347 472 429 472 c 0
 462 472 494 454 504 432 c 1
 405 282 l 1
359 670 m 1
 459 752 l 1
 568 672 l 1
 335 532 l 1
 150 672 l 1
 289 752 l 1
 359 670 l 1
EndSplineSet
EndChar

StartChar: Rcaron
Encoding: 344 344 305
Width: 673
VWidth: 0
Flags: HMW
LayerCount: 2
Fore
SplineSet
316 308 m 1
 516 308 l 1
 672 0 l 1
 445 0 l 1
 316 308 l 1
195 700 m 1
 389 700 l 1
 266 0 l 1
 72 0 l 1
 195 700 l 1
291 536 m 1
 319 700 l 1
 471 700 l 2
 663 700 736 604 712 466 c 0
 688 328 581 231 389 231 c 2
 237 231 l 1
 263 380 l 1
 398 380 l 2
 460 380 499 408 508 458 c 0
 517 508 488 536 426 536 c 2
 291 536 l 1
492 916 m 1
 592 999 l 1
 701 918 l 1
 467 778 l 1
 284 918 l 1
 421 999 l 1
 492 916 l 1
EndSplineSet
EndChar

StartChar: uni0213
Encoding: 531 531 306
Width: 432
VWidth: 0
Flags: HMW
LayerCount: 2
Fore
SplineSet
305 460 m 1
 224 0 l 1
 55 0 l 1
 136 460 l 1
 305 460 l 1
405 282 m 1
 394 298 378 310 352 310 c 0
 312 310 273 277 261 211 c 1
 237 280 l 1
 256 389 347 472 429 472 c 0
 462 472 494 454 504 432 c 1
 405 282 l 1
169 532 m 1
 276 532 l 1
 283 570 315 586 345 586 c 0
 375 586 401 570 394 532 c 1
 502 532 l 1
 517 618 467 680 362 680 c 0
 257 680 184 618 169 532 c 1
EndSplineSet
EndChar

StartChar: uni0212
Encoding: 530 530 307
Width: 673
VWidth: 0
Flags: HMW
LayerCount: 2
Fore
SplineSet
316 308 m 1
 516 308 l 1
 672 0 l 1
 445 0 l 1
 316 308 l 1
195 700 m 1
 389 700 l 1
 266 0 l 1
 72 0 l 1
 195 700 l 1
291 536 m 1
 319 700 l 1
 471 700 l 2
 663 700 736 604 712 466 c 0
 688 328 581 231 389 231 c 2
 237 231 l 1
 263 380 l 1
 398 380 l 2
 460 380 499 408 508 458 c 0
 517 508 488 536 426 536 c 2
 291 536 l 1
313 778 m 1
 421 778 l 1
 428 816 459 833 489 833 c 0
 519 833 545 816 538 778 c 1
 645 778 l 1
 660 864 610 926 505 926 c 0
 400 926 328 864 313 778 c 1
EndSplineSet
EndChar

StartChar: OE
Encoding: 338 338 308
Width: 985
VWidth: 0
Flags: HMW
LayerCount: 2
Fore
SplineSet
613 288 m 1
 640 440 l 1
 1018 440 l 1
 991 288 l 1
 613 288 l 1
592 670 m 1
 779 670 l 1
 666 30 l 1
 479 30 l 1
 592 670 l 1
988 158 m 1
 960 0 l 1
 390 0 l 2
 187 0 57 141 94 350 c 0
 131 559 309 700 513 700 c 2
 1083 700 l 1
 1056 542 l 1
 664 542 l 1
 644 530 l 1
 523 530 l 2
 389 530 319 472 297 350 c 0
 275 228 328 170 460 170 c 2
 578 170 l 1
 600 158 l 1
 988 158 l 1
EndSplineSet
EndChar

StartChar: oe
Encoding: 339 339 309
Width: 900
VWidth: 0
Flags: HMW
LayerCount: 2
Fore
SplineSet
726 250 m 2
 738 320 721 360 671 360 c 0
 623 360 578 330 566 260 c 1
 559 230 l 1
 545 148 571 106 629 106 c 0
 679 106 712 128 743 162 c 1
 892 132 l 1
 840 54 737 -10 638 -10 c 0
 513 -10 446 91 471 230 c 0
 474 247 477 263 483 279 c 0
 522 392 622 470 741 470 c 0
 851 470 932 379 906 234 c 0
 905 226 898 202 896 194 c 1
 723 230 l 1
 726 250 l 2
515 194 m 1
 531 282 l 1
 894 282 l 1
 896 194 l 1
 515 194 l 1
76 230 m 0
 102 379 221 470 346 470 c 0
 471 470 533 379 507 230 c 0
 481 81 386 -10 261 -10 c 0
 136 -10 50 81 76 230 c 0
247 230 m 0
 235 164 269 130 321 130 c 0
 375 130 415 164 427 230 c 0
 439 296 410 330 356 330 c 0
 304 330 259 296 247 230 c 0
EndSplineSet
EndChar

StartChar: a.alt
Encoding: 65536 -1 310
Width: 562
VWidth: 0
Flags: HMW
LayerCount: 2
Fore
SplineSet
220 138 m 0
 215 109 237 98 269 98 c 0
 317 98 366 118 378 188 c 1
 384 130 l 1
 368 41 285 -10 190 -10 c 0
 86 -10 29 41 45 129 c 0
 61 219 151 277 271 277 c 0
 335 277 401 255 419 232 c 1
 405 152 l 1
 378 176 349 188 299 188 c 0
 256 188 225 168 220 138 c 0
174 308 m 1
 138 422 l 1
 200 447 285 474 368 474 c 0
 498 474 584 420 567 322 c 2
 510 0 l 1
 345 0 l 1
 395 283 l 2
 402 320 379 346 329 346 c 0
 263 346 198 320 174 308 c 1
EndSplineSet
EndChar

StartChar: Jcircumflex
Encoding: 308 308 312
Width: 357
VWidth: 0
Flags: HMW
LayerCount: 2
Fore
SplineSet
-83 -52 m 1
 -64 -68 -35 -83 -7 -83 c 0
 23 -83 61 -64 71 -6 c 2
 195 700 l 1
 409 700 l 1
 277 -52 l 2
 252 -194 123 -244 -11 -244 c 0
 -97 -244 -170 -214 -213 -186 c 1
 -83 -52 l 1
330 861 m 1
 230 778 l 1
 121 859 l 1
 354 999 l 1
 538 859 l 1
 401 778 l 1
 330 861 l 1
EndSplineSet
EndChar

StartChar: jcircumflex
Encoding: 309 309 313
Width: 278
VWidth: 0
Flags: HMW
LayerCount: 2
Fore
SplineSet
-50 -66 m 1
 -39 -82 -26 -91 -8 -91 c 0
 22 -91 44 -72 51 -30 c 2
 137 460 l 1
 302 460 l 1
 208 -76 l 2
 190 -176 117 -244 -7 -244 c 0
 -83 -244 -118 -210 -138 -190 c 1
 -50 -66 l 1
246 614 m 1
 145 530 l 1
 37 612 l 1
 271 752 l 1
 454 612 l 1
 317 530 l 1
 246 614 l 1
EndSplineSet
EndChar

StartChar: Nacute
Encoding: 323 323 314
Width: 799
VWidth: 0
Flags: HMW
LayerCount: 2
Fore
SplineSet
165 500 m 1
 202 735 l 1
 758 200 l 1
 721 -35 l 1
 165 500 l 1
664 700 m 1
 851 700 l 1
 721 -35 l 1
 571 172 l 1
 664 700 l 1
202 735 m 1
 352 528 l 1
 258 0 l 1
 72 0 l 1
 202 735 l 1
699 915 m 1
 493 765 l 1
 403 812 l 1
 581 972 l 1
 699 915 l 1
EndSplineSet
EndChar

StartChar: nacute
Encoding: 324 324 315
Width: 590
VWidth: 0
Flags: HMW
LayerCount: 2
Fore
SplineSet
310 460 m 1
 228 0 l 1
 55 0 l 1
 136 460 l 1
 310 460 l 1
403 280 m 2
 411 328 404 355 359 355 c 0
 317 355 287 330 278 280 c 1
 248 272 l 1
 267 381 332 470 452 470 c 0
 572 470 607 408 588 298 c 2
 536 0 l 1
 354 0 l 1
 403 280 l 2
585 680 m 1
 379 530 l 1
 289 577 l 1
 467 737 l 1
 585 680 l 1
EndSplineSet
EndChar

StartChar: uni0145
Encoding: 325 325 316
Width: 799
VWidth: 0
Flags: HMW
LayerCount: 2
Fore
SplineSet
164 500 m 1
 202 735 l 1
 757 200 l 1
 722 -35 l 1
 164 500 l 1
664 700 m 1
 851 700 l 1
 722 -35 l 1
 571 172 l 1
 664 700 l 1
202 735 m 1
 351 528 l 1
 258 0 l 1
 72 0 l 1
 202 735 l 1
342 -60 m 1
 509 -92 l 1
 336 -342 l 1
 209 -318 l 1
 342 -60 l 1
EndSplineSet
EndChar

StartChar: uni0146
Encoding: 326 326 317
Width: 590
VWidth: 0
Flags: HMW
LayerCount: 2
Fore
SplineSet
309 460 m 1
 228 0 l 1
 55 0 l 1
 136 460 l 1
 309 460 l 1
403 280 m 2
 411 328 404 355 359 355 c 0
 317 355 286 330 277 280 c 1
 248 272 l 1
 267 381 333 470 453 470 c 0
 573 470 608 408 589 298 c 2
 536 0 l 1
 354 0 l 1
 403 280 l 2
241 -60 m 1
 410 -93 l 1
 236 -343 l 1
 108 -319 l 1
 241 -60 l 1
EndSplineSet
EndChar

StartChar: Ncaron
Encoding: 327 327 318
Width: 799
VWidth: 0
Flags: HMW
LayerCount: 2
Fore
SplineSet
164 500 m 1
 202 735 l 1
 757 200 l 1
 722 -35 l 1
 164 500 l 1
664 700 m 1
 851 700 l 1
 722 -35 l 1
 571 172 l 1
 664 700 l 1
202 735 m 1
 351 528 l 1
 258 0 l 1
 72 0 l 1
 202 735 l 1
528 908 m 1
 628 992 l 1
 736 910 l 1
 504 770 l 1
 319 910 l 1
 457 992 l 1
 528 908 l 1
EndSplineSet
EndChar

StartChar: ncaron
Encoding: 328 328 319
Width: 590
VWidth: 0
Flags: HMW
LayerCount: 2
Fore
SplineSet
309 460 m 1
 228 0 l 1
 55 0 l 1
 136 460 l 1
 309 460 l 1
403 280 m 2
 411 328 404 355 359 355 c 0
 317 355 286 330 277 280 c 1
 248 272 l 1
 267 381 333 470 453 470 c 0
 573 470 608 408 589 298 c 2
 536 0 l 1
 354 0 l 1
 403 280 l 2
412 668 m 1
 513 752 l 1
 621 670 l 1
 387 530 l 1
 204 670 l 1
 342 752 l 1
 412 668 l 1
EndSplineSet
EndChar

StartChar: Omacron
Encoding: 332 332 320
Width: 830
VWidth: 0
Flags: HMW
LayerCount: 2
Fore
SplineSet
300 350 m 0
 280 236 335 159 443 159 c 0
 551 159 634 236 654 350 c 0
 674 464 622 541 510 541 c 0
 402 541 320 464 300 350 c 0
94 350 m 0
 133 570 326 718 542 718 c 0
 762 718 900 570 861 350 c 0
 822 130 634 -26 410 -26 c 0
 186 -26 55 130 94 350 c 0
363 778 m 1
 389 926 l 1
 767 926 l 1
 741 778 l 1
 363 778 l 1
EndSplineSet
EndChar

StartChar: omacron
Encoding: 333 333 321
Width: 602
VWidth: 0
Flags: HMW
LayerCount: 2
Fore
SplineSet
72 230 m 0
 98 378 230 470 385 470 c 0
 540 470 639 378 613 230 c 0
 587 82 455 -10 300 -10 c 0
 145 -10 46 82 72 230 c 0
251 230 m 0
 240 166 275 130 325 130 c 0
 375 130 424 166 435 230 c 0
 446 294 410 331 360 331 c 0
 310 331 262 294 251 230 c 0
205 530 m 1
 232 679 l 1
 610 679 l 1
 583 530 l 1
 205 530 l 1
EndSplineSet
EndChar

StartChar: Obreve
Encoding: 334 334 322
Width: 830
VWidth: 0
Flags: HMW
LayerCount: 2
Fore
SplineSet
300 350 m 0
 280 236 335 159 443 159 c 0
 551 159 634 236 654 350 c 0
 674 464 622 541 510 541 c 0
 402 541 320 464 300 350 c 0
94 350 m 0
 133 570 326 718 542 718 c 0
 762 718 900 570 861 350 c 0
 822 130 634 -26 410 -26 c 0
 186 -26 55 130 94 350 c 0
412 926 m 1
 520 926 l 1
 513 888 539 872 569 872 c 0
 599 872 630 888 637 926 c 1
 745 926 l 1
 730 840 657 778 552 778 c 0
 447 778 397 840 412 926 c 1
EndSplineSet
EndChar

StartChar: obreve
Encoding: 335 335 323
Width: 602
VWidth: 0
Flags: HMW
LayerCount: 2
Fore
SplineSet
72 230 m 0
 98 378 230 470 385 470 c 0
 540 470 639 378 613 230 c 0
 587 82 455 -10 300 -10 c 0
 145 -10 46 82 72 230 c 0
251 230 m 0
 240 166 275 130 325 130 c 0
 375 130 424 166 435 230 c 0
 446 294 410 331 360 331 c 0
 310 331 262 294 251 230 c 0
255 679 m 1
 363 679 l 1
 356 641 382 624 412 624 c 0
 442 624 473 641 480 679 c 1
 588 679 l 1
 573 593 500 530 395 530 c 0
 290 530 240 593 255 679 c 1
EndSplineSet
EndChar

StartChar: Racute
Encoding: 340 340 324
Width: 673
VWidth: 0
Flags: HMW
LayerCount: 2
Fore
SplineSet
316 308 m 1
 516 308 l 1
 672 0 l 1
 445 0 l 1
 316 308 l 1
195 700 m 1
 389 700 l 1
 266 0 l 1
 72 0 l 1
 195 700 l 1
291 536 m 1
 319 700 l 1
 471 700 l 2
 663 700 736 604 712 466 c 0
 688 328 581 231 389 231 c 2
 237 231 l 1
 263 380 l 1
 398 380 l 2
 460 380 499 408 508 458 c 0
 517 508 488 536 426 536 c 2
 291 536 l 1
653 928 m 1
 446 778 l 1
 356 824 l 1
 535 984 l 1
 653 928 l 1
EndSplineSet
EndChar

StartChar: uni0156
Encoding: 342 342 325
Width: 673
VWidth: 0
Flags: HMW
LayerCount: 2
Fore
SplineSet
316 308 m 1
 516 308 l 1
 672 0 l 1
 445 0 l 1
 316 308 l 1
195 700 m 1
 389 700 l 1
 266 0 l 1
 72 0 l 1
 195 700 l 1
291 536 m 1
 319 700 l 1
 471 700 l 2
 663 700 736 604 712 466 c 0
 688 328 581 231 389 231 c 2
 237 231 l 1
 263 380 l 1
 398 380 l 2
 460 380 499 408 508 458 c 0
 517 508 488 536 426 536 c 2
 291 536 l 1
319 -60 m 1
 486 -93 l 1
 313 -343 l 1
 186 -319 l 1
 319 -60 l 1
EndSplineSet
EndChar

StartChar: uni0157
Encoding: 343 343 326
Width: 432
VWidth: 0
Flags: HMW
LayerCount: 2
Fore
SplineSet
305 460 m 1
 224 0 l 1
 55 0 l 1
 136 460 l 1
 305 460 l 1
405 282 m 1
 394 298 378 310 352 310 c 0
 312 310 273 277 261 211 c 1
 237 280 l 1
 256 389 347 472 429 472 c 0
 462 472 494 454 504 432 c 1
 405 282 l 1
86 -60 m 1
 254 -93 l 1
 80 -343 l 1
 -47 -319 l 1
 86 -60 l 1
EndSplineSet
EndChar

StartChar: Scedilla
Encoding: 350 350 327
Width: 648
VWidth: 0
Flags: HMW
LayerCount: 2
Fore
SplineSet
211 258 m 1
 247 178 286 142 356 142 c 0
 404 142 434 158 441 196 c 0
 450 246 393 259 319 291 c 0
 255 319 140 373 165 515 c 0
 187 637 307 718 461 718 c 0
 623 718 686 634 701 563 c 1
 542 482 l 1
 521 532 488 556 441 556 c 0
 399 556 368 537 363 509 c 0
 356 467 430 448 507 418 c 0
 606 382 667 316 646 198 c 0
 620 48 495 -26 323 -26 c 0
 191 -26 85 48 61 163 c 1
 211 258 l 1
299 62 m 1
 423 56 l 1
 278 -100 l 1
 176 -142 l 1
 299 62 l 1
433 -168 m 1
 326 -157 l 1
 331 -130 298 -126 268 -126 c 0
 258 -126 218 -128 176 -142 c 1
 255 -96 l 1
 287 -68 316 -64 354 -64 c 0
 396 -64 446 -97 433 -168 c 1
433 -168 m 1
 420 -244 340 -282 274 -282 c 0
 212 -282 168 -272 121 -242 c 1
 184 -165 l 1
 208 -184 246 -190 264 -190 c 0
 298 -190 322 -181 326 -157 c 1
 433 -168 l 1
EndSplineSet
EndChar

StartChar: scedilla
Encoding: 351 351 328
Width: 472
VWidth: 0
Flags: HMW
LayerCount: 2
Fore
SplineSet
112 178 m 1
 186 117 237 108 261 108 c 0
 281 108 297 112 300 130 c 0
 305 160 233 166 183 192 c 0
 129 221 83 251 97 332 c 0
 113 424 208 470 314 470 c 0
 396 470 458 442 510 408 c 1
 439 293 l 1
 405 330 343 350 306 350 c 0
 276 350 264 344 261 328 c 0
 257 304 315 291 371 269 c 0
 432 245 488 214 473 130 c 0
 454 22 382 -22 266 -22 c 0
 164 -22 89 10 27 60 c 1
 112 178 l 1
227 74 m 1
 353 68 l 1
 207 -88 l 1
 104 -129 l 1
 227 74 l 1
361 -156 m 1
 255 -144 l 1
 260 -117 226 -114 196 -114 c 0
 186 -114 146 -115 104 -129 c 1
 184 -84 l 1
 216 -56 244 -52 282 -52 c 0
 324 -52 374 -85 361 -156 c 1
361 -156 m 1
 348 -232 269 -270 203 -270 c 0
 141 -270 96 -260 49 -230 c 1
 112 -152 l 1
 136 -171 175 -178 193 -178 c 0
 227 -178 251 -168 255 -144 c 1
 361 -156 l 1
EndSplineSet
EndChar

StartChar: Zcaron
Encoding: 381 381 329
Width: 642
VWidth: 0
Flags: HMW
LayerCount: 2
Fore
SplineSet
157 526 m 1
 187 700 l 1
 753 700 l 1
 341 166 l 1
 619 166 l 1
 590 0 l 1
 6 0 l 1
 413 526 l 1
 157 526 l 1
508 916 m 1
 608 999 l 1
 718 918 l 1
 483 778 l 1
 300 918 l 1
 437 999 l 1
 508 916 l 1
EndSplineSet
EndChar

StartChar: zcaron
Encoding: 382 382 330
Width: 533
VWidth: 0
Flags: HMW
LayerCount: 2
Fore
SplineSet
204 156 m 1
 518 156 l 1
 490 0 l 1
 15 0 l 1
 204 156 l 1
143 460 m 1
 607 460 l 1
 404 304 l 1
 116 304 l 1
 143 460 l 1
445 460 m 1
 607 460 l 1
 202 0 l 1
 15 0 l 1
 445 460 l 1
412 668 m 1
 512 750 l 1
 620 670 l 1
 387 530 l 1
 203 670 l 1
 340 750 l 1
 412 668 l 1
EndSplineSet
EndChar

StartChar: Ydieresis
Encoding: 376 376 331
Width: 690
VWidth: 0
Flags: HMW
LayerCount: 2
Fore
SplineSet
309 360 m 1
 508 360 l 1
 444 0 l 1
 246 0 l 1
 309 360 l 1
591 700 m 1
 817 700 l 1
 365 111 l 1
 120 700 l 1
 345 700 l 1
 425 456 l 1
 591 700 l 1
555 876 m 0
 564 930 615 966 669 966 c 0
 723 966 760 930 751 876 c 0
 742 822 691 786 637 786 c 0
 583 786 546 822 555 876 c 0
248 876 m 0
 257 930 308 966 362 966 c 0
 416 966 453 930 444 876 c 0
 435 822 384 786 330 786 c 0
 276 786 239 822 248 876 c 0
EndSplineSet
EndChar

StartChar: Scaron
Encoding: 352 352 332
Width: 648
VWidth: 0
Flags: HMW
LayerCount: 2
Fore
SplineSet
211 258 m 1
 247 178 287 142 357 142 c 0
 405 142 434 158 441 196 c 0
 450 246 393 259 319 291 c 0
 256 319 140 373 165 515 c 0
 187 637 307 718 461 718 c 0
 623 718 686 634 701 563 c 1
 542 482 l 1
 521 532 488 556 441 556 c 0
 399 556 368 537 363 509 c 0
 356 467 430 448 507 418 c 0
 606 382 668 316 647 198 c 0
 621 48 495 -26 323 -26 c 0
 191 -26 85 48 61 163 c 1
 211 258 l 1
496 916 m 1
 596 999 l 1
 704 918 l 1
 471 778 l 1
 288 918 l 1
 424 999 l 1
 496 916 l 1
EndSplineSet
EndChar

StartChar: scaron
Encoding: 353 353 333
Width: 472
VWidth: 0
Flags: HMW
LayerCount: 2
Fore
SplineSet
111 178 m 1
 185 117 237 108 261 108 c 0
 281 108 298 112 301 130 c 0
 306 160 233 166 184 192 c 0
 129 221 83 251 97 332 c 0
 113 424 209 470 315 470 c 0
 397 470 458 442 510 408 c 1
 439 293 l 1
 406 330 343 350 306 350 c 0
 276 350 264 344 261 328 c 0
 257 304 315 291 371 269 c 0
 432 245 488 214 473 130 c 0
 454 22 382 -22 266 -22 c 0
 164 -22 89 10 27 60 c 1
 111 178 l 1
347 652 m 1
 447 736 l 1
 555 654 l 1
 323 514 l 1
 138 654 l 1
 276 736 l 1
 347 652 l 1
EndSplineSet
EndChar

StartChar: Lslash
Encoding: 321 321 334
Width: 555
VWidth: 0
Flags: HMW
LayerCount: 2
Fore
SplineSet
58 301 m 1
 28 380 l 1
 462 644 l 1
 492 565 l 1
 58 301 l 1
225 0 m 1
 254 162 l 1
 575 162 l 1
 546 0 l 1
 225 0 l 1
195 700 m 1
 386 700 l 1
 263 0 l 1
 72 0 l 1
 195 700 l 1
EndSplineSet
EndChar

StartChar: lslash
Encoding: 322 322 335
Width: 280
VWidth: 0
Flags: HMW
LayerCount: 2
Fore
SplineSet
43 301 m 1
 13 380 l 1
 406 616 l 1
 436 537 l 1
 43 301 l 1
193 780 m 1
 363 780 l 1
 226 0 l 1
 56 0 l 1
 193 780 l 1
EndSplineSet
EndChar

StartChar: uni0218
Encoding: 536 536 336
Width: 648
VWidth: 0
Flags: HMW
LayerCount: 2
Fore
SplineSet
211 258 m 1
 247 178 287 142 357 142 c 0
 405 142 434 158 441 196 c 0
 450 246 393 259 319 291 c 0
 256 319 140 373 165 515 c 0
 187 637 307 718 461 718 c 0
 623 718 686 634 701 563 c 1
 542 482 l 1
 521 532 488 556 441 556 c 0
 399 556 368 537 363 509 c 0
 356 467 430 448 507 418 c 0
 606 382 668 316 647 198 c 0
 621 48 495 -26 323 -26 c 0
 191 -26 85 48 61 163 c 1
 211 258 l 1
240 -70 m 1
 408 -103 l 1
 233 -353 l 1
 106 -329 l 1
 240 -70 l 1
EndSplineSet
EndChar

StartChar: uni0219
Encoding: 537 537 337
Width: 472
VWidth: 0
Flags: HMW
LayerCount: 2
Fore
SplineSet
111 178 m 1
 185 117 237 108 261 108 c 0
 281 108 298 112 301 130 c 0
 306 160 233 166 184 192 c 0
 129 221 83 251 97 332 c 0
 113 424 209 470 315 470 c 0
 397 470 458 442 510 408 c 1
 439 293 l 1
 406 330 343 350 306 350 c 0
 276 350 264 344 261 328 c 0
 257 304 315 291 371 269 c 0
 432 245 488 214 473 130 c 0
 454 22 382 -22 266 -22 c 0
 164 -22 89 10 27 60 c 1
 111 178 l 1
183 -66 m 1
 350 -100 l 1
 176 -350 l 1
 50 -325 l 1
 183 -66 l 1
EndSplineSet
EndChar

StartChar: pi
Encoding: 960 960 338
Width: 621
VWidth: 0
Flags: HMW
LayerCount: 2
Fore
SplineSet
166 430 m 1
 327 430 l 1
 251 0 l 1
 90 0 l 1
 166 430 l 1
111 460 m 1
 662 460 l 1
 637 320 l 1
 86 320 l 1
 111 460 l 1
416 430 m 1
 577 430 l 1
 535 190 l 2
 523 124 545 120 575 120 c 1
 552 -9 l 1
 411 -9 339 -5 361 121 c 2
 416 430 l 1
EndSplineSet
EndChar

StartChar: trademark
Encoding: 8482 8482 339
Width: 770
VWidth: 0
Flags: HMW
LayerCount: 2
Fore
SplineSet
137 613 m 1
 152 700 l 1
 445 700 l 1
 430 613 l 1
 332 613 l 1
 286 350 l 1
 189 350 l 1
 235 613 l 1
 137 613 l 1
718 590 m 1
 812 717 l 1
 808 350 l 1
 705 350 l 1
 718 590 l 1
508 717 m 1
 558 590 l 1
 486 350 l 1
 382 350 l 1
 508 717 l 1
812 717 m 1
 791 594 l 1
 601 382 l 1
 487 594 l 1
 508 717 l 1
 625 516 l 1
 812 717 l 1
EndSplineSet
EndChar

StartChar: uni2219
Encoding: 8729 8729 340
Width: 329
VWidth: 0
Flags: HMW
LayerCount: 2
Fore
SplineSet
138 452 m 0
 148 508 200 556 262 556 c 0
 324 556 361 508 351 452 c 0
 341 396 287 348 225 348 c 0
 163 348 128 396 138 452 c 0
EndSplineSet
EndChar

StartChar: agrave.alt
Encoding: 65537 -1 341
Width: 562
VWidth: 0
Flags: HMW
LayerCount: 2
Fore
SplineSet
220 138 m 0
 215 109 238 98 270 98 c 0
 318 98 366 118 378 188 c 1
 384 130 l 1
 368 41 285 -10 190 -10 c 0
 86 -10 29 41 45 129 c 0
 61 219 151 277 271 277 c 0
 335 277 401 255 419 232 c 1
 405 152 l 1
 378 176 350 188 300 188 c 0
 257 188 225 168 220 138 c 0
174 308 m 1
 138 422 l 1
 201 447 285 474 368 474 c 0
 498 474 584 420 567 322 c 2
 510 0 l 1
 345 0 l 1
 395 283 l 2
 402 320 379 346 329 346 c 0
 263 346 198 320 174 308 c 1
229 684 m 1
 367 740 l 1
 489 580 l 1
 383 534 l 1
 229 684 l 1
EndSplineSet
EndChar

StartChar: aacute.alt
Encoding: 65538 -1 342
Width: 562
VWidth: 0
Flags: HMW
LayerCount: 2
Fore
SplineSet
220 138 m 0
 215 109 238 98 270 98 c 0
 318 98 366 118 378 188 c 1
 384 130 l 1
 368 41 285 -10 190 -10 c 0
 86 -10 29 41 45 129 c 0
 61 219 151 277 271 277 c 0
 335 277 401 255 419 232 c 1
 405 152 l 1
 378 176 350 188 300 188 c 0
 257 188 225 168 220 138 c 0
174 308 m 1
 138 422 l 1
 201 447 285 474 368 474 c 0
 498 474 584 420 567 322 c 2
 510 0 l 1
 345 0 l 1
 395 283 l 2
 402 320 379 346 329 346 c 0
 263 346 198 320 174 308 c 1
581 684 m 1
 375 534 l 1
 285 580 l 1
 464 740 l 1
 581 684 l 1
EndSplineSet
EndChar

StartChar: acircumflex.alt
Encoding: 65539 -1 343
Width: 562
VWidth: 0
Flags: HMW
LayerCount: 2
Fore
SplineSet
220 138 m 0
 215 109 238 98 270 98 c 0
 318 98 366 118 378 188 c 1
 384 130 l 1
 368 41 285 -10 190 -10 c 0
 86 -10 29 41 45 129 c 0
 61 219 151 277 271 277 c 0
 335 277 401 255 419 232 c 1
 405 152 l 1
 378 176 350 188 300 188 c 0
 257 188 225 168 220 138 c 0
174 308 m 1
 138 422 l 1
 201 447 285 474 368 474 c 0
 498 474 584 420 567 322 c 2
 510 0 l 1
 345 0 l 1
 395 283 l 2
 402 320 379 346 329 346 c 0
 263 346 198 320 174 308 c 1
393 616 m 1
 293 534 l 1
 184 614 l 1
 418 754 l 1
 602 614 l 1
 465 534 l 1
 393 616 l 1
EndSplineSet
EndChar

StartChar: atilde.alt
Encoding: 65540 -1 344
Width: 562
VWidth: 0
Flags: HMW
LayerCount: 2
Fore
SplineSet
220 138 m 0
 215 109 238 98 270 98 c 0
 318 98 366 118 378 188 c 1
 384 130 l 1
 368 41 285 -10 190 -10 c 0
 86 -10 29 41 45 129 c 0
 61 219 151 277 271 277 c 0
 335 277 401 255 419 232 c 1
 405 152 l 1
 378 176 350 188 300 188 c 0
 257 188 225 168 220 138 c 0
174 308 m 1
 138 422 l 1
 201 447 285 474 368 474 c 0
 498 474 584 420 567 322 c 2
 510 0 l 1
 345 0 l 1
 395 283 l 2
 402 320 379 346 329 346 c 0
 263 346 198 320 174 308 c 1
186 608 m 1
 205 657 258 707 328 707 c 0
 394 707 402 654 459 654 c 0
 487 654 511 676 537 708 c 1
 600 624 l 1
 577 587 508 534 442 534 c 0
 387 534 357 590 306 590 c 0
 269 590 255 554 252 539 c 1
 186 608 l 1
EndSplineSet
EndChar

StartChar: adieresis.alt
Encoding: 65541 -1 345
Width: 562
VWidth: 0
Flags: HMW
LayerCount: 2
Fore
SplineSet
220 138 m 0
 215 109 238 98 270 98 c 0
 318 98 366 118 378 188 c 1
 384 130 l 1
 368 41 285 -10 190 -10 c 0
 86 -10 29 41 45 129 c 0
 61 219 151 277 271 277 c 0
 335 277 401 255 419 232 c 1
 405 152 l 1
 378 176 350 188 300 188 c 0
 257 188 225 168 220 138 c 0
174 308 m 1
 138 422 l 1
 201 447 285 474 368 474 c 0
 498 474 584 420 567 322 c 2
 510 0 l 1
 345 0 l 1
 395 283 l 2
 402 320 379 346 329 346 c 0
 263 346 198 320 174 308 c 1
425 624 m 0
 434 678 485 714 539 714 c 0
 593 714 630 678 621 624 c 0
 612 570 561 534 507 534 c 0
 453 534 416 570 425 624 c 0
168 624 m 0
 177 678 228 714 282 714 c 0
 336 714 373 678 364 624 c 0
 355 570 304 534 250 534 c 0
 196 534 159 570 168 624 c 0
EndSplineSet
EndChar

StartChar: aring.alt
Encoding: 65542 -1 346
Width: 562
VWidth: 0
Flags: HMW
LayerCount: 2
Fore
SplineSet
220 138 m 0
 215 109 238 98 270 98 c 0
 318 98 366 118 378 188 c 1
 384 130 l 1
 368 41 285 -10 190 -10 c 0
 86 -10 29 41 45 129 c 0
 61 219 151 277 271 277 c 0
 335 277 401 255 419 232 c 1
 405 152 l 1
 378 176 350 188 300 188 c 0
 257 188 225 168 220 138 c 0
174 308 m 1
 138 422 l 1
 201 447 285 474 368 474 c 0
 498 474 584 420 567 322 c 2
 510 0 l 1
 345 0 l 1
 395 283 l 2
 402 320 379 346 329 346 c 0
 263 346 198 320 174 308 c 1
268 654 m 0
 281 726 346 774 421 774 c 0
 496 774 545 726 532 654 c 0
 519 582 453 534 378 534 c 0
 303 534 255 582 268 654 c 0
355 654 m 0
 350 625 366 609 391 609 c 0
 416 609 439 625 444 654 c 0
 449 683 433 700 408 700 c 0
 383 700 360 683 355 654 c 0
EndSplineSet
EndChar

StartChar: amacron.alt
Encoding: 65543 -1 347
Width: 562
VWidth: 0
Flags: HMW
LayerCount: 2
Fore
SplineSet
220 138 m 0
 215 109 238 98 270 98 c 0
 318 98 366 118 378 188 c 1
 384 130 l 1
 368 41 285 -10 190 -10 c 0
 86 -10 29 41 45 129 c 0
 61 219 151 277 271 277 c 0
 335 277 401 255 419 232 c 1
 405 152 l 1
 378 176 350 188 300 188 c 0
 257 188 225 168 220 138 c 0
174 308 m 1
 138 422 l 1
 201 447 285 474 368 474 c 0
 498 474 584 420 567 322 c 2
 510 0 l 1
 345 0 l 1
 395 283 l 2
 402 320 379 346 329 346 c 0
 263 346 198 320 174 308 c 1
190 538 m 1
 216 686 l 1
 595 686 l 1
 569 538 l 1
 190 538 l 1
EndSplineSet
EndChar

StartChar: abreve.alt
Encoding: 65544 -1 348
Width: 562
VWidth: 0
Flags: HMW
LayerCount: 2
Fore
SplineSet
220 138 m 0
 215 109 238 98 270 98 c 0
 318 98 366 118 378 188 c 1
 384 130 l 1
 368 41 285 -10 190 -10 c 0
 86 -10 29 41 45 129 c 0
 61 219 151 277 271 277 c 0
 335 277 401 255 419 232 c 1
 405 152 l 1
 378 176 350 188 300 188 c 0
 257 188 225 168 220 138 c 0
174 308 m 1
 138 422 l 1
 201 447 285 474 368 474 c 0
 498 474 584 420 567 322 c 2
 510 0 l 1
 345 0 l 1
 395 283 l 2
 402 320 379 346 329 346 c 0
 263 346 198 320 174 308 c 1
239 682 m 1
 346 682 l 1
 339 644 365 628 395 628 c 0
 425 628 457 644 464 682 c 1
 571 682 l 1
 556 596 484 534 379 534 c 0
 274 534 224 596 239 682 c 1
EndSplineSet
EndChar

StartChar: aogonek.alt
Encoding: 65545 -1 349
Width: 562
VWidth: 0
Flags: HMW
LayerCount: 2
Fore
SplineSet
220 138 m 0
 215 109 238 98 270 98 c 0
 318 98 366 118 378 188 c 1
 384 130 l 1
 368 41 285 -10 190 -10 c 0
 86 -10 29 41 45 129 c 0
 61 219 151 277 271 277 c 0
 335 277 401 255 419 232 c 1
 405 152 l 1
 378 176 350 188 300 188 c 0
 257 188 225 168 220 138 c 0
174 308 m 1
 138 422 l 1
 201 447 285 474 368 474 c 0
 498 474 584 420 567 322 c 2
 510 0 l 1
 345 0 l 1
 395 283 l 2
 402 320 379 346 329 346 c 0
 263 346 198 320 174 308 c 1
468 -104 m 1
 488 -178 l 1
 469 -198 437 -218 377 -218 c 0
 317 -218 267 -186 279 -118 c 1
 389 -90 l 1
 385 -112 392 -124 414 -124 c 0
 432 -124 452 -117 468 -104 c 1
389 -90 m 1
 279 -118 l 1
 291 -50 369 -8 445 28 c 1
 481 2 l 1
 424 -28 394 -62 389 -90 c 1
EndSplineSet
EndChar

StartChar: dagger
Encoding: 8224 8224 350
Width: 651
VWidth: 0
Flags: HMW
LayerCount: 2
Fore
SplineSet
185 540 m 1
 656 540 l 1
 632 400 l 1
 161 400 l 1
 185 540 l 1
368 700 m 1
 529 700 l 1
 380 -150 l 1
 219 -150 l 1
 368 700 l 1
EndSplineSet
EndChar

StartChar: daggerdbl
Encoding: 8225 8225 351
Width: 651
VWidth: 0
Flags: HMW
LayerCount: 2
Fore
SplineSet
120 169 m 1
 591 169 l 1
 566 28 l 1
 95 28 l 1
 120 169 l 1
185 540 m 1
 656 540 l 1
 632 400 l 1
 161 400 l 1
 185 540 l 1
368 700 m 1
 529 700 l 1
 380 -150 l 1
 219 -150 l 1
 368 700 l 1
EndSplineSet
EndChar

StartChar: ellipsis
Encoding: 8230 8230 352
Width: 932
VWidth: 0
Flags: HMW
LayerCount: 2
Fore
SplineSet
71 76 m 0
 81 132 134 180 196 180 c 0
 258 180 294 132 284 76 c 0
 274 20 221 -27 159 -27 c 0
 97 -27 61 20 71 76 c 0
371 76 m 0
 381 132 434 180 496 180 c 0
 558 180 594 132 584 76 c 0
 574 20 521 -27 459 -27 c 0
 397 -27 361 20 371 76 c 0
671 76 m 0
 681 132 734 180 796 180 c 0
 858 180 894 132 884 76 c 0
 874 20 821 -27 759 -27 c 0
 697 -27 661 20 671 76 c 0
EndSplineSet
EndChar

StartChar: uniFF10
Encoding: 65296 65296 353
Width: 645
VWidth: 0
Flags: HMW
LayerCount: 2
Fore
SplineSet
270 350 m 0
 248 228 281 151 349 151 c 0
 417 151 476 228 498 350 c 0
 520 472 487 549 419 549 c 0
 351 549 292 472 270 350 c 0
83 350 m 0
 124 584 270 714 448 714 c 0
 634 714 725 584 684 350 c 0
 643 116 506 -14 320 -14 c 0
 142 -14 42 116 83 350 c 0
EndSplineSet
EndChar

StartChar: uniFF11
Encoding: 65297 65297 354
Width: 645
VWidth: 0
Flags: HMW
LayerCount: 2
Fore
SplineSet
190 478 m 1
 220 644 l 1
 599 714 l 1
 473 0 l 1
 286 0 l 1
 378 520 l 1
 190 478 l 1
EndSplineSet
EndChar

StartChar: uniFF12
Encoding: 65298 65298 355
Width: 645
VWidth: 0
Flags: HMW
LayerCount: 2
Fore
SplineSet
9 0 m 1
 371 314 l 2
 441 378 483 416 493 472 c 0
 500 512 483 550 425 550 c 0
 367 550 320 502 308 436 c 1
 117 436 l 1
 143 585 266 715 460 715 c 0
 640 715 717 598 697 484 c 0
 684 408 632 348 561 298 c 2
 395 178 l 1
 664 178 l 1
 633 0 l 1
 9 0 l 1
EndSplineSet
EndChar

StartChar: uniFF13
Encoding: 65299 65299 356
Width: 645
VWidth: 0
Flags: HMW
LayerCount: 2
Fore
SplineSet
333 336 m 1
 348 420 l 1
 422 420 481 458 489 504 c 0
 495 538 475 562 427 562 c 0
 379 562 339 530 331 486 c 1
 152 486 l 1
 175 615 296 714 456 714 c 0
 625 714 703 629 683 518 c 0
 660 390 509 336 333 336 c 1
317 -18 m 0
 137 -18 54 105 77 234 c 1
 269 234 l 1
 257 164 300 135 352 135 c 0
 404 135 447 156 457 212 c 0
 466 262 433 300 327 300 c 1
 344 396 l 1
 544 396 671 337 646 194 c 0
 624 71 503 -18 317 -18 c 0
EndSplineSet
EndChar

StartChar: uniFF14
Encoding: 65300 65300 357
Width: 645
VWidth: 0
Flags: HMW
LayerCount: 2
Fore
SplineSet
31 120 m 1
 214 256 l 1
 485 256 l 0
 507 284 l 0
 678 284 l 1
 649 120 l 1
 31 120 l 1
221 184 m 1
 31 120 l 1
 505 700 l 25
 657 700 l 1
 534 0 l 1
 332 0 l 1
 360 156 l 0
 385 167 l 0
 433 438 l 1
 221 184 l 1
EndSplineSet
EndChar

StartChar: uniFF15
Encoding: 65301 65301 358
Width: 645
VWidth: 0
Flags: HMW
LayerCount: 2
Fore
SplineSet
647 222 m 0
 617 54 447 -14 312 -14 c 0
 183 -14 99 20 36 60 c 1
 129 226 l 1
 185 182 251 164 295 164 c 0
 375 164 426 186 437 246 c 0
 448 306 385 325 323 325 c 0
 273 325 191 318 114 286 c 1
 268 376 l 1
 332 434 397 449 473 449 c 0
 581 449 673 370 647 222 c 0
398 532 m 1
 310 368 l 1
 114 286 l 1
 285 700 l 1
 713 700 l 1
 684 532 l 1
 398 532 l 1
EndSplineSet
EndChar

StartChar: uniFF16
Encoding: 65302 65302 359
Width: 645
VWidth: 0
Flags: HMW
LayerCount: 2
Fore
SplineSet
260 250 m 0
 249 186 288 146 348 146 c 0
 408 146 461 186 472 250 c 0
 483 314 445 356 385 356 c 0
 325 356 271 314 260 250 c 0
429 696 m 1
 677 696 l 1
 404 454 l 1
 358 433 l 1
 406 470 434 478 486 478 c 0
 588 478 690 396 664 250 c 0
 632 70 483 -18 319 -18 c 0
 155 -18 35 70 67 250 c 0
 81 332 134 398 197 460 c 2
 429 696 l 1
EndSplineSet
EndChar

StartChar: uniFF17
Encoding: 65303 65303 360
Width: 645
VWidth: 0
Flags: HMW
LayerCount: 2
Fore
SplineSet
123 518 m 1
 155 700 l 1
 751 700 l 1
 290 0 l 1
 78 0 l 1
 435 518 l 1
 123 518 l 1
EndSplineSet
EndChar

StartChar: uniFF18
Encoding: 65304 65304 361
Width: 645
VWidth: 0
Flags: HMW
LayerCount: 2
Fore
SplineSet
182 531 m 0
 204 655 332 718 466 718 c 0
 600 718 704 655 682 531 c 0
 658 397 514 338 399 338 c 0
 284 338 158 397 182 531 c 0
362 512 m 0
 355 470 377 442 417 442 c 0
 457 442 489 470 496 512 c 0
 503 554 482 582 442 582 c 0
 402 582 369 554 362 512 c 0
98 190 m 0
 125 344 294 398 409 398 c 0
 524 398 675 344 648 190 c 0
 624 56 478 -18 336 -18 c 0
 194 -18 74 56 98 190 c 0
297 220 m 0
 287 166 317 138 363 138 c 0
 409 138 447 166 457 220 c 0
 465 264 438 298 392 298 c 0
 346 298 305 264 297 220 c 0
EndSplineSet
EndChar

StartChar: uniFF19
Encoding: 65305 65305 362
Width: 645
VWidth: 0
Flags: HMW
LayerCount: 2
Fore
SplineSet
507 450 m 0
 518 514 480 554 420 554 c 0
 360 554 306 514 295 450 c 0
 284 386 323 344 383 344 c 0
 443 344 496 386 507 450 c 0
337 4 m 1
 91 4 l 1
 361 246 l 1
 409 267 l 1
 361 230 333 222 281 222 c 0
 179 222 76 304 102 450 c 0
 134 630 285 718 449 718 c 0
 613 718 731 630 699 450 c 0
 685 368 633 302 570 240 c 2
 337 4 l 1
EndSplineSet
EndChar

StartChar: caron
Encoding: 711 711 363
Width: 480
VWidth: 0
Flags: HMW
LayerCount: 2
Fore
SplineSet
360 682 m 1
 461 766 l 1
 570 684 l 1
 336 544 l 1
 152 684 l 1
 289 766 l 1
 360 682 l 1
EndSplineSet
EndChar

StartChar: napostrophe
Encoding: 329 329 364
Width: 781
VWidth: 0
Flags: HMW
LayerCount: 2
Fore
SplineSet
501 460 m 1
 420 0 l 1
 246 0 l 1
 327 460 l 1
 501 460 l 1
594 280 m 2
 602 328 596 355 551 355 c 0
 509 355 478 330 469 280 c 1
 440 272 l 1
 459 381 523 470 643 470 c 0
 763 470 798 408 779 298 c 2
 726 0 l 1
 545 0 l 1
 594 280 l 2
229 700 m 1
 405 700 l 1
 255 438 l 1
 131 438 l 1
 229 700 l 1
EndSplineSet
EndChar

StartChar: IJ
Encoding: 306 306 365
Width: 664
VWidth: 0
Flags: HMW
LayerCount: 2
Fore
SplineSet
225 -52 m 1
 244 -68 271 -83 299 -83 c 0
 329 -83 368 -64 378 -6 c 2
 502 700 l 1
 715 700 l 1
 583 -52 l 2
 558 -194 429 -244 295 -244 c 0
 209 -244 137 -214 94 -186 c 1
 225 -52 l 1
195 700 m 1
 393 700 l 1
 270 0 l 1
 72 0 l 1
 195 700 l 1
EndSplineSet
EndChar

StartChar: ij
Encoding: 307 307 366
Width: 555
VWidth: 0
Flags: HMW
LayerCount: 2
Fore
SplineSet
427 627 m 0
 437 681 487 717 541 717 c 0
 595 717 634 681 624 627 c 0
 614 573 564 537 510 537 c 0
 456 537 417 573 427 627 c 0
226 -66 m 1
 237 -82 250 -91 268 -91 c 0
 298 -91 320 -72 327 -30 c 2
 413 460 l 1
 579 460 l 1
 485 -76 l 2
 467 -176 393 -244 269 -244 c 0
 193 -244 158 -210 138 -190 c 1
 226 -66 l 1
153 627 m 0
 163 681 212 717 266 717 c 0
 320 717 359 681 349 627 c 0
 339 573 289 537 235 537 c 0
 181 537 143 573 153 627 c 0
137 460 m 1
 305 460 l 1
 224 0 l 1
 56 0 l 1
 137 460 l 1
EndSplineSet
EndChar

StartChar: uni0237
Encoding: 567 567 367
Width: 278
VWidth: 0
Flags: HMW
LayerCount: 2
Fore
SplineSet
-50 -66 m 1
 -39 -82 -26 -91 -8 -91 c 0
 22 -91 44 -72 51 -30 c 2
 137 460 l 1
 302 460 l 1
 208 -76 l 2
 190 -176 117 -244 -7 -244 c 0
 -83 -244 -118 -210 -138 -190 c 1
 -50 -66 l 1
EndSplineSet
EndChar

StartChar: Sacute
Encoding: 346 346 368
Width: 648
VWidth: 0
Flags: HMW
LayerCount: 2
Fore
SplineSet
211 258 m 1
 247 178 286 142 356 142 c 0
 404 142 434 158 441 196 c 0
 450 246 393 259 319 291 c 0
 255 319 140 373 165 515 c 0
 187 637 307 718 461 718 c 0
 623 718 686 634 701 563 c 1
 542 482 l 1
 521 532 488 556 441 556 c 0
 399 556 368 537 363 509 c 0
 356 467 430 448 507 418 c 0
 606 382 667 316 646 198 c 0
 620 48 495 -26 323 -26 c 0
 191 -26 85 48 61 163 c 1
 211 258 l 1
678 928 m 1
 471 778 l 1
 382 824 l 1
 560 984 l 1
 678 928 l 1
EndSplineSet
EndChar

StartChar: sacute
Encoding: 347 347 369
Width: 472
VWidth: 0
Flags: HMW
LayerCount: 2
Fore
SplineSet
112 178 m 1
 186 117 237 108 261 108 c 0
 281 108 297 112 300 130 c 0
 305 160 233 166 183 192 c 0
 129 221 83 251 97 332 c 0
 113 424 208 470 314 470 c 0
 396 470 458 442 510 408 c 1
 439 293 l 1
 405 330 343 350 306 350 c 0
 276 350 264 344 261 328 c 0
 257 304 315 291 371 269 c 0
 432 245 488 214 473 130 c 0
 454 22 382 -22 266 -22 c 0
 164 -22 89 10 27 60 c 1
 112 178 l 1
531 680 m 1
 325 530 l 1
 235 577 l 1
 413 737 l 1
 531 680 l 1
EndSplineSet
EndChar

StartChar: Scircumflex
Encoding: 348 348 370
Width: 648
VWidth: 0
Flags: HMW
LayerCount: 2
Fore
SplineSet
211 258 m 1
 247 178 286 142 356 142 c 0
 404 142 434 158 441 196 c 0
 450 246 393 259 319 291 c 0
 255 319 140 373 165 515 c 0
 187 637 307 718 461 718 c 0
 623 718 686 634 701 563 c 1
 542 482 l 1
 521 532 488 556 441 556 c 0
 399 556 368 537 363 509 c 0
 356 467 430 448 507 418 c 0
 606 382 667 316 646 198 c 0
 620 48 495 -26 323 -26 c 0
 191 -26 85 48 61 163 c 1
 211 258 l 1
486 861 m 1
 386 778 l 1
 277 859 l 1
 510 999 l 1
 694 859 l 1
 557 778 l 1
 486 861 l 1
EndSplineSet
EndChar

StartChar: scircumflex
Encoding: 349 349 371
Width: 472
VWidth: 0
Flags: HMW
LayerCount: 2
Fore
SplineSet
112 178 m 1
 186 117 237 108 261 108 c 0
 281 108 297 112 300 130 c 0
 305 160 233 166 183 192 c 0
 129 221 83 251 97 332 c 0
 113 424 208 470 314 470 c 0
 396 470 458 442 510 408 c 1
 439 293 l 1
 405 330 343 350 306 350 c 0
 276 350 264 344 261 328 c 0
 257 304 315 291 371 269 c 0
 432 245 488 214 473 130 c 0
 454 22 382 -22 266 -22 c 0
 164 -22 89 10 27 60 c 1
 112 178 l 1
356 614 m 1
 256 530 l 1
 147 612 l 1
 381 752 l 1
 564 612 l 1
 427 530 l 1
 356 614 l 1
EndSplineSet
EndChar

StartChar: uni1E9E
Encoding: 7838 7838 372
Width: 935
VWidth: 0
Flags: HMW
LayerCount: 2
Fore
SplineSet
143 354 m 1
 328 324 l 1
 271 0 l 1
 80 0 l 1
 143 354 l 1
593 345 m 1
 606 420 l 1
 680 420 729 448 738 498 c 0
 745 540 707 566 607 566 c 0
 482 566 359 497 328 324 c 1
 143 354 l 1
 181 568 370 710 624 710 c 0
 850 710 958 632 938 518 c 0
 919 409 783 345 593 345 c 1
603 -18 m 4
 395 -18 342 123 361 232 c 1
 525 232 l 1
 515 174 547 132 609 132 c 0
 673 132 706 158 715 210 c 0
 726 272 676 302 586 302 c 1
 600 380 l 1
 790 380 925 324 900 185 c 0
 879 66 757 -18 603 -18 c 4
EndSplineSet
EndChar

StartChar: Zacute
Encoding: 377 377 373
Width: 642
VWidth: 0
Flags: HW
LayerCount: 2
Fore
SplineSet
157 526 m 1
 187 700 l 1
 753 700 l 1
 339 166 l 1
 619 166 l 1
 590 0 l 1
 6 0 l 1
 414 526 l 1
 157 526 l 1
679.9296875 928 m 5
 473.9296875 778 l 5
 383.9296875 824 l 5
 561.9296875 984 l 5
 679.9296875 928 l 5
EndSplineSet
EndChar

StartChar: zacute
Encoding: 378 378 374
Width: 541
VWidth: 0
Flags: HW
LayerCount: 2
Fore
SplineSet
297 304 m 1
 116 304 l 1
 143 460 l 1
 607 460 l 1
 342 156 l 1
 518 156 l 1
 490 0 l 1
 15 0 l 1
 297 304 l 1
583.51953125 680 m 5
 377.51953125 530 l 5
 287.51953125 576 l 5
 465.51953125 736 l 5
 583.51953125 680 l 5
EndSplineSet
EndChar

StartChar: Zdotaccent
Encoding: 379 379 375
Width: 642
VWidth: 0
Flags: HW
LayerCount: 2
Fore
SplineSet
157 526 m 1
 187 700 l 1
 753 700 l 1
 339 166 l 1
 619 166 l 1
 590 0 l 1
 6 0 l 1
 414 526 l 1
 157 526 l 1
391.798828125 868 m 4
 400.798828125 922 451.798828125 958 505.798828125 958 c 4
 559.798828125 958 596.798828125 922 587.798828125 868 c 4
 578.798828125 814 527.798828125 778 473.798828125 778 c 4
 419.798828125 778 382.798828125 814 391.798828125 868 c 4
EndSplineSet
EndChar

StartChar: zdotaccent
Encoding: 380 380 376
Width: 541
VWidth: 0
Flags: HW
LayerCount: 2
Fore
SplineSet
297 304 m 1
 116 304 l 1
 143 460 l 1
 607 460 l 1
 342 156 l 1
 518 156 l 1
 490 0 l 1
 15 0 l 1
 297 304 l 1
295.388671875 630 m 4
 304.388671875 684 355.388671875 720 409.388671875 720 c 4
 463.388671875 720 500.388671875 684 491.388671875 630 c 4
 482.388671875 576 431.388671875 540 377.388671875 540 c 4
 323.388671875 540 286.388671875 576 295.388671875 630 c 4
EndSplineSet
EndChar
